<?xml version="1.0" standalone="no"?>
<!DOCTYPE svg PUBLIC "-//W3C//DTD SVG 1.1//EN" "http://www.w3.org/Graphics/SVG/1.1/DTD/svg11.dtd" >
<svg xmlns="http://www.w3.org/2000/svg" xmlns:xlink="http://www.w3.org/1999/xlink" version="1.1">
<metadata>
Created by FontForge 20170731 at Sun Sep 23 18:10:26 2018
 By Aleksey,,,
Copyright (C) 2001, 2011 Hoefler &#38; Co. http://www.typography.com |DCNT
</metadata>
<defs>
<font id="GothamCond-Light" horiz-adv-x="240" >
  <font-face 
    font-family="Gotham Cond Light"
    font-weight="300"
    font-stretch="extra-condensed"
    units-per-em="1000"
    panose-1="2 0 0 0 0 0 0 0 0 0"
    ascent="800"
    descent="-200"
    x-height="525"
    cap-height="700"
    bbox="-129 -200 726 914"
    underline-thickness="50"
    underline-position="-250"
    unicode-range="U+0020-FB04"
  />
<missing-glyph horiz-adv-x="500" 
d="M0 -200v1000h500v-1000h-500zM71 750l179 -390l179 390h-358zM50 -76l172 376l-172 376v-752zM450 676l-172 -376l172 -376v752zM250 240l-179 -390h358z" />
    <glyph glyph-name="f_f" unicode="ff" horiz-adv-x="430" 
d="M290 0v486h-54v39h54v61q0 66 31 97q26 26 71 26q20 0 31 -4v-41q-11 4 -30 4q-61 0 -61 -83v-60h86v-39h-86v-486h-42zM74 0v486h-54v39h54v61q0 66 31 97q26 26 71 26q20 0 31 -4v-41q-11 4 -30 4q-61 0 -61 -83v-60h86v-39h-86v-486h-42z" />
    <glyph glyph-name="fi" unicode="fi" horiz-adv-x="376" 
d="M74 0v486h-54v39h54v61q0 66 31 97q26 26 71 26q20 0 31 -4v-41q-11 4 -30 4q-61 0 -61 -83v-60h86v-39h-86v-486h-42zM275 0v525h42v-525h-42zM273 637v70h46v-70h-46z" />
    <glyph glyph-name="fl" unicode="fl" horiz-adv-x="376" 
d="M74 0v486h-54v39h54v61q0 66 31 97q26 26 71 26q20 0 31 -4v-41q-11 4 -30 4q-61 0 -61 -83v-60h86v-39h-86v-486h-42zM275 0v707h42v-707h-42z" />
    <glyph glyph-name="f_f_i" unicode="ffi" horiz-adv-x="592" 
d="M290 0v486h-54v39h54v61q0 66 31 97q26 26 71 26q20 0 31 -4v-41q-11 4 -30 4q-61 0 -61 -83v-60h86v-39h-86v-486h-42zM74 0v486h-54v39h54v61q0 66 31 97q26 26 71 26q20 0 31 -4v-41q-11 4 -30 4q-61 0 -61 -83v-60h86v-39h-86v-486h-42zM491 0v525h42v-525h-42z
M489 637v70h46v-70h-46z" />
    <glyph glyph-name="f_f_l" unicode="ffl" horiz-adv-x="592" 
d="M290 0v486h-54v39h54v61q0 66 31 97q26 26 71 26q20 0 31 -4v-41q-11 4 -30 4q-61 0 -61 -83v-60h86v-39h-86v-486h-42zM74 0v486h-54v39h54v61q0 66 31 97q26 26 71 26q20 0 31 -4v-41q-11 4 -30 4q-61 0 -61 -83v-60h86v-39h-86v-486h-42zM491 0v707h42v-707h-42z" />
    <glyph glyph-name=".notdef" horiz-adv-x="500" 
d="M0 -200v1000h500v-1000h-500zM71 750l179 -390l179 390h-358zM50 -76l172 376l-172 376v-752zM450 676l-172 -376l172 -376v752zM250 240l-179 -390h358z" />
    <glyph glyph-name=".null" horiz-adv-x="0" 
 />
    <glyph glyph-name="nonmarkingreturn" horiz-adv-x="333" 
 />
    <glyph glyph-name="space" unicode=" " horiz-adv-x="158" 
 />
    <glyph glyph-name="exclam" unicode="!" horiz-adv-x="192" 
d="M85 183l-15 447v70h52v-70l-15 -447h-22zM66 0v82h60v-82h-60z" />
    <glyph glyph-name="quotedbl" unicode="&#x22;" horiz-adv-x="221" 
d="M149 458v242h50v-9l-31 -233h-19zM44 458v242h50v-9l-31 -233h-19z" />
    <glyph glyph-name="numbersign" unicode="#" horiz-adv-x="388" 
d="M347 228v-40h-78l-18 -188h-35l18 188h-111l-18 -188h-35l18 188h-66v40h70l23 248h-74v40h78l18 184h35l-18 -184h111l18 184h35l-18 -184h66v-40h-70l-23 -248h74zM150 476l-23 -248h110l24 248h-111z" />
    <glyph glyph-name="dollar" unicode="$" horiz-adv-x="340" 
d="M289 671v-46q-57 37 -104 41v-286q66 -45 95.5 -94.5t29.5 -112.5v-3q0 -67 -34 -115t-91 -58v-96h-34v93q-63 1 -121 34v46q60 -40 121 -41v315q-62 38 -93 83t-31 114v2q0 60 34.5 102t89.5 53v66h34v-63q51 -1 104 -34zM268 171v2q0 96 -83 156v-293q41 11 62.5 48
t20.5 87zM69 547v-2q0 -52 21 -85.5t61 -61.5v265q-38 -9 -60.5 -40t-21.5 -76z" />
    <glyph glyph-name="percent" unicode="%" horiz-adv-x="500" 
d="M130 373q-43 0 -73 43.5t-30 118.5v8q0 75 30 118.5t73 43.5t73 -43.5t30 -118.5v-8q0 -75 -30 -118.5t-73 -43.5zM130 667q-30 0 -48 -33.5t-18 -90.5v-8q0 -57 18 -90.5t48 -33.5t48 33.5t18 90.5v8q0 57 -18 90.5t-48 33.5zM235 357l153 343h37l-160 -357l-153 -343
h-37zM370 -5q-43 0 -73 43.5t-30 118.5v8q0 75 30 118.5t73 43.5t73 -43.5t30 -118.5v-8q0 -75 -30 -118.5t-73 -43.5zM370 33q30 0 48 33.5t18 90.5v8q0 57 -18 90.5t-48 33.5t-48 -33.5t-18 -90.5v-8q0 -57 18 -90.5t48 -33.5z" />
    <glyph glyph-name="ampersand" unicode="&#x26;" horiz-adv-x="410" 
d="M362 -7l-55 102q-57 -102 -142 -102q-62 0 -100 50t-38 119v7q0 125 112 225q-38 65 -53.5 103.5t-15.5 74.5v5q0 52 33.5 91.5t84.5 39.5q52 0 82.5 -38t30.5 -87v-6q0 -52 -27.5 -96t-83.5 -96l113 -209q20 64 32 159l38 -6q-16 -114 -45 -194l69 -121zM171 416
q88 76 88 161v3q0 37 -19.5 63.5t-51.5 26.5q-34 0 -55 -27t-21 -65v-2q0 -34 12.5 -68t46.5 -92zM167 33q67 0 118 98l-128 232q-86 -76 -86 -191v-6q0 -56 27 -94.5t69 -38.5z" />
    <glyph glyph-name="quotesingle" unicode="'" horiz-adv-x="116" 
d="M44 458v242h50v-9l-31 -233h-19z" />
    <glyph glyph-name="parenleft" unicode="(" horiz-adv-x="235" 
d="M220 -102v-35q-84 59 -134 167.5t-50 259.5v1q0 150 50 258.5t134 167.5v-35q-142 -137 -142 -392v-1q0 -258 142 -391z" />
    <glyph glyph-name="parenright" unicode=")" horiz-adv-x="235" 
d="M15 -137v35q142 137 142 392v1q0 254 -142 391v35q84 -59 134 -167.5t50 -259.5v-1q0 -150 -50 -258.5t-134 -167.5z" />
    <glyph glyph-name="asterisk" unicode="*" horiz-adv-x="278" 
d="M121 432l8 116l-83 -62l-19 31l94 50l-94 50l19 31l83 -62l-8 116h36l-8 -116l83 62l19 -31l-94 -50l94 -50l-19 -31l-83 62l8 -116h-36z" />
    <glyph glyph-name="plus" unicode="+" horiz-adv-x="340" 
d="M150 207v125h-121v40h121v125h40v-125h121v-40h-121v-125h-40z" />
    <glyph glyph-name="comma" unicode="," horiz-adv-x="150" 
d="M32 -103l-12 25q29 13 41 31t10 47h-27v82h62v-71q0 -46 -16 -70t-58 -44z" />
    <glyph glyph-name="hyphen" unicode="-" horiz-adv-x="268" 
d="M40 276v40h188v-40h-188z" />
    <glyph glyph-name="period" unicode="." horiz-adv-x="150" 
d="M44 0v82h62v-82h-62z" />
    <glyph glyph-name="slash" unicode="/" horiz-adv-x="260" 
d="M-4 -98l218 866h38l-218 -866h-38z" />
    <glyph glyph-name="zero" unicode="0" horiz-adv-x="372" 
d="M186 -8q-147 0 -147 349v16q0 179 39 265t108 86q147 0 147 -349v-16q0 -179 -39 -265t-108 -86zM186 32q47 0 75 78.5t28 230.5v16q0 155 -27 233t-76 78t-76 -78t-27 -231v-16q0 -155 27 -233t76 -78z" />
    <glyph glyph-name="one" unicode="1" horiz-adv-x="205" 
d="M96 0v646l-73 -43v50l77 47h39v-700h-43z" />
    <glyph glyph-name="two" unicode="2" horiz-adv-x="329" 
d="M25 0v29l169 347q49 101 49 174q0 53 -26.5 83.5t-71.5 30.5q-50 0 -102 -32v47q49 29 104 29q65 0 103 -42t38 -111v-4q0 -47 -14 -89.5t-45 -108.5l-150 -310h215v-43h-269z" />
    <glyph glyph-name="three" unicode="3" horiz-adv-x="310" 
d="M112 -8q-51 0 -88 17v43q43 -19 90 -19q50 0 86.5 45.5t36.5 122.5v6q0 135 -150 149v31l138 268h-201v45h254v-29l-144 -281q147 -31 147 -182v-7q0 -96 -49 -152.5t-120 -56.5z" />
    <glyph glyph-name="four" unicode="4" horiz-adv-x="343" 
d="M229 0v161h-210v34l213 510h37v-506h55v-38h-55v-161h-40zM61 199h168v405z" />
    <glyph glyph-name="five" unicode="5" horiz-adv-x="328" 
d="M122 -8q-45 0 -83 18v43q36 -20 84 -20q53 0 89 51.5t36 132.5v4q0 81 -31 118.5t-79 37.5q-33 0 -68 -14l-30 20l14 317h212v-43h-174l-11 -250q33 12 61 12q65 0 107.5 -49t42.5 -148v-4q0 -99 -48.5 -162.5t-121.5 -63.5z" />
    <glyph glyph-name="six" unicode="6" horiz-adv-x="354" 
d="M181 -8q-44 0 -74 30q-66 66 -66 272v30q0 198 46 291t126 93q34 0 67 -14v-46q-31 17 -70 17q-33 0 -57.5 -24.5t-38.5 -66t-21.5 -89t-8.5 -100.5q50 50 104 50q57 0 96 -53t39 -158v-4q0 -100 -41 -164t-101 -64zM182 31q45 0 72 54t27 134v4q0 83 -28 127.5t-69 44.5
q-44 0 -100 -54v-55q0 -138 28 -196.5t70 -58.5z" />
    <glyph glyph-name="seven" unicode="7" horiz-adv-x="308" 
d="M68 0l162 657h-198v43h241v-38l-162 -662h-43z" />
    <glyph glyph-name="eight" unicode="8" horiz-adv-x="328" 
d="M164 -8q-62 0 -100 51.5t-38 134.5v7q0 61 24.5 108.5t66.5 67.5q-79 46 -79 166v6q0 81 36.5 128t89.5 47t89.5 -47t36.5 -128v-6q0 -120 -79 -166q42 -20 66.5 -67.5t24.5 -108.5v-7q0 -83 -38 -134.5t-100 -51.5zM164 380q36 0 59.5 44.5t23.5 103.5v4
q0 62 -22.5 99.5t-60.5 37.5t-60.5 -37.5t-22.5 -99.5v-4q0 -59 23.5 -103.5t59.5 -44.5zM164 31q43 0 69.5 42.5t26.5 106.5v3q0 68 -28 113t-68 45t-68 -45t-28 -113v-3q0 -64 26.5 -106.5t69.5 -42.5z" />
    <glyph glyph-name="nine" unicode="9" horiz-adv-x="354" 
d="M144 35q43 0 72 42.5t40 100t13 128.5q-51 -49 -103 -49q-58 0 -96.5 53.5t-38.5 161.5v4q0 104 40.5 168t101.5 64q44 0 74 -30q66 -66 66 -272v-30q0 -198 -46 -291t-126 -93q-39 0 -77 17v46q38 -20 80 -20zM170 297q44 0 100 54v64q0 137 -28 195.5t-70 58.5
q-45 0 -72 -54.5t-27 -137.5v-4q0 -88 27.5 -132t69.5 -44z" />
    <glyph glyph-name="colon" unicode=":" horiz-adv-x="160" 
d="M49 443v82h62v-82h-62zM49 0v82h62v-82h-62z" />
    <glyph glyph-name="semicolon" unicode=";" horiz-adv-x="160" 
d="M49 443v82h62v-82h-62zM37 -103l-12 25q29 13 41 31t10 47h-27v82h62v-71q0 -46 -16 -70t-58 -44z" />
    <glyph glyph-name="less" unicode="&#x3c;" horiz-adv-x="340" 
d="M288 181l-248 151v40l248 151v-50l-204 -121l204 -121v-50z" />
    <glyph glyph-name="equal" unicode="=" horiz-adv-x="340" 
d="M34 401v41h272v-41h-272zM34 262v41h272v-41h-272z" />
    <glyph glyph-name="greater" unicode="&#x3e;" horiz-adv-x="340" 
d="M52 181v50l204 121l-204 121v50l248 -151v-40z" />
    <glyph glyph-name="question" unicode="?" horiz-adv-x="303" 
d="M108 183l-8 173l5 7q61 24 94 63t33 105v4q0 58 -33 93t-80 35q-43 0 -95 -28v43q47 26 98 26q66 0 110 -47t44 -118v-6q0 -133 -132 -197l-9 -153h-27zM95 0v82h60v-82h-60z" />
    <glyph glyph-name="at" unicode="@" horiz-adv-x="634" 
d="M299 -133q-116 0 -190 89.5t-74 256.5q0 131 37 242.5t111.5 182t171.5 70.5q114 0 179 -89.5t65 -226.5q0 -127 -43 -223t-109 -96q-40 0 -59 30t-13 78q-52 -111 -121 -111q-36 0 -60 35t-24 90q0 123 49.5 218t113.5 95q67 0 81 -99l16 82l39 -8l-50 -257
q-6 -32 -6 -67q0 -55 37 -55q35 0 63.5 46t43 111t14.5 129q0 126 -56.5 209t-159.5 83q-92 0 -161 -71.5t-101 -175.5t-32 -218q0 -157 65.5 -240.5t172.5 -83.5q78 0 151 45l14 -22q-43 -26 -78.5 -37.5t-86.5 -11.5zM264 109q24 0 51 27q34 34 59 95t25 129
q0 48 -18 78.5t-45 30.5q-25 0 -48 -23q-37 -37 -57 -106t-20 -143q0 -42 14.5 -65t38.5 -23z" />
    <glyph glyph-name="A" unicode="A" horiz-adv-x="410" 
d="M28 0l153 703h48l153 -703h-46l-41 196h-182l-41 -196h-44zM121 236h166l-83 398z" />
    <glyph glyph-name="B" unicode="B" horiz-adv-x="373" 
d="M56 0v700h90q87 0 140 -53q47 -47 47 -122v-2q0 -135 -128 -169q65 -15 101 -58t36 -113v-2q0 -85 -58 -133t-157 -48h-71zM289 521v2q0 63 -39.5 100t-105.5 37h-44v-287h31q77 0 117.5 39t40.5 109zM298 182v2q0 72 -42.5 110.5t-120.5 38.5h-35v-293h28q80 0 125 36.5
t45 105.5z" />
    <glyph glyph-name="C" unicode="C" horiz-adv-x="329" 
d="M222 -6q-81 0 -133 89.5t-52 257.5v18q0 167 53.5 257t133.5 90q36 0 68 -17v-47q-40 22 -68 22q-61 0 -102 -80.5t-41 -224.5v-18q0 -144 41 -224.5t102 -80.5q34 0 71 23v-45q-33 -20 -73 -20z" />
    <glyph glyph-name="D" unicode="D" horiz-adv-x="400" 
d="M56 0v700h83q101 0 162.5 -88.5t61.5 -252.5v-18q0 -164 -61.5 -252.5t-162.5 -88.5h-83zM138 660h-38v-620h40q81 0 130 78t49 223v18q0 144 -50 222.5t-131 78.5z" />
    <glyph glyph-name="E" unicode="E" horiz-adv-x="325" 
d="M56 0v700h238v-40h-194v-287h177v-40h-177v-293h197v-40h-241z" />
    <glyph glyph-name="F" unicode="F" horiz-adv-x="306" 
d="M56 0v700h229v-40h-185v-297h168v-40h-168v-323h-44z" />
    <glyph glyph-name="G" unicode="G" horiz-adv-x="393" 
d="M247 -7q-91 0 -150.5 90.5t-59.5 257.5v18q0 166 61 256.5t151 90.5q48 0 85 -22v-48q-43 28 -86 28q-69 0 -118 -80t-49 -225v-18q0 -148 47.5 -228t121.5 -80q26 0 48 9v276h-104v40h146v-341q-45 -24 -93 -24z" />
    <glyph glyph-name="H" unicode="H" horiz-adv-x="416" 
d="M56 0v700h44v-328h216v328h44v-700h-44v332h-216v-332h-44z" />
    <glyph glyph-name="I" unicode="I" horiz-adv-x="170" 
d="M63 0v700h44v-700h-44z" />
    <glyph glyph-name="J" unicode="J" horiz-adv-x="236" 
d="M70 -5q-24 0 -50 8v41q26 -8 48 -8q33 0 52.5 21t19.5 62v581h44v-582q0 -59 -34 -93q-30 -30 -80 -30z" />
    <glyph glyph-name="K" unicode="K" horiz-adv-x="370" 
d="M56 0v700h44v-397l194 397h50l-161 -316l181 -384h-48l-158 336l-58 -114v-222h-44z" />
    <glyph glyph-name="L" unicode="L" horiz-adv-x="284" 
d="M56 0v700h44v-660h176v-40h-220z" />
    <glyph glyph-name="M" unicode="M" horiz-adv-x="478" 
d="M56 0v700h54l129 -391l130 391h53v-700h-42v603l-139 -407h-4l-139 407v-603h-42z" />
    <glyph glyph-name="N" unicode="N" horiz-adv-x="420" 
d="M56 0v700h48l218 -588v588h42v-700h-43l-223 602v-602h-42z" />
    <glyph glyph-name="O" unicode="O" horiz-adv-x="406" 
d="M203 -8q-74 0 -120 91t-46 259v16q0 168 46 259t120 91t120 -91t46 -259v-16q0 -168 -46 -259t-120 -91zM203 32q54 0 88 80.5t34 229.5v16q0 149 -34 229.5t-88 80.5t-88 -80.5t-34 -229.5v-16q0 -149 34 -229.5t88 -80.5z" />
    <glyph glyph-name="P" unicode="P" horiz-adv-x="364" 
d="M56 0v700h87q93 0 147 -59.5t54 -158.5v-2q0 -102 -54 -162t-151 -60h-39v-258h-44zM100 297h43q75 0 116 47.5t41 134.5v2q0 85 -42.5 132t-116.5 47h-41v-363z" />
    <glyph glyph-name="Q" unicode="Q" horiz-adv-x="406" 
d="M379 6l-31 -26l-51 65q-41 -53 -94 -53q-74 0 -120 91t-46 259v16q0 168 46 259t120 91t120 -91t46 -259v-16q0 -165 -51 -264zM203 32q41 0 71 43l-73 85l31 26l60 -76q33 82 33 232v16q0 149 -34 229.5t-88 80.5t-88 -80.5t-34 -229.5v-16q0 -149 34 -229.5t88 -80.5z
" />
    <glyph glyph-name="R" unicode="R" horiz-adv-x="383" 
d="M56 0v700h87q92 0 146 -54q55 -55 55 -152v-2q0 -72 -32 -123t-89 -73l134 -296h-52l-127 285q-18 -3 -39 -3h-39v-282h-44zM100 321h43q73 0 115 44.5t42 125.5v2q0 83 -42.5 125t-116.5 42h-41v-339z" />
    <glyph glyph-name="S" unicode="S" horiz-adv-x="333" 
d="M155 -8q-55 0 -121 37v50q70 -45 122 -45q45 0 71 27t26 74v2q0 43 -19 81t-79 118q-73 97 -94.5 138.5t-21.5 88.5v2q0 62 39.5 102.5t97.5 40.5q52 0 106 -31v-50q-57 39 -107 39q-41 0 -66.5 -27t-25.5 -71v-2q0 -39 19.5 -75.5t79.5 -113.5q66 -83 90.5 -132.5
t24.5 -104.5v-2q0 -65 -40.5 -105.5t-101.5 -40.5z" />
    <glyph glyph-name="T" unicode="T" horiz-adv-x="296" 
d="M126 0v660h-114v40h272v-40h-114v-660h-44z" />
    <glyph glyph-name="U" unicode="U" horiz-adv-x="407" 
d="M203 -9q-70 0 -110.5 50.5t-40.5 138.5v520h44v-521q0 -71 28 -109.5t79 -38.5t79.5 38.5t28.5 109.5v521h44v-520q0 -88 -41 -138.5t-111 -50.5z" />
    <glyph glyph-name="V" unicode="V" horiz-adv-x="392" 
d="M174 -5l-146 705h46l123 -622l123 622h44l-146 -705h-44z" />
    <glyph glyph-name="W" unicode="W" horiz-adv-x="611" 
d="M151 -5l-121 705h47l95 -611l114 611h41l113 -611l96 611h45l-121 -705h-41l-113 611l-114 -611h-41z" />
    <glyph glyph-name="X" unicode="X" horiz-adv-x="357" 
d="M277 700h44l-117 -327l133 -373h-45l-115 325l-113 -325h-44l132 369l-119 331h45l99 -283z" />
    <glyph glyph-name="Y" unicode="Y" horiz-adv-x="352" 
d="M154 0v302l-146 398h48l121 -343l122 343h45l-146 -398v-302h-44z" />
    <glyph glyph-name="Z" unicode="Z" horiz-adv-x="336" 
d="M30 0v26l232 636h-221v38h267v-26l-232 -636h232v-38h-278z" />
    <glyph glyph-name="bracketleft" unicode="[" horiz-adv-x="253" 
d="M78 -130v830h139v-33h-97v-764h97v-33h-139z" />
    <glyph glyph-name="backslash" unicode="\" horiz-adv-x="260" 
d="M226 -98l-218 866h38l218 -866h-38z" />
    <glyph glyph-name="bracketright" unicode="]" horiz-adv-x="253" 
d="M36 -130v33h97v764h-97v33h139v-830h-139z" />
    <glyph glyph-name="asciicircum" unicode="^" horiz-adv-x="300" 
d="M63 533l70 153h34l70 -153h-40l-48 104l-48 -104h-38z" />
    <glyph glyph-name="underscore" unicode="_" horiz-adv-x="452" 
d="M-2 -158v35h456v-35h-456z" />
    <glyph glyph-name="grave" unicode="`" horiz-adv-x="500" 
d="M279 576l-82 100l47 25l64 -125h-29z" />
    <glyph glyph-name="a" unicode="a" horiz-adv-x="345" 
d="M148 -9q-53 0 -86.5 46t-33.5 116v8q0 75 36.5 121.5t101.5 46.5q44 0 88 -20v66q0 116 -100 116q-53 0 -97 -24v41q44 23 99 23q64 0 102 -38t38 -113v-380h-42v76q-34 -85 -106 -85zM154 28q44 0 72 41t28 95v105q-45 21 -86 21q-47 0 -72.5 -35t-25.5 -92v-8
q0 -56 22 -91.5t62 -35.5z" />
    <glyph glyph-name="b" unicode="b" horiz-adv-x="376" 
d="M205 -8q-72 0 -110 109v-101h-42v707h42v-283q38 109 110 109q57 0 97 -70t40 -191v-19q0 -120 -40 -190.5t-97 -70.5zM200 29q43 0 71.5 60t28.5 165v17q0 105 -28.5 165t-71.5 60q-42 0 -74.5 -60.5t-32.5 -160.5v-25q0 -100 32.5 -160.5t74.5 -60.5z" />
    <glyph glyph-name="c" unicode="c" horiz-adv-x="281" 
d="M192 -7q-67 0 -113.5 67t-46.5 196v10q0 128 47 197t113 69q38 0 63 -18v-46q-30 24 -64 24q-46 0 -81.5 -58t-35.5 -166v-14q0 -110 35.5 -165.5t85.5 -55.5q31 0 60 24v-44q-28 -20 -63 -20z" />
    <glyph glyph-name="d" unicode="d" horiz-adv-x="376" 
d="M171 -8q-57 0 -97 70t-40 191v19q0 120 40 190.5t97 70.5q72 0 110 -109v283h42v-707h-42v101q-38 -109 -110 -109zM176 29q42 0 74.5 60.5t32.5 160.5v25q0 100 -32.5 160.5t-74.5 60.5q-43 0 -71.5 -60t-28.5 -165v-17q0 -105 28.5 -165t71.5 -60z" />
    <glyph glyph-name="e" unicode="e" horiz-adv-x="348" 
d="M199 -7q-70 0 -118.5 68t-48.5 192v9q0 130 41.5 200.5t102.5 70.5t99 -68t38 -189v-31h-239q2 -103 38 -157.5t93 -54.5q44 0 91 31l5 -43q-49 -28 -102 -28zM74 282h198q0 91 -27 151.5t-69 60.5q-43 0 -71 -55t-31 -157z" />
    <glyph glyph-name="f" unicode="f" horiz-adv-x="214" 
d="M74 0v486h-54v39h54v61q0 66 31 97q26 26 71 26q20 0 31 -4v-41q-11 4 -30 4q-61 0 -61 -83v-60h86v-39h-86v-486h-42z" />
    <glyph glyph-name="g" unicode="g" horiz-adv-x="376" 
d="M171 -132q-57 0 -115 21v43q65 -25 117 -25q108 0 108 106v124q-38 -109 -110 -109q-56 0 -96.5 66.5t-40.5 181.5v9q0 114 40.5 181t96.5 67q72 0 110 -109v101h42v-510q0 -71 -37 -108q-39 -39 -115 -39zM176 65q41 0 74 58t33 153v9q0 95 -33 153t-74 58t-70.5 -57
t-29.5 -155v-7q0 -98 29.5 -155t70.5 -57z" />
    <glyph glyph-name="h" unicode="h" horiz-adv-x="372" 
d="M53 0v707h42v-259q37 85 108 85q55 0 87.5 -43.5t32.5 -122.5v-367h-42v363q0 134 -86 134q-43 0 -71.5 -39.5t-28.5 -102.5v-355h-42z" />
    <glyph glyph-name="i" unicode="i" horiz-adv-x="160" 
d="M57 637v70h46v-70h-46zM59 0v525h42v-525h-42z" />
    <glyph glyph-name="j" unicode="j" horiz-adv-x="160" 
d="M57 637v70h46v-70h-46zM2 -132q-16 0 -29 5v39q12 -4 25 -4q36 0 48.5 23.5t12.5 69.5v524h42v-539q0 -50 -23 -84t-76 -34z" />
    <glyph glyph-name="k" unicode="k" horiz-adv-x="324" 
d="M53 0v707h42v-473l151 291h47l-117 -211l128 -314h-46l-107 270l-56 -101v-169h-42z" />
    <glyph glyph-name="l" unicode="l" horiz-adv-x="160" 
d="M59 0v707h42v-707h-42z" />
    <glyph glyph-name="m" unicode="m" horiz-adv-x="588" 
d="M53 0v525h42v-77q37 85 105 85q74 0 103 -89q39 89 116 89q55 0 87.5 -42.5t32.5 -121.5v-369h-42v365q0 132 -83 132q-42 0 -69.5 -38.5t-27.5 -101.5v-357h-42v365q0 132 -83 132q-42 0 -69.5 -38.5t-27.5 -101.5v-357h-42z" />
    <glyph glyph-name="n" unicode="n" horiz-adv-x="372" 
d="M53 0v525h42v-77q37 85 108 85q55 0 87.5 -43.5t32.5 -122.5v-367h-42v363q0 134 -86 134q-43 0 -71.5 -39.5t-28.5 -102.5v-355h-42z" />
    <glyph glyph-name="o" unicode="o" horiz-adv-x="362" 
d="M181 -8q-62 0 -105.5 73.5t-43.5 192.5v9q0 119 44 192.5t106 73.5q61 0 104.5 -73.5t43.5 -192.5v-9q0 -119 -43.5 -192.5t-105.5 -73.5zM181 31q45 0 76 62.5t31 164.5v9q0 102 -31 164.5t-76 62.5t-76 -62.5t-31 -164.5v-9q0 -102 31 -164.5t76 -62.5z" />
    <glyph glyph-name="p" unicode="p" horiz-adv-x="376" 
d="M53 -130v655h42v-101q38 109 110 109q57 0 97 -70t40 -191v-19q0 -120 -40 -190.5t-97 -70.5q-72 0 -110 109v-231h-42zM200 29q43 0 71.5 60t28.5 165v17q0 105 -28.5 165t-71.5 60q-42 0 -74.5 -60.5t-32.5 -160.5v-25q0 -100 32.5 -160.5t74.5 -60.5z" />
    <glyph glyph-name="q" unicode="q" horiz-adv-x="376" 
d="M281 -130v231q-38 -109 -110 -109q-57 0 -97 70t-40 191v19q0 120 40 190.5t97 70.5q72 0 110 -109v101h42v-655h-42zM176 29q42 0 74.5 60.5t32.5 160.5v25q0 100 -32.5 160.5t-74.5 60.5q-43 0 -71.5 -60t-28.5 -165v-17q0 -105 28.5 -165t71.5 -60z" />
    <glyph glyph-name="r" unicode="r" horiz-adv-x="234" 
d="M53 0v525h42v-77q37 88 123 83v-45h-2q-53 0 -87 -34t-34 -100v-352h-42z" />
    <glyph glyph-name="s" unicode="s" horiz-adv-x="279" 
d="M130 -6q-50 0 -105 25v44q57 -30 107 -30q34 0 57 21t23 57v2q0 53 -83 133q-59 57 -81 92t-22 76v2q0 52 35.5 83.5t83.5 31.5q47 0 87 -17v-44q-43 22 -89 22q-33 0 -54 -20t-21 -54v-2q0 -28 18 -55.5t65 -73.5q57 -54 80 -92.5t23 -79.5v-2q0 -54 -36.5 -86.5
t-87.5 -32.5z" />
    <glyph glyph-name="t" unicode="t" horiz-adv-x="225" 
d="M162 -4q-93 0 -93 92v398h-50v39h50v148h42v-148h85v-39h-85v-392q0 -33 13.5 -45.5t41.5 -12.5q19 0 32 5v-39q-16 -6 -36 -6z" />
    <glyph glyph-name="u" unicode="u" horiz-adv-x="372" 
d="M169 -8q-55 0 -87.5 43t-32.5 123v367h42v-363q0 -134 86 -134q43 0 71.5 39.5t28.5 102.5v355h42v-525h-42v77q-37 -85 -108 -85z" />
    <glyph glyph-name="v" unicode="v" horiz-adv-x="348" 
d="M156 -3l-129 528h43l104 -454l106 454h41l-129 -528h-36z" />
    <glyph glyph-name="w" unicode="w" horiz-adv-x="533" 
d="M141 -3l-109 528h44l84 -455l89 455h38l87 -455l86 455h41l-109 -528h-38l-88 442l-87 -442h-38z" />
    <glyph glyph-name="x" unicode="x" horiz-adv-x="332" 
d="M77 525l89 -216l89 216h44l-109 -252l118 -273h-45l-98 235l-97 -235h-44l117 271l-109 254h45z" />
    <glyph glyph-name="y" unicode="y" horiz-adv-x="346" 
d="M173 77l104 448h42l-159 -655h-40v1l33 134l-127 520h43z" />
    <glyph glyph-name="z" unicode="z" horiz-adv-x="290" 
d="M26 0v25l191 463h-181v37h227v-25l-191 -463h186v-37h-232z" />
    <glyph glyph-name="braceleft" unicode="{" horiz-adv-x="266" 
d="M244 -105v-31q-143 7 -143 128q0 31 20 90t20 96q0 38 -27.5 67t-85.5 29h-9v30h9q57 0 85 30t28 67q0 36 -20 96.5t-20 99.5q0 46 35 81t108 38v-31q-50 -2 -75.5 -27t-25.5 -65q0 -34 20 -92t20 -92q0 -42 -23 -77t-72 -43q50 -9 72.5 -42.5t22.5 -76.5q0 -34 -20 -92
t-20 -92q0 -40 26 -64.5t75 -26.5z" />
    <glyph glyph-name="bar" unicode="|" horiz-adv-x="216" 
d="M90 -98v866h36v-866h-36z" />
    <glyph glyph-name="braceright" unicode="}" horiz-adv-x="266" 
d="M22 -136v31q50 2 75.5 27t25.5 65q0 34 -20 92t-20 92q0 43 22.5 77t72.5 43q-50 9 -72.5 42.5t-22.5 76.5q0 34 20 92t20 92q0 40 -26 64.5t-75 26.5v31q143 -7 143 -128q0 -31 -20 -90t-20 -96q0 -38 27.5 -67t85.5 -29h9v-30h-9q-57 0 -85 -30t-28 -67q0 -35 20 -96.5
t20 -99.5q0 -46 -35 -81t-108 -38z" />
    <glyph glyph-name="asciitilde" unicode="~" horiz-adv-x="294" 
d="M191 250q-21 0 -50 26q-23 23 -34 23q-16 0 -28 -45l-30 8q18 75 54 75q21 0 50 -26q23 -23 34 -23q16 0 28 45l30 -8q-18 -75 -54 -75z" />
    <glyph glyph-name="uni00A0" unicode="&#xa0;" horiz-adv-x="25000" 
 />
    <glyph glyph-name="exclamdown" unicode="&#xa1;" horiz-adv-x="192" 
d="M66 618v82h60v-82h-60zM70 0v70l15 447h22l15 -447v-70h-52z" />
    <glyph glyph-name="cent" unicode="&#xa2;" horiz-adv-x="290" 
d="M187 703v-83q39 -1 71 -22v-43q-34 20 -71 24v-459q38 2 71 25v-42q-32 -21 -71 -22v-86h-34v88q-118 25 -118 261v10q0 236 118 263v86h34zM77 356v-14q0 -190 76 -217v449q-76 -29 -76 -218z" />
    <glyph glyph-name="sterling" unicode="&#xa3;" horiz-adv-x="322" 
d="M32 0v21l50 18v288h-54v37h54v172q0 86 47 133q38 38 95 38q35 0 59 -11v-42q-28 13 -57 13q-41 0 -68 -27q-33 -33 -33 -105v-171h128v-37h-128v-288h185v-39h-278z" />
    <glyph glyph-name="yen" unicode="&#xa5;" horiz-adv-x="342" 
d="M53 275v35h90l-138 390h48l119 -354l119 354h46l-139 -390h91v-35h-97v-99h97v-35h-97v-141h-42v141h-97v35h97v99h-97z" />
    <glyph glyph-name="section" unicode="&#xa7;" horiz-adv-x="360" 
d="M224 210q34 -25 47.5 -48t13.5 -55v-3q0 -48 -34.5 -79.5t-90.5 -31.5q-46 0 -84 17v44q43 -22 87 -22q36 0 58 20t22 51v3q0 31 -21.5 53.5t-79.5 56.5q-69 39 -94.5 69.5t-25.5 70.5v2q0 83 114 132q-34 25 -47.5 48t-13.5 55v3q0 48 34.5 79.5t90.5 31.5q46 0 84 -17
v-44q-43 22 -87 22q-36 0 -58 -20t-22 -51v-3q0 -31 21.5 -53.5t79.5 -56.5q69 -40 94.5 -70t25.5 -70v-2q0 -81 -114 -132zM160 252l32 -20q104 42 104 108v2q0 27 -21 50t-75 56l-32 20q-104 -42 -104 -108v-2q0 -28 21.5 -51t74.5 -55z" />
    <glyph glyph-name="dieresis" unicode="&#xa8;" horiz-adv-x="500" 
d="M277 586v67h46v-67h-46zM177 586v67h46v-67h-46z" />
    <glyph glyph-name="copyright" unicode="&#xa9;" horiz-adv-x="523" 
d="M261 -10q-106 0 -171.5 99t-65.5 244v35q0 146 65.5 244.5t171.5 98.5t172 -99t66 -244v-35q0 -145 -66 -244t-172 -99zM261 15q97 0 154.5 92t57.5 226v35q0 134 -57.5 226t-154.5 92q-96 0 -153.5 -92t-57.5 -226v-35q0 -134 57.5 -226t153.5 -92zM270 152
q-46 0 -75.5 49t-29.5 144v11q0 94 30.5 143t77.5 49q23 0 43 -11v-38q-25 14 -41 14q-32 0 -53 -39.5t-21 -115.5v-16q0 -76 21 -115.5t53 -39.5q19 0 42 15v-37q-22 -13 -47 -13z" />
    <glyph glyph-name="ordfeminine" unicode="&#xaa;" horiz-adv-x="250" 
d="M109 403q-28 0 -47 25t-19 64v6q0 42 20 67t55 25q24 0 43 -10v31q0 27 -13 42.5t-36 15.5q-25 0 -53 -14v33q26 14 56 14q44 0 63 -28q17 -23 17 -60v-206h-34v34q-19 -39 -52 -39zM43 322v28h165v-28h-165zM114 433q20 0 33.5 20.5t13.5 50.5v47q-22 9 -40 9
q-45 0 -45 -61v-5q0 -61 38 -61z" />
    <glyph glyph-name="guillemotleft" unicode="&#xab;" horiz-adv-x="339" 
d="M275 43l-121 208v8l121 208l30 -16l-106 -195l106 -197zM153 43l-121 208v8l121 208l30 -16l-106 -195l106 -197z" />
    <glyph glyph-name="registered" unicode="&#xae;" horiz-adv-x="312" 
d="M156 373q49 0 78.5 44t29.5 110v18q0 66 -29.5 110t-78.5 44t-78.5 -44t-29.5 -110v-18q0 -66 29.5 -110t78.5 -44zM156 355q-56 0 -91.5 49t-35.5 123v18q0 74 35.5 123t91.5 49t91.5 -49t35.5 -123v-18q0 -74 -35.5 -123t-91.5 -49zM114 444v191h36q28 0 43.5 -15.5
t15.5 -42.5v-1q0 -39 -30 -53l36 -79h-24l-33 73q-7 -1 -12 -1h-10v-72h-22zM136 536h14q38 0 38 40v1q0 17 -10.5 27.5t-27.5 9.5h-14v-78z" />
    <glyph glyph-name="macron" unicode="&#xaf;" horiz-adv-x="500" 
d="M160 588v39h180v-39h-180z" />
    <glyph glyph-name="degree" unicode="&#xb0;" horiz-adv-x="248" 
d="M124 402q-43 0 -71 40t-28 109v8q0 69 28 109t71 40t71 -40t28 -109v-8q0 -69 -28 -109t-71 -40zM124 437q29 0 46 30.5t17 83.5v8q0 53 -17 83.5t-46 30.5t-46 -30.5t-17 -83.5v-8q0 -53 17 -83.5t46 -30.5z" />
    <glyph glyph-name="plusminus" unicode="&#xb1;" horiz-adv-x="340" 
d="M311 332h-121v-125h-40v125h-121v40h121v125h40v-125h121v-40zM311 97h-282v41h282v-41z" />
    <glyph glyph-name="two.sup" unicode="&#xb2;" 
d="M24 466v22l114 161q33 49 33 81q0 25 -16 38.5t-39 13.5q-41 0 -80 -43v41q36 36 83 36q38 0 63 -23t25 -62q0 -43 -40 -99l-92 -132h136v-34h-187z" />
    <glyph glyph-name="three.sup" unicode="&#xb3;" 
d="M101 462q-40 0 -70 24v39q30 -30 72 -30q29 0 49 16.5t20 50.5q0 66 -102 70h-1v24l91 122h-129v34h175v-25l-95 -126q97 -14 97 -98q0 -47 -30.5 -74t-76.5 -27z" />
    <glyph glyph-name="acute" unicode="&#xb4;" horiz-adv-x="500" 
d="M192 576l64 125l47 -25l-82 -100h-29z" />
    <glyph glyph-name="mu" unicode="&#xb5;" horiz-adv-x="399" 
d="M391 39v-37q-17 -6 -33 -6q-66 0 -75 73q-29 -77 -95 -77q-68 0 -97 82h-1l2 -33q3 -60 3 -70v-101h-42v655h42v-356q0 -64 26.5 -101t66.5 -37q41 0 67 36.5t26 100.5v357h42v-424q0 -38 10 -52t33 -14q10 0 25 4z" />
    <glyph glyph-name="paragraph" unicode="&#xb6;" horiz-adv-x="325" 
d="M225 0v258h-1q-97 0 -150.5 60t-53.5 162v2q0 99 54 158.5t147 59.5h48v-700h-44z" />
    <glyph glyph-name="periodcentered" unicode="&#xb7;" horiz-adv-x="152" 
d="M44 255v85h64v-85h-64z" />
    <glyph glyph-name="cedilla" unicode="&#xb8;" horiz-adv-x="500" 
d="M234 -110l-46 19l59 101h31z" />
    <glyph glyph-name="one.sup" unicode="&#xb9;" horiz-adv-x="195" 
d="M124 466h-35v304l-67 -37v36l70 43h32v-346z" />
    <glyph glyph-name="ordmasculine" unicode="&#xba;" horiz-adv-x="250" 
d="M125 403q-39 0 -61.5 39.5t-22.5 105.5v10q0 66 22.5 105.5t61.5 39.5t61.5 -39.5t22.5 -105.5v-10q0 -66 -22.5 -105.5t-61.5 -39.5zM47 322v28h158v-28h-158zM125 435q25 0 37.5 32.5t12.5 80.5v10q0 48 -12.5 80.5t-37.5 32.5q-50 0 -50 -113v-10q0 -113 50 -113z" />
    <glyph glyph-name="guillemotright" unicode="&#xbb;" horiz-adv-x="339" 
d="M186 43l-30 16l106 195l-106 197l30 16l121 -208v-8zM64 43l-30 16l106 195l-106 197l30 16l121 -208v-8z" />
    <glyph glyph-name="onequarter" unicode="&#xbc;" horiz-adv-x="495" 
d="M127 354h-35v304l-67 -37v36l70 43h32v-346zM82 0l145 358l138 343h35l-145 -358l-139 -343h-34zM432 72v-72h-32v72h-135v25l127 251h40v-246h35v-30h-35zM400 102v190h-4l-94 -190h98z" />
    <glyph glyph-name="onehalf" unicode="&#xbd;" horiz-adv-x="495" 
d="M274 0v22l114 161q33 49 33 81q0 25 -16 38.5t-39 13.5q-41 0 -80 -43v41q36 36 83 36q38 0 63 -23t25 -62q0 -43 -40 -99l-92 -132h136v-34h-187zM53 0l145 358l138 343h35l-145 -358l-139 -343h-34zM127 354h-35v304l-67 -37v36l70 43h32v-346z" />
    <glyph glyph-name="threequarters" unicode="&#xbe;" horiz-adv-x="540" 
d="M481 72v-72h-32v72h-135v25l127 251h40v-246h35v-30h-35zM449 102v190h-4l-94 -190h98zM130 0l145 358l138 343h35l-145 -358l-139 -343h-34zM102 350q-40 0 -70 24v39q30 -30 72 -30q29 0 49 16.5t20 50.5q0 66 -102 70h-1v24l91 122h-129v34h175v-25l-95 -126
q97 -14 97 -98q0 -47 -30.5 -74t-76.5 -27z" />
    <glyph glyph-name="questiondown" unicode="&#xbf;" horiz-adv-x="303" 
d="M148 618v82h60v-82h-60zM181 -4q-66 0 -110 47t-44 118v6q0 133 132 197l9 153h27l8 -173l-5 -7q-61 -24 -94 -63t-33 -105v-4q0 -59 32.5 -93.5t80.5 -34.5q43 0 95 28v-43q-47 -26 -98 -26z" />
    <glyph glyph-name="Agrave" unicode="&#xc0;" horiz-adv-x="410" 
d="M28 0l153 703h48l153 -703h-46l-41 196h-182l-41 -196h-44zM121 236h166l-83 398zM224 745h-32l-78 82l48 22z" />
    <glyph glyph-name="Aacute" unicode="&#xc1;" horiz-adv-x="410" 
d="M28 0l153 703h48l153 -703h-46l-41 196h-182l-41 -196h-44zM121 236h166l-83 398zM188 745l62 104l48 -22l-78 -82h-32z" />
    <glyph glyph-name="Acircumflex" unicode="&#xc2;" horiz-adv-x="410" 
d="M28 0l153 703h48l153 -703h-46l-41 196h-182l-41 -196h-44zM121 236h166l-83 398zM114 745l72 97h40l72 -97h-42l-51 58l-51 -58h-40z" />
    <glyph glyph-name="Atilde" unicode="&#xc3;" horiz-adv-x="410" 
d="M28 0l153 703h48l153 -703h-46l-41 196h-182l-41 -196h-44zM121 236h166l-83 398zM254 747q-21 0 -52 21q-28 18 -36 18q-17 0 -29 -35l-32 8q22 65 57 65q21 0 52 -21q28 -18 36 -18q17 0 29 35l32 -8q-22 -65 -57 -65z" />
    <glyph glyph-name="Adieresis" unicode="&#xc4;" horiz-adv-x="410" 
d="M28 0l153 703h48l153 -703h-46l-41 196h-182l-41 -196h-44zM121 236h166l-83 398zM233 755v63h50v-63h-50zM129 755v63h50v-63h-50z" />
    <glyph glyph-name="Aring" unicode="&#xc5;" horiz-adv-x="410" 
d="M28 0l145 666q-48 18 -48 69q0 32 23.5 53t56.5 21t55.5 -21t22.5 -53q0 -48 -47 -68l146 -667h-46l-41 196h-182l-41 -196h-44zM121 236h166l-83 398zM204 688q21 0 34.5 13.5t13.5 33.5t-13.5 33.5t-34.5 13.5t-34.5 -13.5t-13.5 -33.5t13.5 -33.5t34.5 -13.5z" />
    <glyph glyph-name="AE" unicode="&#xc6;" horiz-adv-x="514" 
d="M8 0l197 700h278v-40h-194v-287h177v-40h-177v-293h197v-40h-241v196h-139l-55 -196h-43zM117 236h128v424h-10z" />
    <glyph glyph-name="Ccedilla" unicode="&#xc7;" horiz-adv-x="329" 
d="M179 -110l-46 19l52 90q-67 19 -107.5 106.5t-40.5 235.5v18q0 167 53.5 257t133.5 90q36 0 68 -17v-47q-40 22 -68 22q-61 0 -102 -80.5t-41 -224.5v-18q0 -144 41 -224.5t102 -80.5q34 0 71 23v-45q-33 -20 -73 -20h-5z" />
    <glyph glyph-name="Egrave" unicode="&#xc8;" horiz-adv-x="325" 
d="M56 0v700h238v-40h-194v-287h177v-40h-177v-293h197v-40h-241zM196 740h-32l-78 82l48 22z" />
    <glyph glyph-name="Eacute" unicode="&#xc9;" horiz-adv-x="325" 
d="M56 0v700h238v-40h-194v-287h177v-40h-177v-293h197v-40h-241zM160 740l62 104l48 -22l-78 -82h-32z" />
    <glyph glyph-name="Ecircumflex" unicode="&#xca;" horiz-adv-x="325" 
d="M56 0v700h238v-40h-194v-287h177v-40h-177v-293h197v-40h-241zM86 745l72 97h40l72 -97h-42l-51 58l-51 -58h-40z" />
    <glyph glyph-name="Edieresis" unicode="&#xcb;" horiz-adv-x="325" 
d="M56 0v700h238v-40h-194v-287h177v-40h-177v-293h197v-40h-241zM205 750v63h50v-63h-50zM101 750v63h50v-63h-50z" />
    <glyph glyph-name="Igrave" unicode="&#xcc;" horiz-adv-x="170" 
d="M63 0v700h44v-700h-44zM104 740h-32l-78 82l48 22z" />
    <glyph glyph-name="Iacute" unicode="&#xcd;" horiz-adv-x="170" 
d="M63 0v700h44v-700h-44zM68 740l62 104l48 -22l-78 -82h-32z" />
    <glyph glyph-name="Icircumflex" unicode="&#xce;" horiz-adv-x="170" 
d="M63 0v700h44v-700h-44zM-6 745l72 97h40l72 -97h-42l-51 58l-51 -58h-40z" />
    <glyph glyph-name="Idieresis" unicode="&#xcf;" horiz-adv-x="170" 
d="M63 0v700h44v-700h-44zM113 750v63h50v-63h-50zM9 750v63h50v-63h-50z" />
    <glyph glyph-name="Eth" unicode="&#xd0;" horiz-adv-x="406" 
d="M7 333v38h55v329h83q101 0 162.5 -88.5t61.5 -252.5v-18q0 -164 -61.5 -252.5t-162.5 -88.5h-83v333h-55zM325 341v18q0 144 -50 222.5t-131 78.5h-38v-289h88v-38h-88v-293h40q81 0 130 78t49 223z" />
    <glyph glyph-name="Ntilde" unicode="&#xd1;" horiz-adv-x="420" 
d="M56 0v700h48l218 -588v588h42v-700h-43l-223 602v-602h-42zM259 738q-21 0 -52 21q-28 18 -36 18q-17 0 -29 -35l-32 8q22 65 57 65q21 0 52 -21q28 -18 36 -18q17 0 29 35l32 -8q-22 -65 -57 -65z" />
    <glyph glyph-name="Ograve" unicode="&#xd2;" horiz-adv-x="406" 
d="M203 -8q-74 0 -120 91t-46 259v16q0 168 46 259t120 91t120 -91t46 -259v-16q0 -168 -46 -259t-120 -91zM203 32q54 0 88 80.5t34 229.5v16q0 149 -34 229.5t-88 80.5t-88 -80.5t-34 -229.5v-16q0 -149 34 -229.5t88 -80.5zM222 745h-32l-78 82l48 22z" />
    <glyph glyph-name="Oacute" unicode="&#xd3;" horiz-adv-x="406" 
d="M203 -8q-74 0 -120 91t-46 259v16q0 168 46 259t120 91t120 -91t46 -259v-16q0 -168 -46 -259t-120 -91zM203 32q54 0 88 80.5t34 229.5v16q0 149 -34 229.5t-88 80.5t-88 -80.5t-34 -229.5v-16q0 -149 34 -229.5t88 -80.5zM186 745l62 104l48 -22l-78 -82h-32z" />
    <glyph glyph-name="Ocircumflex" unicode="&#xd4;" horiz-adv-x="406" 
d="M203 -8q-74 0 -120 91t-46 259v16q0 168 46 259t120 91t120 -91t46 -259v-16q0 -168 -46 -259t-120 -91zM203 32q54 0 88 80.5t34 229.5v16q0 149 -34 229.5t-88 80.5t-88 -80.5t-34 -229.5v-16q0 -149 34 -229.5t88 -80.5zM112 750l72 97h40l72 -97h-42l-51 58l-51 -58
h-40z" />
    <glyph glyph-name="Otilde" unicode="&#xd5;" horiz-adv-x="406" 
d="M203 -8q-74 0 -120 91t-46 259v16q0 168 46 259t120 91t120 -91t46 -259v-16q0 -168 -46 -259t-120 -91zM203 32q54 0 88 80.5t34 229.5v16q0 149 -34 229.5t-88 80.5t-88 -80.5t-34 -229.5v-16q0 -149 34 -229.5t88 -80.5zM252 747q-21 0 -52 21q-28 18 -36 18
q-17 0 -29 -35l-32 8q22 65 57 65q21 0 52 -21q28 -18 36 -18q17 0 29 35l32 -8q-22 -65 -57 -65z" />
    <glyph glyph-name="Odieresis" unicode="&#xd6;" horiz-adv-x="406" 
d="M203 -8q-74 0 -120 91t-46 259v16q0 168 46 259t120 91t120 -91t46 -259v-16q0 -168 -46 -259t-120 -91zM203 32q54 0 88 80.5t34 229.5v16q0 149 -34 229.5t-88 80.5t-88 -80.5t-34 -229.5v-16q0 -149 34 -229.5t88 -80.5zM231 755v63h50v-63h-50zM127 755v63h50v-63
h-50z" />
    <glyph glyph-name="multiply" unicode="&#xd7;" horiz-adv-x="340" 
d="M261 221l-91 102l-91 -102l-29 26l94 105l-94 105l29 26l91 -102l91 102l29 -26l-94 -105l94 -105z" />
    <glyph glyph-name="Oslash" unicode="&#xd8;" horiz-adv-x="406" 
d="M327 708h43l-42 -102q41 -90 41 -248v-16q0 -168 -46 -259t-120 -91q-59 0 -100 57l-24 -57h-43l42 102q-41 90 -41 248v16q0 168 46 259t120 91q60 0 100 -58zM80 358v-16q0 -117 21 -192l185 451q-32 68 -83 68q-54 0 -88.5 -81.5t-34.5 -229.5zM203 31q54 0 88.5 81.5
t34.5 229.5v16q0 112 -21 191l-185 -451q31 -67 83 -67z" />
    <glyph glyph-name="Ugrave" unicode="&#xd9;" horiz-adv-x="407" 
d="M203 -9q-70 0 -110.5 50.5t-40.5 138.5v520h44v-521q0 -71 28 -109.5t79 -38.5t79.5 38.5t28.5 109.5v521h44v-520q0 -88 -41 -138.5t-111 -50.5zM222 736h-32l-78 82l48 22z" />
    <glyph glyph-name="Uacute" unicode="&#xda;" horiz-adv-x="407" 
d="M203 -9q-70 0 -110.5 50.5t-40.5 138.5v520h44v-521q0 -71 28 -109.5t79 -38.5t79.5 38.5t28.5 109.5v521h44v-520q0 -88 -41 -138.5t-111 -50.5zM186 736l62 104l48 -22l-78 -82h-32z" />
    <glyph glyph-name="Ucircumflex" unicode="&#xdb;" horiz-adv-x="407" 
d="M203 -9q-70 0 -110.5 50.5t-40.5 138.5v520h44v-521q0 -71 28 -109.5t79 -38.5t79.5 38.5t28.5 109.5v521h44v-520q0 -88 -41 -138.5t-111 -50.5zM112 741l72 97h40l72 -97h-42l-51 58l-51 -58h-40z" />
    <glyph glyph-name="Udieresis" unicode="&#xdc;" horiz-adv-x="407" 
d="M203 -9q-70 0 -110.5 50.5t-40.5 138.5v520h44v-521q0 -71 28 -109.5t79 -38.5t79.5 38.5t28.5 109.5v521h44v-520q0 -88 -41 -138.5t-111 -50.5zM231 746v63h50v-63h-50zM127 746v63h50v-63h-50z" />
    <glyph glyph-name="Yacute" unicode="&#xdd;" horiz-adv-x="352" 
d="M154 0v302l-146 398h48l121 -343l122 343h45l-146 -398v-302h-44zM159 736l62 104l48 -22l-78 -82h-32z" />
    <glyph glyph-name="Thorn" unicode="&#xde;" horiz-adv-x="364" 
d="M56 0v700h44v-122h43q93 0 147 -59.5t54 -158.5v-2q0 -102 -54 -162t-151 -60h-39v-136h-44zM100 175h43q75 0 116 47.5t41 134.5v2q0 85 -42.5 132t-116.5 47h-41v-363z" />
    <glyph glyph-name="germandbls" unicode="&#xdf;" horiz-adv-x="364" 
d="M154 -2v36q70 5 104.5 44.5t34.5 104.5v3q0 135 -139 160v33q62 22 90 68t28 103v3q0 56 -24.5 86.5t-61.5 30.5q-42 0 -66.5 -37.5t-24.5 -103.5v-529h-42v526q0 87 36 135.5t98 48.5q55 0 91 -42t36 -112v-5q0 -67 -30 -113.5t-81 -69.5q132 -45 132 -178v-6
q0 -83 -47.5 -133.5t-133.5 -52.5z" />
    <glyph glyph-name="agrave" unicode="&#xe0;" horiz-adv-x="345" 
d="M148 -9q-53 0 -86.5 46t-33.5 116v8q0 75 36.5 121.5t101.5 46.5q44 0 88 -20v66q0 116 -100 116q-53 0 -97 -24v41q44 23 99 23q64 0 102 -38t38 -113v-380h-42v76q-34 -85 -106 -85zM154 28q44 0 72 41t28 95v105q-45 21 -86 21q-47 0 -72.5 -35t-25.5 -92v-8
q0 -56 22 -91.5t62 -35.5zM161 576l-82 100l47 25l64 -125h-29z" />
    <glyph glyph-name="aacute" unicode="&#xe1;" horiz-adv-x="345" 
d="M148 -9q-53 0 -86.5 46t-33.5 116v8q0 75 36.5 121.5t101.5 46.5q44 0 88 -20v66q0 116 -100 116q-53 0 -97 -24v41q44 23 99 23q64 0 102 -38t38 -113v-380h-42v76q-34 -85 -106 -85zM154 28q44 0 72 41t28 95v105q-45 21 -86 21q-47 0 -72.5 -35t-25.5 -92v-8
q0 -56 22 -91.5t62 -35.5zM154 576l64 125l47 -25l-82 -100h-29z" />
    <glyph glyph-name="acircumflex" unicode="&#xe2;" horiz-adv-x="345" 
d="M148 -9q-53 0 -86.5 46t-33.5 116v8q0 75 36.5 121.5t101.5 46.5q44 0 88 -20v66q0 116 -100 116q-53 0 -97 -24v41q44 23 99 23q64 0 102 -38t38 -113v-380h-42v76q-34 -85 -106 -85zM154 28q44 0 72 41t28 95v105q-45 21 -86 21q-47 0 -72.5 -35t-25.5 -92v-8
q0 -56 22 -91.5t62 -35.5zM88 581l67 122h34l67 -122h-37l-48 75l-48 -75h-35z" />
    <glyph glyph-name="atilde" unicode="&#xe3;" horiz-adv-x="345" 
d="M148 -9q-53 0 -86.5 46t-33.5 116v8q0 75 36.5 121.5t101.5 46.5q44 0 88 -20v66q0 116 -100 116q-53 0 -97 -24v41q44 23 99 23q64 0 102 -38t38 -113v-380h-42v76q-34 -85 -106 -85zM154 28q44 0 72 41t28 95v105q-45 21 -86 21q-47 0 -72.5 -35t-25.5 -92v-8
q0 -56 22 -91.5t62 -35.5zM216 578q-21 0 -50 26q-23 23 -34 23q-16 0 -28 -45l-30 8q18 75 54 75q21 0 50 -26q23 -23 34 -23q16 0 28 45l30 -8q-18 -75 -54 -75z" />
    <glyph glyph-name="adieresis" unicode="&#xe4;" horiz-adv-x="345" 
d="M148 -9q-53 0 -86.5 46t-33.5 116v8q0 75 36.5 121.5t101.5 46.5q44 0 88 -20v66q0 116 -100 116q-53 0 -97 -24v41q44 23 99 23q64 0 102 -38t38 -113v-380h-42v76q-34 -85 -106 -85zM154 28q44 0 72 41t28 95v105q-45 21 -86 21q-47 0 -72.5 -35t-25.5 -92v-8
q0 -56 22 -91.5t62 -35.5zM199 586v67h46v-67h-46zM99 586v67h46v-67h-46z" />
    <glyph glyph-name="aring" unicode="&#xe5;" horiz-adv-x="345" 
d="M148 -9q-53 0 -86.5 46t-33.5 116v8q0 75 36.5 121.5t101.5 46.5q44 0 88 -20v66q0 116 -100 116q-53 0 -97 -24v41q44 23 99 23q64 0 102 -38t38 -113v-380h-42v76q-34 -85 -106 -85zM154 28q44 0 72 41t28 95v105q-45 21 -86 21q-47 0 -72.5 -35t-25.5 -92v-8
q0 -56 22 -91.5t62 -35.5zM171 577q-33 0 -55.5 23t-22.5 56t23 56t57 23q33 0 55.5 -23t22.5 -56t-23 -56t-57 -23zM172 603q22 0 36 15t14 38t-14 38t-36 15t-36 -15t-14 -38t14 -38t36 -15z" />
    <glyph glyph-name="ae" unicode="&#xe6;" horiz-adv-x="564" 
d="M148 -9q-53 0 -86.5 46t-33.5 116v8q0 75 36.5 121.5t101.5 46.5q44 0 88 -20v66q0 116 -100 116q-53 0 -97 -24v41q44 23 99 23q101 0 127 -89q38 91 109 91q61 0 99 -68t38 -189v-31h-239q2 -103 38 -157.5t93 -54.5q44 0 91 31l5 -43q-49 -28 -102 -28q-46 0 -83.5 30
t-58.5 89q-16 -53 -47 -87t-78 -34zM290 282h198q0 91 -27 151.5t-69 60.5q-43 0 -71 -55t-31 -157zM154 28q40 0 67 38.5t39 93.5q-10 58 -8 111q-49 19 -84 19q-47 0 -72.5 -35t-25.5 -92v-8q0 -56 22 -91.5t62 -35.5z" />
    <glyph glyph-name="ccedilla" unicode="&#xe7;" horiz-adv-x="281" 
d="M147 -110l-46 19l52 90q-54 17 -87.5 82t-33.5 175v10q0 128 47 197t113 69q38 0 63 -18v-46q-30 24 -64 24q-46 0 -81.5 -58t-35.5 -166v-14q0 -110 35.5 -165.5t85.5 -55.5q31 0 60 24v-44q-28 -20 -63 -20h-7z" />
    <glyph glyph-name="egrave" unicode="&#xe8;" horiz-adv-x="348" 
d="M199 -7q-70 0 -118.5 68t-48.5 192v9q0 130 41.5 200.5t102.5 70.5t99 -68t38 -189v-31h-239q2 -103 38 -157.5t93 -54.5q44 0 91 31l5 -43q-49 -28 -102 -28zM74 282h198q0 91 -27 151.5t-69 60.5q-43 0 -71 -55t-31 -157zM166 576l-82 100l47 25l64 -125h-29z" />
    <glyph glyph-name="eacute" unicode="&#xe9;" horiz-adv-x="348" 
d="M199 -7q-70 0 -118.5 68t-48.5 192v9q0 130 41.5 200.5t102.5 70.5t99 -68t38 -189v-31h-239q2 -103 38 -157.5t93 -54.5q44 0 91 31l5 -43q-49 -28 -102 -28zM74 282h198q0 91 -27 151.5t-69 60.5q-43 0 -71 -55t-31 -157zM159 576l64 125l47 -25l-82 -100h-29z" />
    <glyph glyph-name="ecircumflex" unicode="&#xea;" horiz-adv-x="348" 
d="M199 -7q-70 0 -118.5 68t-48.5 192v9q0 130 41.5 200.5t102.5 70.5t99 -68t38 -189v-31h-239q2 -103 38 -157.5t93 -54.5q44 0 91 31l5 -43q-49 -28 -102 -28zM74 282h198q0 91 -27 151.5t-69 60.5q-43 0 -71 -55t-31 -157zM93 581l67 122h34l67 -122h-37l-48 75l-48 -75
h-35z" />
    <glyph glyph-name="edieresis" unicode="&#xeb;" horiz-adv-x="348" 
d="M199 -7q-70 0 -118.5 68t-48.5 192v9q0 130 41.5 200.5t102.5 70.5t99 -68t38 -189v-31h-239q2 -103 38 -157.5t93 -54.5q44 0 91 31l5 -43q-49 -28 -102 -28zM74 282h198q0 91 -27 151.5t-69 60.5q-43 0 -71 -55t-31 -157zM204 586v67h46v-67h-46zM104 586v67h46v-67
h-46z" />
    <glyph glyph-name="igrave" unicode="&#xec;" horiz-adv-x="160" 
d="M59 0v525h42v-525h-42zM70 576l-82 100l47 25l64 -125h-29z" />
    <glyph glyph-name="iacute" unicode="&#xed;" horiz-adv-x="160" 
d="M59 0v525h42v-525h-42zM63 576l64 125l47 -25l-82 -100h-29z" />
    <glyph glyph-name="icircumflex" unicode="&#xee;" horiz-adv-x="160" 
d="M59 0v525h42v-525h-42zM-3 581l67 122h34l67 -122h-37l-48 75l-48 -75h-35z" />
    <glyph glyph-name="idieresis" unicode="&#xef;" horiz-adv-x="160" 
d="M59 0v525h42v-525h-42zM108 586v67h46v-67h-46zM8 586v67h46v-67h-46z" />
    <glyph glyph-name="eth" unicode="&#xf0;" horiz-adv-x="361" 
d="M283 679l-66 -41q111 -171 111 -354v-15q0 -131 -43.5 -204t-104.5 -73q-60 0 -104 72.5t-44 193.5v9q0 118 43 192t100 74q39 0 81 -54q-22 67 -72 139l-70 -44l-19 30l69 43q-15 20 -49 60h52q21 -24 30 -40l67 42zM180 31q44 0 75 62.5t31 164.5v9q0 106 -32.5 166.5
t-75.5 60.5t-73.5 -63t-30.5 -164v-9q0 -101 31 -164t75 -63z" />
    <glyph glyph-name="ntilde" unicode="&#xf1;" horiz-adv-x="372" 
d="M53 0v525h42v-77q37 85 108 85q55 0 87.5 -43.5t32.5 -122.5v-367h-42v363q0 134 -86 134q-43 0 -71.5 -39.5t-28.5 -102.5v-355h-42zM232 578q-21 0 -50 26q-23 23 -34 23q-16 0 -28 -45l-30 8q18 75 54 75q21 0 50 -26q23 -23 34 -23q16 0 28 45l30 -8q-18 -75 -54 -75
z" />
    <glyph glyph-name="ograve" unicode="&#xf2;" horiz-adv-x="362" 
d="M181 -8q-62 0 -105.5 73.5t-43.5 192.5v9q0 119 44 192.5t106 73.5q61 0 104.5 -73.5t43.5 -192.5v-9q0 -119 -43.5 -192.5t-105.5 -73.5zM181 31q45 0 76 62.5t31 164.5v9q0 102 -31 164.5t-76 62.5t-76 -62.5t-31 -164.5v-9q0 -102 31 -164.5t76 -62.5zM171 576
l-82 100l47 25l64 -125h-29z" />
    <glyph glyph-name="oacute" unicode="&#xf3;" horiz-adv-x="362" 
d="M181 -8q-62 0 -105.5 73.5t-43.5 192.5v9q0 119 44 192.5t106 73.5q61 0 104.5 -73.5t43.5 -192.5v-9q0 -119 -43.5 -192.5t-105.5 -73.5zM181 31q45 0 76 62.5t31 164.5v9q0 102 -31 164.5t-76 62.5t-76 -62.5t-31 -164.5v-9q0 -102 31 -164.5t76 -62.5zM164 576l64 125
l47 -25l-82 -100h-29z" />
    <glyph glyph-name="ocircumflex" unicode="&#xf4;" horiz-adv-x="362" 
d="M181 -8q-62 0 -105.5 73.5t-43.5 192.5v9q0 119 44 192.5t106 73.5q61 0 104.5 -73.5t43.5 -192.5v-9q0 -119 -43.5 -192.5t-105.5 -73.5zM181 31q45 0 76 62.5t31 164.5v9q0 102 -31 164.5t-76 62.5t-76 -62.5t-31 -164.5v-9q0 -102 31 -164.5t76 -62.5zM98 581l67 122
h34l67 -122h-37l-48 75l-48 -75h-35z" />
    <glyph glyph-name="otilde" unicode="&#xf5;" horiz-adv-x="362" 
d="M181 -8q-62 0 -105.5 73.5t-43.5 192.5v9q0 119 44 192.5t106 73.5q61 0 104.5 -73.5t43.5 -192.5v-9q0 -119 -43.5 -192.5t-105.5 -73.5zM181 31q45 0 76 62.5t31 164.5v9q0 102 -31 164.5t-76 62.5t-76 -62.5t-31 -164.5v-9q0 -102 31 -164.5t76 -62.5zM226 578
q-21 0 -50 26q-23 23 -34 23q-16 0 -28 -45l-30 8q18 75 54 75q21 0 50 -26q23 -23 34 -23q16 0 28 45l30 -8q-18 -75 -54 -75z" />
    <glyph glyph-name="odieresis" unicode="&#xf6;" horiz-adv-x="362" 
d="M181 -8q-62 0 -105.5 73.5t-43.5 192.5v9q0 119 44 192.5t106 73.5q61 0 104.5 -73.5t43.5 -192.5v-9q0 -119 -43.5 -192.5t-105.5 -73.5zM181 31q45 0 76 62.5t31 164.5v9q0 102 -31 164.5t-76 62.5t-76 -62.5t-31 -164.5v-9q0 -102 31 -164.5t76 -62.5zM209 586v67h46
v-67h-46zM109 586v67h46v-67h-46z" />
    <glyph glyph-name="divide" unicode="&#xf7;" horiz-adv-x="340" 
d="M143 444v71h54v-71h-54zM311 330h-282v44h282v-44zM143 189v71h54v-71h-54z" />
    <glyph glyph-name="oslash" unicode="&#xf8;" horiz-adv-x="362" 
d="M286 529h40l-36 -75q40 -78 40 -187v-9q0 -119 -43.5 -192.5t-105.5 -73.5q-47 0 -86 45l-19 -41h-40l36 76q-40 72 -40 186v9q0 119 44 192.5t106 73.5q46 0 85 -45zM73 267v-9q0 -85 20 -142l158 331q-30 48 -70 48q-45 0 -76.5 -63t-31.5 -165zM181 30q45 0 76.5 63
t31.5 165v9q0 81 -20 141l-158 -330q28 -48 70 -48z" />
    <glyph glyph-name="ugrave" unicode="&#xf9;" horiz-adv-x="372" 
d="M169 -8q-55 0 -87.5 43t-32.5 123v367h42v-363q0 -134 86 -134q43 0 71.5 39.5t28.5 102.5v355h42v-525h-42v77q-37 -85 -108 -85zM174 572l-82 100l47 25l64 -125h-29z" />
    <glyph glyph-name="uacute" unicode="&#xfa;" horiz-adv-x="372" 
d="M169 -8q-55 0 -87.5 43t-32.5 123v367h42v-363q0 -134 86 -134q43 0 71.5 39.5t28.5 102.5v355h42v-525h-42v77q-37 -85 -108 -85zM167 572l64 125l47 -25l-82 -100h-29z" />
    <glyph glyph-name="ucircumflex" unicode="&#xfb;" horiz-adv-x="372" 
d="M169 -8q-55 0 -87.5 43t-32.5 123v367h42v-363q0 -134 86 -134q43 0 71.5 39.5t28.5 102.5v355h42v-525h-42v77q-37 -85 -108 -85zM101 577l67 122h34l67 -122h-37l-48 75l-48 -75h-35z" />
    <glyph glyph-name="udieresis" unicode="&#xfc;" horiz-adv-x="372" 
d="M169 -8q-55 0 -87.5 43t-32.5 123v367h42v-363q0 -134 86 -134q43 0 71.5 39.5t28.5 102.5v355h42v-525h-42v77q-37 -85 -108 -85zM212 582v67h46v-67h-46zM112 582v67h46v-67h-46z" />
    <glyph glyph-name="yacute" unicode="&#xfd;" horiz-adv-x="346" 
d="M173 77l104 448h42l-159 -655h-40v1l33 134l-127 520h43zM155 572l64 125l47 -25l-82 -100h-29z" />
    <glyph glyph-name="thorn" unicode="&#xfe;" horiz-adv-x="376" 
d="M53 -130v837h42v-283q38 109 110 109q57 0 97 -70t40 -191v-19q0 -120 -40 -190.5t-97 -70.5q-72 0 -110 109v-231h-42zM200 29q43 0 71.5 60t28.5 165v17q0 105 -28.5 165t-71.5 60q-42 0 -74.5 -60.5t-32.5 -160.5v-25q0 -100 32.5 -160.5t74.5 -60.5z" />
    <glyph glyph-name="ydieresis" unicode="&#xff;" horiz-adv-x="346" 
d="M173 77l104 448h42l-159 -655h-40v1l33 134l-127 520h43zM200 582v67h46v-67h-46zM100 582v67h46v-67h-46z" />
    <glyph glyph-name="Amacron" unicode="&#x100;" horiz-adv-x="410" 
d="M28 0l153 703h48l153 -703h-46l-41 196h-182l-41 -196h-44zM121 236h166l-83 398zM110 757v41h192v-41h-192z" />
    <glyph glyph-name="amacron" unicode="&#x101;" horiz-adv-x="345" 
d="M148 -9q-53 0 -86.5 46t-33.5 116v8q0 75 36.5 121.5t101.5 46.5q44 0 88 -20v66q0 116 -100 116q-53 0 -97 -24v41q44 23 99 23q64 0 102 -38t38 -113v-380h-42v76q-34 -85 -106 -85zM154 28q44 0 72 41t28 95v105q-45 21 -86 21q-47 0 -72.5 -35t-25.5 -92v-8
q0 -56 22 -91.5t62 -35.5zM82 588v39h180v-39h-180z" />
    <glyph glyph-name="Abreve" unicode="&#x102;" horiz-adv-x="410" 
d="M28 0l153 703h48l153 -703h-46l-41 196h-182l-41 -196h-44zM121 236h166l-83 398zM206 748q-39 0 -64 20t-30 59h37q12 -39 57 -39t57 39h37q-5 -39 -30 -59t-64 -20z" />
    <glyph glyph-name="abreve" unicode="&#x103;" horiz-adv-x="345" 
d="M148 -9q-53 0 -86.5 46t-33.5 116v8q0 75 36.5 121.5t101.5 46.5q44 0 88 -20v66q0 116 -100 116q-53 0 -97 -24v41q44 23 99 23q64 0 102 -38t38 -113v-380h-42v76q-34 -85 -106 -85zM154 28q44 0 72 41t28 95v105q-45 21 -86 21q-47 0 -72.5 -35t-25.5 -92v-8
q0 -56 22 -91.5t62 -35.5zM172 579q-83 0 -93 94h36q10 -55 57 -55t57 55h36q-10 -94 -93 -94z" />
    <glyph glyph-name="Aogonek" unicode="&#x104;" horiz-adv-x="410" 
d="M387 -87v-32q-11 -1 -20 -1q-62 0 -62 47q0 31 39 73h-8l-41 196h-182l-41 -196h-44l153 703h48l153 -703h-9q-28 -39 -28 -61q0 -26 42 -26zM121 236h166l-83 398z" />
    <glyph glyph-name="aogonek" unicode="&#x105;" horiz-adv-x="345" 
d="M303 -87v-32q-11 -1 -20 -1q-62 0 -62 47q0 31 39 73h-6v76q-34 -85 -106 -85q-53 0 -86.5 46t-33.5 116v8q0 75 36.5 121.5t101.5 46.5q44 0 88 -20v66q0 116 -100 116q-53 0 -97 -24v41q44 23 99 23q64 0 102 -38t38 -113v-380h-7q-28 -39 -28 -61q0 -26 42 -26z
M154 28q44 0 72 41t28 95v105q-45 21 -86 21q-47 0 -72.5 -35t-25.5 -92v-8q0 -56 22 -91.5t62 -35.5z" />
    <glyph glyph-name="Cacute" unicode="&#x106;" horiz-adv-x="329" 
d="M222 -6q-81 0 -133 89.5t-52 257.5v18q0 167 53.5 257t133.5 90q36 0 68 -17v-47q-40 22 -68 22q-61 0 -102 -80.5t-41 -224.5v-18q0 -144 41 -224.5t102 -80.5q34 0 71 23v-45q-33 -20 -73 -20zM188 745l62 104l48 -22l-78 -82h-32z" />
    <glyph glyph-name="cacute" unicode="&#x107;" horiz-adv-x="281" 
d="M192 -7q-67 0 -113.5 67t-46.5 196v10q0 128 47 197t113 69q38 0 63 -18v-46q-30 24 -64 24q-46 0 -81.5 -58t-35.5 -166v-14q0 -110 35.5 -165.5t85.5 -55.5q31 0 60 24v-44q-28 -20 -63 -20zM160 576l64 125l47 -25l-82 -100h-29z" />
    <glyph glyph-name="Cdotaccent" unicode="&#x10a;" horiz-adv-x="329" 
d="M222 -6q-81 0 -133 89.5t-52 257.5v18q0 167 53.5 257t133.5 90q36 0 68 -17v-47q-40 22 -68 22q-61 0 -102 -80.5t-41 -224.5v-18q0 -144 41 -224.5t102 -80.5q34 0 71 23v-45q-33 -20 -73 -20zM180 755v63h52v-63h-52z" />
    <glyph glyph-name="cdotaccent" unicode="&#x10b;" horiz-adv-x="281" 
d="M192 -7q-67 0 -113.5 67t-46.5 196v10q0 128 47 197t113 69q38 0 63 -18v-46q-30 24 -64 24q-46 0 -81.5 -58t-35.5 -166v-14q0 -110 35.5 -165.5t85.5 -55.5q31 0 60 24v-44q-28 -20 -63 -20zM153 586v67h50v-67h-50z" />
    <glyph glyph-name="Ccaron" unicode="&#x10c;" horiz-adv-x="329" 
d="M222 -6q-81 0 -133 89.5t-52 257.5v18q0 167 53.5 257t133.5 90q36 0 68 -17v-47q-40 22 -68 22q-61 0 -102 -80.5t-41 -224.5v-18q0 -144 41 -224.5t102 -80.5q34 0 71 23v-45q-33 -20 -73 -20zM298 847l-72 -97h-40l-72 97h42l51 -58l51 58h40z" />
    <glyph glyph-name="ccaron" unicode="&#x10d;" horiz-adv-x="281" 
d="M192 -7q-67 0 -113.5 67t-46.5 196v10q0 128 47 197t113 69q38 0 63 -18v-46q-30 24 -64 24q-46 0 -81.5 -58t-35.5 -166v-14q0 -110 35.5 -165.5t85.5 -55.5q31 0 60 24v-44q-28 -20 -63 -20zM262 703l-67 -122h-34l-67 122h37l48 -75l48 75h35z" />
    <glyph glyph-name="Dcaron" unicode="&#x10e;" horiz-adv-x="400" 
d="M56 0v700h83q101 0 162.5 -88.5t61.5 -252.5v-18q0 -164 -61.5 -252.5t-162.5 -88.5h-83zM138 660h-38v-620h40q81 0 130 78t49 223v18q0 144 -50 222.5t-131 78.5zM285 842l-72 -97h-40l-72 97h42l51 -58l51 58h40z" />
    <glyph glyph-name="dcaron" unicode="&#x10f;" horiz-adv-x="376" 
d="M171 -8q-57 0 -97 70t-40 191v19q0 120 40 190.5t97 70.5q72 0 110 -109v283h42v-707h-42v101q-38 -109 -110 -109zM176 29q42 0 74.5 60.5t32.5 160.5v25q0 100 -32.5 160.5t-74.5 60.5q-43 0 -71.5 -60t-28.5 -165v-17q0 -105 28.5 -165t71.5 -60zM355 559l7 148h38v-2
l-25 -146h-20z" />
    <glyph glyph-name="Dcroat" unicode="&#x110;" horiz-adv-x="406" 
d="M7 333v38h55v329h83q101 0 162.5 -88.5t61.5 -252.5v-18q0 -164 -61.5 -252.5t-162.5 -88.5h-83v333h-55zM325 341v18q0 144 -50 222.5t-131 78.5h-38v-289h88v-38h-88v-293h40q81 0 130 78t49 223z" />
    <glyph glyph-name="dcroat" unicode="&#x111;" horiz-adv-x="376" 
d="M175 599v36h106v72h42v-72h48v-36h-48v-599h-42v101q-38 -109 -110 -109q-57 0 -97 70t-40 191v19q0 120 40 190.5t97 70.5q72 0 110 -109v175h-106zM176 29q42 0 74.5 60.5t32.5 160.5v25q0 100 -32.5 160.5t-74.5 60.5q-43 0 -71.5 -60t-28.5 -165v-17
q0 -105 28.5 -165t71.5 -60z" />
    <glyph glyph-name="Emacron" unicode="&#x112;" horiz-adv-x="325" 
d="M56 0v700h238v-40h-194v-287h177v-40h-177v-293h197v-40h-241zM82 752v41h192v-41h-192z" />
    <glyph glyph-name="emacron" unicode="&#x113;" horiz-adv-x="348" 
d="M199 -7q-70 0 -118.5 68t-48.5 192v9q0 130 41.5 200.5t102.5 70.5t99 -68t38 -189v-31h-239q2 -103 38 -157.5t93 -54.5q44 0 91 31l5 -43q-49 -28 -102 -28zM74 282h198q0 91 -27 151.5t-69 60.5q-43 0 -71 -55t-31 -157zM87 588v39h180v-39h-180z" />
    <glyph glyph-name="Ebreve" unicode="&#x114;" horiz-adv-x="325" 
d="M56 0v700h238v-40h-194v-287h177v-40h-177v-293h197v-40h-241zM178 743q-39 0 -64 20t-30 59h37q12 -39 57 -39t57 39h37q-5 -39 -30 -59t-64 -20z" />
    <glyph glyph-name="ebreve" unicode="&#x115;" horiz-adv-x="348" 
d="M199 -7q-70 0 -118.5 68t-48.5 192v9q0 130 41.5 200.5t102.5 70.5t99 -68t38 -189v-31h-239q2 -103 38 -157.5t93 -54.5q44 0 91 31l5 -43q-49 -28 -102 -28zM74 282h198q0 91 -27 151.5t-69 60.5q-43 0 -71 -55t-31 -157zM177 579q-83 0 -93 94h36q10 -55 57 -55t57 55
h36q-10 -94 -93 -94z" />
    <glyph glyph-name="Edotaccent" unicode="&#x116;" horiz-adv-x="325" 
d="M56 0v700h238v-40h-194v-287h177v-40h-177v-293h197v-40h-241zM152 750v63h52v-63h-52z" />
    <glyph glyph-name="edotaccent" unicode="&#x117;" horiz-adv-x="348" 
d="M199 -7q-70 0 -118.5 68t-48.5 192v9q0 130 41.5 200.5t102.5 70.5t99 -68t38 -189v-31h-239q2 -103 38 -157.5t93 -54.5q44 0 91 31l5 -43q-49 -28 -102 -28zM74 282h198q0 91 -27 151.5t-69 60.5q-43 0 -71 -55t-31 -157zM152 586v67h50v-67h-50z" />
    <glyph glyph-name="Eogonek" unicode="&#x118;" horiz-adv-x="325" 
d="M56 0v700h238v-40h-194v-287h177v-40h-177v-293h197v-40h-11q-28 -39 -28 -61q0 -26 42 -26v-32q-11 -1 -20 -1q-62 0 -62 47q0 31 39 73h-201z" />
    <glyph glyph-name="eogonek" unicode="&#x119;" horiz-adv-x="348" 
d="M74 282h198q0 91 -27 151.5t-69 60.5q-43 0 -71 -55t-31 -157zM296 64l4 -35v-1q-52 -57 -52 -89q0 -26 42 -26v-32q-11 -1 -20 -1q-62 0 -62 47q0 31 37 71q-25 -5 -46 -5q-70 0 -118.5 68t-48.5 192v9q0 130 41.5 200.5t102.5 70.5t99 -68t38 -189v-31h-239
q2 -103 38 -157.5t93 -54.5q44 0 91 31z" />
    <glyph glyph-name="Ecaron" unicode="&#x11a;" horiz-adv-x="325" 
d="M56 0v700h238v-40h-194v-287h177v-40h-177v-293h197v-40h-241zM270 842l-72 -97h-40l-72 97h42l51 -58l51 58h40z" />
    <glyph glyph-name="ecaron" unicode="&#x11b;" horiz-adv-x="348" 
d="M199 -7q-70 0 -118.5 68t-48.5 192v9q0 130 41.5 200.5t102.5 70.5t99 -68t38 -189v-31h-239q2 -103 38 -157.5t93 -54.5q44 0 91 31l5 -43q-49 -28 -102 -28zM74 282h198q0 91 -27 151.5t-69 60.5q-43 0 -71 -55t-31 -157zM261 703l-67 -122h-34l-67 122h37l48 -75
l48 75h35z" />
    <glyph glyph-name="Gbreve" unicode="&#x11e;" horiz-adv-x="393" 
d="M247 -7q-91 0 -150.5 90.5t-59.5 257.5v18q0 166 61 256.5t151 90.5q48 0 85 -22v-48q-43 28 -86 28q-69 0 -118 -80t-49 -225v-18q0 -148 47.5 -228t121.5 -80q26 0 48 9v276h-104v40h146v-341q-45 -24 -93 -24zM225 748q-39 0 -64 20t-30 59h37q12 -39 57 -39t57 39h37
q-5 -39 -30 -59t-64 -20z" />
    <glyph glyph-name="gbreve" unicode="&#x11f;" horiz-adv-x="376" 
d="M171 -132q-57 0 -115 21v43q65 -25 117 -25q108 0 108 106v124q-38 -109 -110 -109q-56 0 -96.5 66.5t-40.5 181.5v9q0 114 40.5 181t96.5 67q72 0 110 -109v101h42v-510q0 -71 -37 -108q-39 -39 -115 -39zM176 65q41 0 74 58t33 153v9q0 95 -33 153t-74 58t-70.5 -57
t-29.5 -155v-7q0 -98 29.5 -155t70.5 -57zM194 579q-83 0 -93 94h36q10 -55 57 -55t57 55h36q-10 -94 -93 -94z" />
    <glyph glyph-name="Gdotaccent" unicode="&#x120;" horiz-adv-x="393" 
d="M247 -7q-91 0 -150.5 90.5t-59.5 257.5v18q0 166 61 256.5t151 90.5q48 0 85 -22v-48q-43 28 -86 28q-69 0 -118 -80t-49 -225v-18q0 -148 47.5 -228t121.5 -80q26 0 48 9v276h-104v40h146v-341q-45 -24 -93 -24zM199 755v63h52v-63h-52z" />
    <glyph glyph-name="gdotaccent" unicode="&#x121;" horiz-adv-x="376" 
d="M171 -132q-57 0 -115 21v43q65 -25 117 -25q108 0 108 106v124q-38 -109 -110 -109q-56 0 -96.5 66.5t-40.5 181.5v9q0 114 40.5 181t96.5 67q72 0 110 -109v101h42v-510q0 -71 -37 -108q-39 -39 -115 -39zM176 65q41 0 74 58t33 153v9q0 95 -33 153t-74 58t-70.5 -57
t-29.5 -155v-7q0 -98 29.5 -155t70.5 -57zM169 586v67h50v-67h-50z" />
    <glyph glyph-name="Gcommaaccent" unicode="&#x122;" horiz-adv-x="393" 
d="M247 -7q-91 0 -150.5 90.5t-59.5 257.5v18q0 166 61 256.5t151 90.5q48 0 85 -22v-48q-43 28 -86 28q-69 0 -118 -80t-49 -225v-18q0 -148 47.5 -228t121.5 -80q26 0 48 9v276h-104v40h146v-341q-45 -24 -93 -24zM203 -189l-11 18q32 17 28 52h-21v58h50v-54
q0 -29 -10.5 -45t-35.5 -29z" />
    <glyph glyph-name="gcommaaccent" unicode="&#x123;" horiz-adv-x="376" 
d="M171 -132q-57 0 -115 21v43q65 -25 117 -25q108 0 108 106v124q-38 -109 -110 -109q-56 0 -96.5 66.5t-40.5 181.5v9q0 114 40.5 181t96.5 67q72 0 110 -109v101h42v-510q0 -71 -37 -108q-39 -39 -115 -39zM176 65q41 0 74 58t33 153v9q0 95 -33 153t-74 58t-70.5 -57
t-29.5 -155v-7q0 -98 29.5 -155t70.5 -57zM215 714l11 -18q-32 -17 -28 -52h21v-58h-50v54q0 29 10.5 45t35.5 29z" />
    <glyph glyph-name="Hbar" unicode="&#x126;" horiz-adv-x="428" 
d="M7 555v38h55v107h44v-107h216v107h44v-107h55v-38h-55v-555h-44v332h-216v-332h-44v555h-55zM106 372h216v184h-216v-184z" />
    <glyph glyph-name="hbar" unicode="&#x127;" horiz-adv-x="372" 
d="M201 599h-106v-151q37 85 108 85q55 0 87.5 -43.5t32.5 -122.5v-367h-42v363q0 134 -86 134q-43 0 -71.5 -39.5t-28.5 -102.5v-355h-42v599h-48v36h48v72h42v-72h106v-36z" />
    <glyph glyph-name="Imacron" unicode="&#x12a;" horiz-adv-x="170" 
d="M63 0v700h44v-700h-44zM-10 752v41h192v-41h-192z" />
    <glyph glyph-name="imacron" unicode="&#x12b;" horiz-adv-x="160" 
d="M59 0v525h42v-525h-42zM-9 588v39h180v-39h-180z" />
    <glyph glyph-name="Ibreve" unicode="&#x12c;" horiz-adv-x="170" 
d="M63 0v700h44v-700h-44zM86 743q-39 0 -64 20t-30 59h37q12 -39 57 -39t57 39h37q-5 -39 -30 -59t-64 -20z" />
    <glyph glyph-name="ibreve" unicode="&#x12d;" horiz-adv-x="160" 
d="M59 0v525h42v-525h-42zM81 579q-83 0 -93 94h36q10 -55 57 -55t57 55h36q-10 -94 -93 -94z" />
    <glyph glyph-name="Iogonek" unicode="&#x12e;" horiz-adv-x="170" 
d="M63 0v700h44v-700h-6q-28 -39 -28 -61q0 -26 42 -26v-32q-11 -1 -20 -1q-62 0 -62 47q0 31 39 73h-9z" />
    <glyph glyph-name="iogonek" unicode="&#x12f;" horiz-adv-x="160" 
d="M59 0v525h42v-525h-6q-28 -39 -28 -61q0 -26 42 -26v-32q-11 -1 -20 -1q-62 0 -62 47q0 31 39 73h-7zM57 637v70h46v-70h-46z" />
    <glyph glyph-name="Idotaccent" unicode="&#x130;" horiz-adv-x="170" 
d="M63 0v700h44v-700h-44zM60 750v63h52v-63h-52z" />
    <glyph glyph-name="dotlessi" unicode="&#x131;" horiz-adv-x="160" 
d="M59 0v525h42v-525h-42z" />
    <glyph glyph-name="Kcommaaccent" unicode="&#x136;" horiz-adv-x="370" 
d="M56 0v700h44v-397l194 397h50l-161 -316l181 -384h-48l-158 336l-58 -114v-222h-44zM170 -180l-11 18q32 17 28 52h-21v58h50v-54q0 -29 -10.5 -45t-35.5 -29z" />
    <glyph glyph-name="kcommaaccent" unicode="&#x137;" horiz-adv-x="324" 
d="M53 0v707h42v-473l151 291h47l-117 -211l128 -314h-46l-107 270l-56 -101v-169h-42zM148 -180l-11 18q32 17 28 52h-21v58h50v-54q0 -29 -10.5 -45t-35.5 -29z" />
    <glyph glyph-name="Lacute" unicode="&#x139;" horiz-adv-x="284" 
d="M56 0v700h44v-660h176v-40h-220zM70 740l62 104l48 -22l-78 -82h-32z" />
    <glyph glyph-name="lacute" unicode="&#x13a;" horiz-adv-x="160" 
d="M59 0v707h42v-707h-42zM65 740l62 104l48 -22l-78 -82h-32z" />
    <glyph glyph-name="Lcommaaccent" unicode="&#x13b;" horiz-adv-x="284" 
d="M56 0v700h44v-660h176v-40h-220zM142 -185l-11 18q32 17 28 52h-21v58h50v-54q0 -29 -10.5 -45t-35.5 -29z" />
    <glyph glyph-name="lcommaaccent" unicode="&#x13c;" horiz-adv-x="160" 
d="M59 0v707h42v-707h-42zM59 -185l-11 18q32 17 28 52h-21v58h50v-54q0 -29 -10.5 -45t-35.5 -29z" />
    <glyph glyph-name="Lcaron" unicode="&#x13d;" horiz-adv-x="284" 
d="M56 0v700h44v-660h176v-40h-220zM139 553l7 148h38v-2l-25 -146h-20z" />
    <glyph glyph-name="lcaron" unicode="&#x13e;" horiz-adv-x="160" 
d="M59 0v707h42v-707h-42zM134 559l7 148h38v-2l-25 -146h-20z" />
    <glyph glyph-name="Ldot" unicode="&#x13f;" horiz-adv-x="284" 
d="M190 327v67h50v-67h-50zM56 0v700h44v-660h176v-40h-220z" />
    <glyph glyph-name="ldot" unicode="&#x140;" horiz-adv-x="208" 
d="M161 320v75h46v-75h-46zM59 0v707h42v-707h-42z" />
    <glyph glyph-name="Lslash" unicode="&#x141;" horiz-adv-x="290" 
d="M194 383l-88 -60v-283h176v-40h-220v293l-55 -38v49l55 36v360h44v-330l88 62v-49z" />
    <glyph glyph-name="lslash" unicode="&#x142;" horiz-adv-x="170" 
d="M165 391l-59 -39v-352h-42v323l-59 -40v49l59 39v336h42v-308l59 41v-49z" />
    <glyph glyph-name="Nacute" unicode="&#x143;" horiz-adv-x="420" 
d="M56 0v700h48l218 -588v588h42v-700h-43l-223 602v-602h-42zM192 736l62 104l48 -22l-78 -82h-32z" />
    <glyph glyph-name="nacute" unicode="&#x144;" horiz-adv-x="372" 
d="M53 0v525h42v-77q37 85 108 85q55 0 87.5 -43.5t32.5 -122.5v-367h-42v363q0 134 -86 134q-43 0 -71.5 -39.5t-28.5 -102.5v-355h-42zM170 576l64 125l47 -25l-82 -100h-29z" />
    <glyph glyph-name="Ncommaaccent" unicode="&#x145;" horiz-adv-x="420" 
d="M56 0v700h48l218 -588v588h42v-700h-43l-223 602v-602h-42zM189 -180l-11 18q32 17 28 52h-21v58h50v-54q0 -29 -10.5 -45t-35.5 -29z" />
    <glyph glyph-name="ncommaaccent" unicode="&#x146;" horiz-adv-x="372" 
d="M53 0v525h42v-77q37 85 108 85q55 0 87.5 -43.5t32.5 -122.5v-367h-42v363q0 134 -86 134q-43 0 -71.5 -39.5t-28.5 -102.5v-355h-42zM166 -180l-11 18q32 17 28 52h-21v58h50v-54q0 -29 -10.5 -45t-35.5 -29z" />
    <glyph glyph-name="Ncaron" unicode="&#x147;" horiz-adv-x="420" 
d="M56 0v700h48l218 -588v588h42v-700h-43l-223 602v-602h-42zM303 838l-72 -97h-40l-72 97h42l51 -58l51 58h40z" />
    <glyph glyph-name="ncaron" unicode="&#x148;" horiz-adv-x="372" 
d="M53 0v525h42v-77q37 85 108 85q55 0 87.5 -43.5t32.5 -122.5v-367h-42v363q0 134 -86 134q-43 0 -71.5 -39.5t-28.5 -102.5v-355h-42zM272 703l-67 -122h-34l-67 122h37l48 -75l48 75h35z" />
    <glyph glyph-name="Omacron" unicode="&#x14c;" horiz-adv-x="406" 
d="M203 -8q-74 0 -120 91t-46 259v16q0 168 46 259t120 91t120 -91t46 -259v-16q0 -168 -46 -259t-120 -91zM203 32q54 0 88 80.5t34 229.5v16q0 149 -34 229.5t-88 80.5t-88 -80.5t-34 -229.5v-16q0 -149 34 -229.5t88 -80.5zM108 757v41h192v-41h-192z" />
    <glyph glyph-name="omacron" unicode="&#x14d;" horiz-adv-x="362" 
d="M181 -8q-62 0 -105.5 73.5t-43.5 192.5v9q0 119 44 192.5t106 73.5q61 0 104.5 -73.5t43.5 -192.5v-9q0 -119 -43.5 -192.5t-105.5 -73.5zM181 31q45 0 76 62.5t31 164.5v9q0 102 -31 164.5t-76 62.5t-76 -62.5t-31 -164.5v-9q0 -102 31 -164.5t76 -62.5zM92 588v39h180
v-39h-180z" />
    <glyph glyph-name="Obreve" unicode="&#x14e;" horiz-adv-x="406" 
d="M203 -8q-74 0 -120 91t-46 259v16q0 168 46 259t120 91t120 -91t46 -259v-16q0 -168 -46 -259t-120 -91zM203 32q54 0 88 80.5t34 229.5v16q0 149 -34 229.5t-88 80.5t-88 -80.5t-34 -229.5v-16q0 -149 34 -229.5t88 -80.5zM204 748q-39 0 -64 20t-30 59h37
q12 -39 57 -39t57 39h37q-5 -39 -30 -59t-64 -20z" />
    <glyph glyph-name="obreve" unicode="&#x14f;" horiz-adv-x="362" 
d="M181 -8q-62 0 -105.5 73.5t-43.5 192.5v9q0 119 44 192.5t106 73.5q61 0 104.5 -73.5t43.5 -192.5v-9q0 -119 -43.5 -192.5t-105.5 -73.5zM181 31q45 0 76 62.5t31 164.5v9q0 102 -31 164.5t-76 62.5t-76 -62.5t-31 -164.5v-9q0 -102 31 -164.5t76 -62.5zM182 579
q-83 0 -93 94h36q10 -55 57 -55t57 55h36q-10 -94 -93 -94z" />
    <glyph glyph-name="Ohungarumlaut" unicode="&#x150;" horiz-adv-x="406" 
d="M203 -8q-74 0 -120 91t-46 259v16q0 168 46 259t120 91t120 -91t46 -259v-16q0 -168 -46 -259t-120 -91zM203 32q54 0 88 80.5t34 229.5v16q0 149 -34 229.5t-88 80.5t-88 -80.5t-34 -229.5v-16q0 -149 34 -229.5t88 -80.5zM137 745l62 104l45 -21l-76 -83h-31zM227 745
l62 104l45 -21l-76 -83h-31z" />
    <glyph glyph-name="ohungarumlaut" unicode="&#x151;" horiz-adv-x="362" 
d="M181 -8q-62 0 -105.5 73.5t-43.5 192.5v9q0 119 44 192.5t106 73.5q61 0 104.5 -73.5t43.5 -192.5v-9q0 -119 -43.5 -192.5t-105.5 -73.5zM181 31q45 0 76 62.5t31 164.5v9q0 102 -31 164.5t-76 62.5t-76 -62.5t-31 -164.5v-9q0 -102 31 -164.5t76 -62.5zM207 576l64 125
l43 -23l-78 -102h-29zM113 576l64 125l43 -23l-78 -102h-29z" />
    <glyph glyph-name="OE" unicode="&#x152;" horiz-adv-x="559" 
d="M531 0h-270q-101 0 -162.5 88.5t-61.5 252.5v18q0 164 61.5 252.5t162.5 88.5h267v-40h-194v-287h177v-40h-177v-293h197v-40zM262 40h28v620h-30q-81 0 -130 -78t-49 -223v-18q0 -144 50 -222.5t131 -78.5z" />
    <glyph glyph-name="oe" unicode="&#x153;" horiz-adv-x="600" 
d="M181 -8q-62 0 -105.5 73.5t-43.5 192.5v9q0 119 44 192.5t106 73.5q41 0 73.5 -33.5t50.5 -94.5q17 63 49.5 95.5t72.5 32.5q61 0 99 -68t38 -189v-31h-239q2 -103 38 -157.5t93 -54.5q44 0 91 31l5 -43q-49 -28 -102 -28q-51 0 -89 34.5t-55 96.5q-18 -63 -51 -97.5
t-75 -34.5zM326 282h198q0 91 -27 151.5t-69 60.5q-43 0 -71 -55t-31 -157zM181 31q45 0 76 62.5t31 164.5v9q0 102 -31 164.5t-76 62.5t-76 -62.5t-31 -164.5v-9q0 -102 31 -164.5t76 -62.5z" />
    <glyph glyph-name="Racute" unicode="&#x154;" horiz-adv-x="383" 
d="M56 0v700h87q92 0 146 -54q55 -55 55 -152v-2q0 -72 -32 -123t-89 -73l134 -296h-52l-127 285q-18 -3 -39 -3h-39v-282h-44zM100 321h43q73 0 115 44.5t42 125.5v2q0 83 -42.5 125t-116.5 42h-41v-339zM158 740l62 104l48 -22l-78 -82h-32z" />
    <glyph glyph-name="racute" unicode="&#x155;" horiz-adv-x="234" 
d="M53 0v525h42v-77q37 88 123 83v-45h-2q-53 0 -87 -34t-34 -100v-352h-42zM109 576l64 125l47 -25l-82 -100h-29z" />
    <glyph glyph-name="Rcommaaccent" unicode="&#x156;" horiz-adv-x="383" 
d="M56 0v700h87q92 0 146 -54q55 -55 55 -152v-2q0 -72 -32 -123t-89 -73l134 -296h-52l-127 285q-18 -3 -39 -3h-39v-282h-44zM100 321h43q73 0 115 44.5t42 125.5v2q0 83 -42.5 125t-116.5 42h-41v-339zM162 -180l-11 18q32 17 28 52h-21v58h50v-54q0 -29 -10.5 -45
t-35.5 -29z" />
    <glyph glyph-name="rcommaaccent" unicode="&#x157;" horiz-adv-x="234" 
d="M53 0v525h42v-77q37 88 123 83v-45h-2q-53 0 -87 -34t-34 -100v-352h-42zM55 -185l-11 18q32 17 28 52h-21v58h50v-54q0 -29 -10.5 -45t-35.5 -29z" />
    <glyph glyph-name="Rcaron" unicode="&#x158;" horiz-adv-x="383" 
d="M56 0v700h87q92 0 146 -54q55 -55 55 -152v-2q0 -72 -32 -123t-89 -73l134 -296h-52l-127 285q-18 -3 -39 -3h-39v-282h-44zM100 321h43q73 0 115 44.5t42 125.5v2q0 83 -42.5 125t-116.5 42h-41v-339zM268 842l-72 -97h-40l-72 97h42l51 -58l51 58h40z" />
    <glyph glyph-name="rcaron" unicode="&#x159;" horiz-adv-x="234" 
d="M53 0v525h42v-77q37 88 123 83v-45h-2q-53 0 -87 -34t-34 -100v-352h-42zM211 703l-67 -122h-34l-67 122h37l48 -75l48 75h35z" />
    <glyph glyph-name="Sacute" unicode="&#x15a;" horiz-adv-x="333" 
d="M155 -8q-55 0 -121 37v50q70 -45 122 -45q45 0 71 27t26 74v2q0 43 -19 81t-79 118q-73 97 -94.5 138.5t-21.5 88.5v2q0 62 39.5 102.5t97.5 40.5q52 0 106 -31v-50q-57 39 -107 39q-41 0 -66.5 -27t-25.5 -71v-2q0 -39 19.5 -75.5t79.5 -113.5q66 -83 90.5 -132.5
t24.5 -104.5v-2q0 -65 -40.5 -105.5t-101.5 -40.5zM156 745l62 104l48 -22l-78 -82h-32z" />
    <glyph glyph-name="sacute" unicode="&#x15b;" horiz-adv-x="279" 
d="M130 -6q-50 0 -105 25v44q57 -30 107 -30q34 0 57 21t23 57v2q0 53 -83 133q-59 57 -81 92t-22 76v2q0 52 35.5 83.5t83.5 31.5q47 0 87 -17v-44q-43 22 -89 22q-33 0 -54 -20t-21 -54v-2q0 -28 18 -55.5t65 -73.5q57 -54 80 -92.5t23 -79.5v-2q0 -54 -36.5 -86.5
t-87.5 -32.5zM123 576l64 125l47 -25l-82 -100h-29z" />
    <glyph glyph-name="Scedilla" unicode="&#x15e;" horiz-adv-x="333" 
d="M147 -110l-46 19l48 83q-53 1 -115 37v50q70 -45 122 -45q45 0 71 27t26 74v2q0 43 -19 81t-79 118q-73 97 -94.5 138.5t-21.5 88.5v2q0 62 39.5 102.5t97.5 40.5q52 0 106 -31v-50q-57 39 -107 39q-41 0 -66.5 -27t-25.5 -71v-2q0 -39 19.5 -75.5t79.5 -113.5
q66 -83 90.5 -132.5t24.5 -104.5v-2q0 -58 -30.5 -96t-81.5 -47z" />
    <glyph glyph-name="scedilla" unicode="&#x15f;" horiz-adv-x="279" 
d="M118 -110l-46 19l49 85q-47 1 -96 25v44q57 -30 107 -30q34 0 57 21t23 57v2q0 53 -83 133q-59 57 -81 92t-22 76v2q0 52 35.5 83.5t83.5 31.5q47 0 87 -17v-44q-43 22 -89 22q-33 0 -54 -20t-21 -54v-2q0 -28 18 -55.5t65 -73.5q57 -54 80 -92.5t23 -79.5v-2
q0 -46 -27.5 -76.5t-69.5 -39.5z" />
    <glyph glyph-name="Scaron" unicode="&#x160;" horiz-adv-x="333" 
d="M155 -8q-55 0 -121 37v50q70 -45 122 -45q45 0 71 27t26 74v2q0 43 -19 81t-79 118q-73 97 -94.5 138.5t-21.5 88.5v2q0 62 39.5 102.5t97.5 40.5q52 0 106 -31v-50q-57 39 -107 39q-41 0 -66.5 -27t-25.5 -71v-2q0 -39 19.5 -75.5t79.5 -113.5q66 -83 90.5 -132.5
t24.5 -104.5v-2q0 -65 -40.5 -105.5t-101.5 -40.5zM266 847l-72 -97h-40l-72 97h42l51 -58l51 58h40z" />
    <glyph glyph-name="scaron" unicode="&#x161;" horiz-adv-x="279" 
d="M130 -6q-50 0 -105 25v44q57 -30 107 -30q34 0 57 21t23 57v2q0 53 -83 133q-59 57 -81 92t-22 76v2q0 52 35.5 83.5t83.5 31.5q47 0 87 -17v-44q-43 22 -89 22q-33 0 -54 -20t-21 -54v-2q0 -28 18 -55.5t65 -73.5q57 -54 80 -92.5t23 -79.5v-2q0 -54 -36.5 -86.5
t-87.5 -32.5zM225 703l-67 -122h-34l-67 122h37l48 -75l48 75h35z" />
    <glyph glyph-name="Tcommaaccent" unicode="&#x162;" horiz-adv-x="296" 
d="M126 0v660h-114v40h272v-40h-114v-660h-44zM127 -185l-11 18q32 17 28 52h-21v58h50v-54q0 -29 -10.5 -45t-35.5 -29z" />
    <glyph glyph-name="Tcommaaccent" unicode="&#x21a;" horiz-adv-x="296" 
d="M126 0v660h-114v40h272v-40h-114v-660h-44zM127 -185l-11 18q32 17 28 52h-21v58h50v-54q0 -29 -10.5 -45t-35.5 -29z" />
    <glyph glyph-name="tcommaaccent" unicode="&#x163;" horiz-adv-x="225" 
d="M162 -4q-93 0 -93 92v398h-50v39h50v148h42v-148h85v-39h-85v-392q0 -33 13.5 -45.5t41.5 -12.5q19 0 32 5v-39q-16 -6 -36 -6zM112 -185l-11 18q32 17 28 52h-21v58h50v-54q0 -29 -10.5 -45t-35.5 -29z" />
    <glyph glyph-name="tcommaaccent" unicode="&#x21b;" horiz-adv-x="225" 
d="M162 -4q-93 0 -93 92v398h-50v39h50v148h42v-148h85v-39h-85v-392q0 -33 13.5 -45.5t41.5 -12.5q19 0 32 5v-39q-16 -6 -36 -6zM112 -185l-11 18q32 17 28 52h-21v58h50v-54q0 -29 -10.5 -45t-35.5 -29z" />
    <glyph glyph-name="Tcaron" unicode="&#x164;" horiz-adv-x="296" 
d="M126 0v660h-114v40h272v-40h-114v-660h-44zM241 842l-72 -97h-40l-72 97h42l51 -58l51 58h40z" />
    <glyph glyph-name="tcaron" unicode="&#x165;" horiz-adv-x="225" 
d="M162 -4q-93 0 -93 92v398h-50v39h50v148h42v-148h85v-39h-85v-392q0 -33 13.5 -45.5t41.5 -12.5q19 0 32 5v-39q-16 -6 -36 -6zM154 559l7 148h38v-2l-25 -146h-20z" />
    <glyph glyph-name="Umacron" unicode="&#x16a;" horiz-adv-x="407" 
d="M203 -9q-70 0 -110.5 50.5t-40.5 138.5v520h44v-521q0 -71 28 -109.5t79 -38.5t79.5 38.5t28.5 109.5v521h44v-520q0 -88 -41 -138.5t-111 -50.5zM108 748v41h192v-41h-192z" />
    <glyph glyph-name="umacron" unicode="&#x16b;" horiz-adv-x="372" 
d="M169 -8q-55 0 -87.5 43t-32.5 123v367h42v-363q0 -134 86 -134q43 0 71.5 39.5t28.5 102.5v355h42v-525h-42v77q-37 -85 -108 -85zM95 584v39h180v-39h-180z" />
    <glyph glyph-name="Ubreve" unicode="&#x16c;" horiz-adv-x="407" 
d="M203 -9q-70 0 -110.5 50.5t-40.5 138.5v520h44v-521q0 -71 28 -109.5t79 -38.5t79.5 38.5t28.5 109.5v521h44v-520q0 -88 -41 -138.5t-111 -50.5zM204 739q-39 0 -64 20t-30 59h37q12 -39 57 -39t57 39h37q-5 -39 -30 -59t-64 -20z" />
    <glyph glyph-name="ubreve" unicode="&#x16d;" horiz-adv-x="372" 
d="M169 -8q-55 0 -87.5 43t-32.5 123v367h42v-363q0 -134 86 -134q43 0 71.5 39.5t28.5 102.5v355h42v-525h-42v77q-37 -85 -108 -85zM185 575q-83 0 -93 94h36q10 -55 57 -55t57 55h36q-10 -94 -93 -94z" />
    <glyph glyph-name="Uring" unicode="&#x16e;" horiz-adv-x="407" 
d="M203 -9q-70 0 -110.5 50.5t-40.5 138.5v520h44v-521q0 -71 28 -109.5t79 -38.5t79.5 38.5t28.5 109.5v521h44v-520q0 -88 -41 -138.5t-111 -50.5zM203 727q-33 0 -55.5 21t-22.5 53t23.5 53t56.5 21t55.5 -21t22.5 -53t-23.5 -53t-56.5 -21zM204 754q21 0 34.5 13.5
t13.5 33.5t-13.5 33.5t-34.5 13.5t-34.5 -13.5t-13.5 -33.5t13.5 -33.5t34.5 -13.5z" />
    <glyph glyph-name="uring" unicode="&#x16f;" horiz-adv-x="372" 
d="M169 -8q-55 0 -87.5 43t-32.5 123v367h42v-363q0 -134 86 -134q43 0 71.5 39.5t28.5 102.5v355h42v-525h-42v77q-37 -85 -108 -85zM184 563q-33 0 -55.5 23t-22.5 56t23 56t57 23q33 0 55.5 -23t22.5 -56t-23 -56t-57 -23zM185 589q22 0 36 15t14 38t-14 38t-36 15
t-36 -15t-14 -38t14 -38t36 -15z" />
    <glyph glyph-name="Uhungarumlaut" unicode="&#x170;" horiz-adv-x="407" 
d="M203 -9q-70 0 -110.5 50.5t-40.5 138.5v520h44v-521q0 -71 28 -109.5t79 -38.5t79.5 38.5t28.5 109.5v521h44v-520q0 -88 -41 -138.5t-111 -50.5zM137 736l62 104l45 -21l-76 -83h-31zM227 736l62 104l45 -21l-76 -83h-31z" />
    <glyph glyph-name="uhungarumlaut" unicode="&#x171;" horiz-adv-x="372" 
d="M169 -8q-55 0 -87.5 43t-32.5 123v367h42v-363q0 -134 86 -134q43 0 71.5 39.5t28.5 102.5v355h42v-525h-42v77q-37 -85 -108 -85zM210 572l64 125l43 -23l-78 -102h-29zM116 572l64 125l43 -23l-78 -102h-29z" />
    <glyph glyph-name="Uogonek" unicode="&#x172;" horiz-adv-x="407" 
d="M240 -87v-32q-11 -1 -20 -1q-62 0 -62 47q0 28 31 65q-64 5 -100.5 54.5t-36.5 133.5v520h44v-521q0 -71 28 -109.5t79 -38.5t79.5 38.5t28.5 109.5v521h44v-520q0 -82 -36 -132t-99 -56q-22 -32 -22 -53q0 -26 42 -26z" />
    <glyph glyph-name="uogonek" unicode="&#x173;" horiz-adv-x="372" 
d="M327 -87v-32q-11 -1 -20 -1q-62 0 -62 47q0 31 39 73h-7v77q-37 -85 -108 -85q-55 0 -87.5 43t-32.5 123v367h42v-363q0 -134 86 -134q43 0 71.5 39.5t28.5 102.5v355h42v-525h-6q-28 -39 -28 -61q0 -26 42 -26z" />
    <glyph glyph-name="Wcircumflex" unicode="&#x174;" horiz-adv-x="611" 
d="M151 -5l-121 705h47l95 -611l114 611h41l113 -611l96 611h45l-121 -705h-41l-113 611l-114 -611h-41zM213 745l72 97h40l72 -97h-42l-51 58l-51 -58h-40z" />
    <glyph glyph-name="wcircumflex" unicode="&#x175;" horiz-adv-x="533" 
d="M141 -3l-109 528h44l84 -455l89 455h38l87 -455l86 455h41l-109 -528h-38l-88 442l-87 -442h-38zM182 577l67 122h34l67 -122h-37l-48 75l-48 -75h-35z" />
    <glyph glyph-name="Ycircumflex" unicode="&#x176;" horiz-adv-x="352" 
d="M154 0v302l-146 398h48l121 -343l122 343h45l-146 -398v-302h-44zM85 741l72 97h40l72 -97h-42l-51 58l-51 -58h-40z" />
    <glyph glyph-name="ycircumflex" unicode="&#x177;" horiz-adv-x="346" 
d="M173 77l104 448h42l-159 -655h-40v1l33 134l-127 520h43zM89 577l67 122h34l67 -122h-37l-48 75l-48 -75h-35z" />
    <glyph glyph-name="Ydieresis" unicode="&#x178;" horiz-adv-x="352" 
d="M154 0v302l-146 398h48l121 -343l122 343h45l-146 -398v-302h-44zM204 746v63h50v-63h-50zM100 746v63h50v-63h-50z" />
    <glyph glyph-name="Zacute" unicode="&#x179;" horiz-adv-x="336" 
d="M30 0v26l232 636h-221v38h267v-26l-232 -636h232v-38h-278zM155 740l62 104l48 -22l-78 -82h-32z" />
    <glyph glyph-name="zacute" unicode="&#x17a;" horiz-adv-x="290" 
d="M26 0v25l191 463h-181v37h227v-25l-191 -463h186v-37h-232zM131 576l64 125l47 -25l-82 -100h-29z" />
    <glyph glyph-name="Zdotaccent" unicode="&#x17b;" horiz-adv-x="336" 
d="M30 0v26l232 636h-221v38h267v-26l-232 -636h232v-38h-278zM147 750v63h52v-63h-52z" />
    <glyph glyph-name="zdotaccent" unicode="&#x17c;" horiz-adv-x="290" 
d="M26 0v25l191 463h-181v37h227v-25l-191 -463h186v-37h-232zM124 586v67h50v-67h-50z" />
    <glyph glyph-name="Zcaron" unicode="&#x17d;" horiz-adv-x="336" 
d="M30 0v26l232 636h-221v38h267v-26l-232 -636h232v-38h-278zM265 842l-72 -97h-40l-72 97h42l51 -58l51 58h40z" />
    <glyph glyph-name="zcaron" unicode="&#x17e;" horiz-adv-x="290" 
d="M26 0v25l191 463h-181v37h227v-25l-191 -463h186v-37h-232zM233 703l-67 -122h-34l-67 122h37l48 -75l48 75h35z" />
    <glyph glyph-name="uni018F" unicode="&#x18f;" horiz-adv-x="388" 
d="M63 629l-5 44q47 35 106 35q87 0 137 -88t50 -256v-12q0 -178 -42 -269t-114 -91q-70 0 -111.5 88.5t-41.5 255.5v40h265q0 143 -39.5 216.5t-106.5 73.5q-49 0 -98 -37zM196 32q50 0 80.5 79t30.5 225h-221q0 -150 29 -227t81 -77z" />
    <glyph glyph-name="florin" unicode="&#x192;" horiz-adv-x="323" 
d="M49 -5q-14 0 -40 7v41q21 -7 40 -7q48 0 55 75l28 278h-57v36h60l17 167q11 113 102 113q31 0 55 -11v-44q-26 12 -55 12q-52 0 -60 -78l-16 -159h99v-36h-102l-28 -281q-6 -59 -29.5 -86t-68.5 -27z" />
    <glyph glyph-name="Aringacute" unicode="&#x1fa;" horiz-adv-x="410" 
d="M28 0l145 666q-48 18 -48 69q0 32 23.5 53t56.5 21t55.5 -21t22.5 -53q0 -48 -47 -68l146 -667h-46l-41 196h-182l-41 -196h-44zM121 236h166l-83 398zM204 688q21 0 34.5 13.5t13.5 33.5t-13.5 33.5t-34.5 13.5t-34.5 -13.5t-13.5 -33.5t13.5 -33.5t34.5 -13.5zM187 830
l63 84l45 -20l-74 -64h-34z" />
    <glyph glyph-name="aringacute" unicode="&#x1fb;" horiz-adv-x="345" 
d="M152 766l67 100l43 -23l-79 -77h-31zM148 -9q-53 0 -86.5 46t-33.5 116v8q0 75 36.5 121.5t101.5 46.5q44 0 88 -20v66q0 116 -100 116q-53 0 -97 -24v41q44 23 99 23q64 0 102 -38t38 -113v-380h-42v76q-34 -85 -106 -85zM154 28q44 0 72 41t28 95v105q-45 21 -86 21
q-47 0 -72.5 -35t-25.5 -92v-8q0 -56 22 -91.5t62 -35.5zM170 577q-33 0 -55.5 23t-22.5 56t23 56t57 23q33 0 55.5 -23t22.5 -56t-23 -56t-57 -23zM171 603q22 0 36 15t14 38t-14 38t-36 15t-36 -15t-14 -38t14 -38t36 -15z" />
    <glyph glyph-name="AEacute" unicode="&#x1fc;" horiz-adv-x="514" 
d="M8 0l197 700h278v-40h-194v-287h177v-40h-177v-293h197v-40h-241v196h-139l-55 -196h-43zM117 236h128v424h-10zM268 740l62 104l48 -22l-78 -82h-32z" />
    <glyph glyph-name="aeacute" unicode="&#x1fd;" horiz-adv-x="564" 
d="M148 -9q-53 0 -86.5 46t-33.5 116v8q0 75 36.5 121.5t101.5 46.5q44 0 88 -20v66q0 116 -100 116q-53 0 -97 -24v41q44 23 99 23q101 0 127 -89q38 91 109 91q61 0 99 -68t38 -189v-31h-239q2 -103 38 -157.5t93 -54.5q44 0 91 31l5 -43q-49 -28 -102 -28q-46 0 -83.5 30
t-58.5 89q-16 -53 -47 -87t-78 -34zM290 282h198q0 91 -27 151.5t-69 60.5q-43 0 -71 -55t-31 -157zM154 28q40 0 67 38.5t39 93.5q-10 58 -8 111q-49 19 -84 19q-47 0 -72.5 -35t-25.5 -92v-8q0 -56 22 -91.5t62 -35.5zM260 576l64 125l47 -25l-82 -100h-29z" />
    <glyph glyph-name="Oslashacute" unicode="&#x1fe;" horiz-adv-x="406" 
d="M327 708h43l-42 -102q41 -90 41 -248v-16q0 -168 -46 -259t-120 -91q-59 0 -100 57l-24 -57h-43l42 102q-41 90 -41 248v16q0 168 46 259t120 91q60 0 100 -58zM80 358v-16q0 -117 21 -192l185 451q-32 68 -83 68q-54 0 -88.5 -81.5t-34.5 -229.5zM203 31q54 0 88.5 81.5
t34.5 229.5v16q0 112 -21 191l-185 -451q31 -67 83 -67zM186 745l62 104l48 -22l-78 -82h-32z" />
    <glyph glyph-name="oslashacute" unicode="&#x1ff;" horiz-adv-x="362" 
d="M286 529h40l-36 -75q40 -78 40 -187v-9q0 -119 -43.5 -192.5t-105.5 -73.5q-47 0 -86 45l-19 -41h-40l36 76q-40 72 -40 186v9q0 119 44 192.5t106 73.5q46 0 85 -45zM73 267v-9q0 -85 20 -142l158 331q-30 48 -70 48q-45 0 -76.5 -63t-31.5 -165zM181 30q45 0 76.5 63
t31.5 165v9q0 81 -20 141l-158 -330q28 -48 70 -48zM164 576l64 125l47 -25l-82 -100h-29z" />
    <glyph glyph-name="Scommaaccent" unicode="&#x218;" horiz-adv-x="333" 
d="M155 -8q-55 0 -121 37v50q70 -45 122 -45q45 0 71 27t26 74v2q0 43 -19 81t-79 118q-73 97 -94.5 138.5t-21.5 88.5v2q0 62 39.5 102.5t97.5 40.5q52 0 106 -31v-50q-57 39 -107 39q-41 0 -66.5 -27t-25.5 -71v-2q0 -39 19.5 -75.5t79.5 -113.5q66 -83 90.5 -132.5
t24.5 -104.5v-2q0 -65 -40.5 -105.5t-101.5 -40.5zM136 -185l-11 18q32 17 28 52h-21v58h50v-54q0 -29 -10.5 -45t-35.5 -29z" />
    <glyph glyph-name="scommaaccent" unicode="&#x219;" horiz-adv-x="279" 
d="M130 -6q-50 0 -105 25v44q57 -30 107 -30q34 0 57 21t23 57v2q0 53 -83 133q-59 57 -81 92t-22 76v2q0 52 35.5 83.5t83.5 31.5q47 0 87 -17v-44q-43 22 -89 22q-33 0 -54 -20t-21 -54v-2q0 -28 18 -55.5t65 -73.5q57 -54 80 -92.5t23 -79.5v-2q0 -54 -36.5 -86.5
t-87.5 -32.5zM113 -185l-11 18q32 17 28 52h-21v58h50v-54q0 -29 -10.5 -45t-35.5 -29z" />
    <glyph glyph-name="schwa" unicode="&#x259;" horiz-adv-x="348" 
d="M149 532q70 0 118.5 -68t48.5 -192v-9q0 -130 -41.5 -200.5t-102.5 -70.5t-99 68t-38 189v31h239q-2 103 -38 157.5t-93 54.5q-44 0 -91 -31l-5 43q49 28 102 28zM274 243h-198q0 -91 27 -151.5t69 -60.5q43 0 71 55t31 157z" />
    <glyph glyph-name="circumflex" unicode="&#x2c6;" horiz-adv-x="500" 
d="M166 581l67 122h34l67 -122h-37l-48 75l-48 -75h-35z" />
    <glyph glyph-name="caron" unicode="&#x2c7;" horiz-adv-x="500" 
d="M334 703l-67 -122h-34l-67 122h37l48 -75l48 75h35z" />
    <glyph glyph-name="breve" unicode="&#x2d8;" horiz-adv-x="500" 
d="M250 579q-83 0 -93 94h36q10 -55 57 -55t57 55h36q-10 -94 -93 -94z" />
    <glyph glyph-name="dotaccent" unicode="&#x2d9;" horiz-adv-x="500" 
d="M225 586v67h50v-67h-50z" />
    <glyph glyph-name="ring" unicode="&#x2da;" horiz-adv-x="500" 
d="M249 577q-33 0 -55.5 23t-22.5 56t23 56t57 23q33 0 55.5 -23t22.5 -56t-23 -56t-57 -23zM250 603q22 0 36 15t14 38t-14 38t-36 15t-36 -15t-14 -38t14 -38t36 -15z" />
    <glyph glyph-name="ogonek" unicode="&#x2db;" horiz-adv-x="500" 
d="M289 -87v-32q-11 -1 -20 -1q-62 0 -62 47q0 31 43 77h28q-31 -42 -31 -65q0 -26 42 -26z" />
    <glyph glyph-name="tilde" unicode="&#x2dc;" horiz-adv-x="500" 
d="M294 578q-21 0 -50 26q-23 23 -34 23q-16 0 -28 -45l-30 8q18 75 54 75q21 0 50 -26q23 -23 34 -23q16 0 28 45l30 -8q-18 -75 -54 -75z" />
    <glyph glyph-name="hungarumlaut" unicode="&#x2dd;" horiz-adv-x="500" 
d="M239 576l64 125l43 -23l-78 -102h-29zM145 576l64 125l43 -23l-78 -102h-29z" />
    <glyph glyph-name="commaaccent" unicode="&#x326;" horiz-adv-x="500" 
d="M232 -185l-11 18q32 17 28 52h-21v58h50v-54q0 -29 -10.5 -45t-35.5 -29z" />
    <glyph glyph-name="uni0384" unicode="&#x384;" horiz-adv-x="500" 
d="M200 576l46 127l46 -23l-64 -104h-28z" />
    <glyph glyph-name="uni0385" unicode="&#x385;" horiz-adv-x="500" 
d="M295 586v67h44v-67h-44zM169 586v67h44v-67h-44zM229 586l21 129l44 -11l-37 -118h-28z" />
    <glyph glyph-name="uni0386" unicode="&#x386;" horiz-adv-x="410" 
d="M28 0l153 703h48l153 -703h-46l-41 196h-182l-41 -196h-44zM121 236h166l-83 398zM41 549l7 151h44l-24 -151h-27z" />
    <glyph glyph-name="uni0387" unicode="&#x387;" horiz-adv-x="160" 
d="M49 443v82h62v-82h-62z" />
    <glyph glyph-name="uni0388" unicode="&#x388;" horiz-adv-x="325" 
d="M56 0v700h238v-40h-194v-287h177v-40h-177v-293h197v-40h-241zM-44 549l7 151h44l-24 -151h-27z" />
    <glyph glyph-name="uni0389" unicode="&#x389;" horiz-adv-x="416" 
d="M56 0v700h44v-328h216v328h44v-700h-44v332h-216v-332h-44zM-44 549l7 151h44l-24 -151h-27z" />
    <glyph glyph-name="uni038A" unicode="&#x38a;" horiz-adv-x="170" 
d="M63 0v700h44v-700h-44zM-37 549l7 151h44l-24 -151h-27z" />
    <glyph glyph-name="uni038C" unicode="&#x38c;" horiz-adv-x="406" 
d="M203 -8q-74 0 -120 91t-46 259v16q0 168 46 259t120 91t120 -91t46 -259v-16q0 -168 -46 -259t-120 -91zM203 32q54 0 88 80.5t34 229.5v16q0 149 -34 229.5t-88 80.5t-88 -80.5t-34 -229.5v-16q0 -149 34 -229.5t88 -80.5zM-28 549l7 151h44l-24 -151h-27z" />
    <glyph glyph-name="uni038E" unicode="&#x38e;" horiz-adv-x="352" 
d="M154 0v302l-146 398h48l121 -343l122 343h45l-146 -398v-302h-44zM-82 549l7 151h44l-24 -151h-27z" />
    <glyph glyph-name="uni038F" unicode="&#x38f;" horiz-adv-x="420" 
d="M210 708q78 0 123 -70.5t45 -208.5v-4q0 -194 -103 -385l108 1v-41h-148v37q99 190 99 388v4q0 239 -124 239t-124 -239v-4q0 -198 99 -388v-37h-148v41l107 -1q-102 189 -102 385v4q0 138 45 208.5t123 70.5zM-28 549l7 151h44l-24 -151h-27z" />
    <glyph glyph-name="uni0390" unicode="&#x390;" horiz-adv-x="169" 
d="M51 94v431h42v-424q0 -38 10 -52t33 -14q10 0 25 4v-37q-17 -6 -33 -6q-77 0 -77 98zM115 586v67h44v-67h-44zM-11 586v67h44v-67h-44zM49 586l21 129l44 -11l-37 -118h-28z" />
    <glyph glyph-name="uni0391" unicode="&#x391;" horiz-adv-x="410" 
d="M28 0l153 703h48l153 -703h-46l-41 196h-182l-41 -196h-44zM121 236h166l-83 398z" />
    <glyph glyph-name="uni0392" unicode="&#x392;" horiz-adv-x="373" 
d="M56 0v700h90q87 0 140 -53q47 -47 47 -122v-2q0 -135 -128 -169q65 -15 101 -58t36 -113v-2q0 -85 -58 -133t-157 -48h-71zM289 521v2q0 63 -39.5 100t-105.5 37h-44v-287h31q77 0 117.5 39t40.5 109zM298 182v2q0 72 -42.5 110.5t-120.5 38.5h-35v-293h28q80 0 125 36.5
t45 105.5z" />
    <glyph glyph-name="uni0393" unicode="&#x393;" horiz-adv-x="284" 
d="M56 0v700h220v-40h-176v-660h-44z" />
    <glyph glyph-name="uni0394" unicode="&#x394;" horiz-adv-x="408" 
d="M33 0l-5 29l151 674h50l151 -674l-5 -29h-342zM74 41h258l-129 599z" />
    <glyph glyph-name="uni0395" unicode="&#x395;" horiz-adv-x="325" 
d="M56 0v700h238v-40h-194v-287h177v-40h-177v-293h197v-40h-241z" />
    <glyph glyph-name="uni0396" unicode="&#x396;" horiz-adv-x="336" 
d="M30 0v26l232 636h-221v38h267v-26l-232 -636h232v-38h-278z" />
    <glyph glyph-name="uni0397" unicode="&#x397;" horiz-adv-x="416" 
d="M56 0v700h44v-328h216v328h44v-700h-44v332h-216v-332h-44z" />
    <glyph glyph-name="uni0398" unicode="&#x398;" horiz-adv-x="406" 
d="M203 -8q-74 0 -120 91t-46 259v16q0 168 46 259t120 91t120 -91t46 -259v-16q0 -168 -46 -259t-120 -91zM203 32q54 0 88 80.5t34 229.5v16q0 149 -34 229.5t-88 80.5t-88 -80.5t-34 -229.5v-16q0 -149 34 -229.5t88 -80.5zM276 372v-40h-146v40h146z" />
    <glyph glyph-name="uni0399" unicode="&#x399;" horiz-adv-x="170" 
d="M63 0v700h44v-700h-44z" />
    <glyph glyph-name="uni039A" unicode="&#x39a;" horiz-adv-x="370" 
d="M56 0v700h44v-397l194 397h50l-161 -316l181 -384h-48l-158 336l-58 -114v-222h-44z" />
    <glyph glyph-name="uni039B" unicode="&#x39b;" horiz-adv-x="400" 
d="M223 703l149 -703h-46l-127 624l-127 -624h-44l149 703h46z" />
    <glyph glyph-name="uni039C" unicode="&#x39c;" horiz-adv-x="478" 
d="M56 0v700h54l129 -391l130 391h53v-700h-42v603l-139 -407h-4l-139 407v-603h-42z" />
    <glyph glyph-name="uni039D" unicode="&#x39d;" horiz-adv-x="420" 
d="M56 0v700h48l218 -588v588h42v-700h-43l-223 602v-602h-42z" />
    <glyph glyph-name="uni039E" unicode="&#x39e;" horiz-adv-x="315" 
d="M285 660h-255v40h255v-40zM271 333h-227v40h227v-40zM287 0h-259v40h259v-40z" />
    <glyph glyph-name="uni039F" unicode="&#x39f;" horiz-adv-x="406" 
d="M203 -8q-74 0 -120 91t-46 259v16q0 168 46 259t120 91t120 -91t46 -259v-16q0 -168 -46 -259t-120 -91zM203 32q54 0 88 80.5t34 229.5v16q0 149 -34 229.5t-88 80.5t-88 -80.5t-34 -229.5v-16q0 -149 34 -229.5t88 -80.5z" />
    <glyph glyph-name="uni03A0" unicode="&#x3a0;" horiz-adv-x="416" 
d="M56 0v700h304v-700h-44v660h-216v-660h-44z" />
    <glyph glyph-name="uni03A1" unicode="&#x3a1;" horiz-adv-x="364" 
d="M56 0v700h87q93 0 147 -59.5t54 -158.5v-2q0 -102 -54 -162t-151 -60h-39v-258h-44zM100 297h43q75 0 116 47.5t41 134.5v2q0 85 -42.5 132t-116.5 47h-41v-363z" />
    <glyph glyph-name="uni03A3" unicode="&#x3a3;" horiz-adv-x="333" 
d="M218 350l-139 -312h226v-38h-275v26l144 324l-144 325v25h272v-38h-223z" />
    <glyph glyph-name="uni03A4" unicode="&#x3a4;" horiz-adv-x="296" 
d="M126 0v660h-114v40h272v-40h-114v-660h-44z" />
    <glyph glyph-name="uni03A5" unicode="&#x3a5;" horiz-adv-x="352" 
d="M154 0v302l-146 398h48l121 -343l122 343h45l-146 -398v-302h-44z" />
    <glyph glyph-name="uni03A6" unicode="&#x3a6;" horiz-adv-x="552" 
d="M254 -8v83q-103 6 -164.5 79t-61.5 196v5q0 123 61.5 196t164.5 79v85h44v-85q103 -6 164.5 -79t61.5 -195v-4q0 -124 -61.5 -197.5t-164.5 -79.5v-83h-44zM72 355v-5q0 -106 49.5 -168t133.5 -67v475q-84 -5 -133.5 -67t-49.5 -168zM480 352v4q0 105 -50 167.5
t-133 66.5v-475q84 5 133.5 67.5t49.5 169.5z" />
    <glyph glyph-name="uni03A7" unicode="&#x3a7;" horiz-adv-x="357" 
d="M277 700h44l-117 -327l133 -373h-45l-115 325l-113 -325h-44l132 369l-119 331h45l99 -283z" />
    <glyph glyph-name="uni03A8" unicode="&#x3a8;" horiz-adv-x="548" 
d="M500 700v-318q0 -107 -51.5 -152.5t-152.5 -47.5v-182h-44v182q-102 2 -153 47.5t-51 152.5v318h44v-317q0 -91 39.5 -125t120.5 -36v478h44v-478q81 2 120.5 35.5t39.5 123.5v319h44z" />
    <glyph glyph-name="uni03A9" unicode="&#x3a9;" horiz-adv-x="420" 
d="M210 708q78 0 123 -70.5t45 -208.5v-4q0 -194 -103 -385l108 1v-41h-148v37q99 190 99 388v4q0 239 -124 239t-124 -239v-4q0 -198 99 -388v-37h-148v41l107 -1q-102 189 -102 385v4q0 138 45 208.5t123 70.5z" />
    <glyph glyph-name="uni03AA" unicode="&#x3aa;" horiz-adv-x="170" 
d="M63 0v700h44v-700h-44zM113 750v63h50v-63h-50zM9 750v63h50v-63h-50z" />
    <glyph glyph-name="uni03AB" unicode="&#x3ab;" horiz-adv-x="352" 
d="M154 0v302l-146 398h48l121 -343l122 343h45l-146 -398v-302h-44zM204 746v63h50v-63h-50zM100 746v63h50v-63h-50z" />
    <glyph glyph-name="uni03AC" unicode="&#x3ac;" horiz-adv-x="399" 
d="M391 39v-37q-17 -6 -33 -6q-77 0 -77 98v6q-38 -108 -110 -108q-57 0 -97 70t-40 191v19q0 120 40 190.5t97 70.5q72 0 110 -109v101h42v-424q0 -38 10 -52t33 -14q10 0 25 4zM176 29q42 0 74.5 60.5t32.5 160.5v25q0 100 -32.5 160.5t-74.5 60.5q-43 0 -71.5 -60
t-28.5 -165v-17q0 -105 28.5 -165t71.5 -60zM181 576l46 127l46 -23l-64 -104h-28z" />
    <glyph glyph-name="uni03AD" unicode="&#x3ad;" horiz-adv-x="287" 
d="M222 246h-39q-51 0 -80 -30t-29 -81v-3q0 -47 25.5 -74t74.5 -27q44 0 90 21v-43q-45 -17 -92 -17q-66 0 -103 37t-37 101v4q0 49 24 84t68 49q-35 12 -61 42t-26 79v3q0 63 39 102.5t99 39.5q43 0 83 -20v-44q-45 25 -83 25q-44 0 -70 -29t-26 -75v-2q0 -49 29.5 -76
t75.5 -27h38v-39zM142 576l46 127l46 -23l-64 -104h-28z" />
    <glyph glyph-name="uni03AE" unicode="&#x3ae;" horiz-adv-x="372" 
d="M95 0h-42v525h42v-77q37 85 108 85q55 0 87.5 -43.5t32.5 -122.5v-497h-42v493q0 134 -86 134q-43 0 -71.5 -39.5t-28.5 -102.5v-355zM175 576l46 127l46 -23l-64 -104h-28z" />
    <glyph glyph-name="uni03AF" unicode="&#x3af;" horiz-adv-x="169" 
d="M51 94v431h42v-424q0 -38 10 -52t33 -14q10 0 25 4v-37q-17 -6 -33 -6q-77 0 -77 98zM61 576l46 127l46 -23l-64 -104h-28z" />
    <glyph glyph-name="uni03B0" unicode="&#x3b0;" horiz-adv-x="368" 
d="M184 -8q-66 0 -100.5 43.5t-34.5 124.5v365h42v-366q0 -128 93 -128t93 128v366h42v-365q0 -81 -34.5 -124.5t-100.5 -43.5zM226 582v67h44v-67h-44zM100 582v67h44v-67h-44zM160 582l21 129l44 -11l-37 -118h-28z" />
    <glyph glyph-name="uni03B1" unicode="&#x3b1;" horiz-adv-x="399" 
d="M391 39v-37q-17 -6 -33 -6q-77 0 -77 98v6q-38 -108 -110 -108q-57 0 -97 70t-40 191v19q0 120 40 190.5t97 70.5q72 0 110 -109v101h42v-424q0 -38 10 -52t33 -14q10 0 25 4zM176 29q42 0 74.5 60.5t32.5 160.5v25q0 100 -32.5 160.5t-74.5 60.5q-43 0 -71.5 -60
t-28.5 -165v-17q0 -105 28.5 -165t71.5 -60z" />
    <glyph glyph-name="uni03B2" unicode="&#x3b2;" horiz-adv-x="373" 
d="M216 -7q-83 0 -122 109v-232h-41v670q0 78 38 123.5t104 45.5q62 0 101 -46t39 -120v-5q0 -71 -33.5 -118.5t-80.5 -65.5q122 -38 122 -176v-4q0 -86 -34.5 -133.5t-92.5 -47.5zM213 31q40 0 64 35.5t24 107.5v3q0 71 -39 114t-110 43h-59v-91q0 -94 34 -153t86 -59z
M93 540v-173h56q69 0 106.5 48.5t37.5 121.5v3q0 60 -27 95t-72 35q-48 0 -74.5 -35t-26.5 -95z" />
    <glyph glyph-name="uni03B3" unicode="&#x3b3;" horiz-adv-x="348" 
d="M195 -130h-42v147l-126 508h43l104 -447l106 447h41l-126 -508v-147z" />
    <glyph glyph-name="uni03B4" unicode="&#x3b4;" horiz-adv-x="365" 
d="M75 669v38h227v-39h-179l90 -123q68 -94 92.5 -166.5t24.5 -152.5v-4q0 -108 -42.5 -169t-106.5 -61q-66 0 -107.5 59.5t-41.5 166.5v5q0 90 34.5 165.5t103.5 150.5zM288 222v4q0 71 -19.5 135t-77.5 147q-62 -72 -89.5 -136.5t-27.5 -148.5v-5q0 -89 29 -138t78 -49
q47 0 77 51t30 140z" />
    <glyph glyph-name="uni03B5" unicode="&#x3b5;" horiz-adv-x="287" 
d="M222 246h-39q-51 0 -80 -30t-29 -81v-3q0 -47 25.5 -74t74.5 -27q44 0 90 21v-43q-45 -17 -92 -17q-66 0 -103 37t-37 101v4q0 49 24 84t68 49q-35 12 -61 42t-26 79v3q0 63 39 102.5t99 39.5q43 0 83 -20v-44q-45 25 -83 25q-44 0 -70 -29t-26 -75v-2q0 -49 29.5 -76
t75.5 -27h38v-39z" />
    <glyph glyph-name="uni03B6" unicode="&#x3b6;" horiz-adv-x="316" 
d="M290 29v-133h-41v103l-90 30q-72 23 -101.5 57.5t-29.5 90.5v2q0 35 15 76.5t57 123.5l142 289h-179v39h228v-25l-156 -318q-38 -78 -51.5 -115.5t-13.5 -66.5v-2q0 -42 23 -67.5t82 -45.5z" />
    <glyph glyph-name="uni03B7" unicode="&#x3b7;" horiz-adv-x="372" 
d="M95 0h-42v525h42v-77q37 85 108 85q55 0 87.5 -43.5t32.5 -122.5v-497h-42v493q0 134 -86 134q-43 0 -71.5 -39.5t-28.5 -102.5v-355z" />
    <glyph glyph-name="uni03B8" unicode="&#x3b8;" horiz-adv-x="380" 
d="M190 -8q-68 0 -107.5 85t-39.5 268v12q0 183 39.5 267.5t107.5 84.5t107.5 -84.5t39.5 -267.5v-12q0 -183 -39.5 -268t-107.5 -85zM190 31q102 0 106 302h-212q0 -155 29 -228.5t77 -73.5zM190 670q-102 0 -106 -298h212q-4 298 -106 298z" />
    <glyph glyph-name="uni03B9" unicode="&#x3b9;" horiz-adv-x="169" 
d="M51 94v431h42v-424q0 -38 10 -52t33 -14q10 0 25 4v-37q-17 -6 -33 -6q-77 0 -77 98z" />
    <glyph glyph-name="uni03BA" unicode="&#x3ba;" horiz-adv-x="333" 
d="M95 525v-308l163 308h47l-122 -219l130 -306h-46l-110 263l-62 -111v-152h-42v525h42z" />
    <glyph glyph-name="uni03BB" unicode="&#x3bb;" horiz-adv-x="348" 
d="M70 0h-41l129 535l-13 61q-10 43 -23.5 58.5t-38.5 15.5q-11 0 -25 -3v38q9 4 32 4q35 0 56.5 -21t33.5 -75l143 -613h-43l-103 463z" />
    <glyph glyph-name="uni03BC" unicode="&#x3bc;" horiz-adv-x="399" 
d="M391 39v-37q-17 -6 -33 -6q-66 0 -75 73q-29 -77 -95 -77q-68 0 -97 82h-1l2 -33q3 -60 3 -70v-101h-42v655h42v-356q0 -64 26.5 -101t66.5 -37q41 0 67 36.5t26 100.5v357h42v-424q0 -38 10 -52t33 -14q10 0 25 4z" />
    <glyph glyph-name="uni03BD" unicode="&#x3bd;" horiz-adv-x="348" 
d="M156 -3l-129 528h43l104 -454l106 454h41l-129 -528h-36z" />
    <glyph glyph-name="uni03BE" unicode="&#x3be;" horiz-adv-x="298" 
d="M270 690v-44q-40 23 -79 23q-53 0 -82.5 -36t-29.5 -96v-2q0 -67 31.5 -105t88.5 -38h34v-38h-34q-59 0 -92.5 -37t-33.5 -107v-3q0 -52 24.5 -89.5t93.5 -61.5l81 -27v-133h-41v103l-54 18q-85 28 -116 74.5t-31 111.5v4q0 129 103 166q-97 42 -97 162v3q0 74 42 122.5
t112 48.5q45 0 80 -19z" />
    <glyph glyph-name="uni03BF" unicode="&#x3bf;" horiz-adv-x="362" 
d="M181 -8q-62 0 -105.5 73.5t-43.5 192.5v9q0 119 44 192.5t106 73.5q61 0 104.5 -73.5t43.5 -192.5v-9q0 -119 -43.5 -192.5t-105.5 -73.5zM181 31q45 0 76 62.5t31 164.5v9q0 102 -31 164.5t-76 62.5t-76 -62.5t-31 -164.5v-9q0 -102 31 -164.5t76 -62.5z" />
    <glyph glyph-name="uni03C0" unicode="&#x3c0;" horiz-adv-x="413" 
d="M287 94v392h-167v-486h-42v486h-69v39h389v-39h-69v-385q0 -38 10 -52t33 -14q10 0 25 4v-37q-17 -6 -33 -6q-77 0 -77 98z" />
    <glyph glyph-name="uni03C1" unicode="&#x3c1;" horiz-adv-x="372" 
d="M49 -130v420q0 126 38.5 184.5t103.5 58.5q71 0 109 -70t38 -196v-14q0 -120 -40 -190.5t-97 -70.5q-72 0 -110 109v-231h-42zM196 29q43 0 71.5 60t28.5 165v13q0 227 -106 227q-101 0 -101 -204v-40q0 -100 32.5 -160.5t74.5 -60.5z" />
    <glyph glyph-name="uni03C2" unicode="&#x3c2;" horiz-adv-x="281" 
d="M214 -104v103l-44 25q-74 41 -106 102.5t-32 156.5v7q0 114 43.5 178t114.5 64q39 0 65 -18v-46q-30 24 -65 24q-52 0 -84 -52.5t-32 -148.5v-7q0 -84 28.5 -135.5t92.5 -87.5l60 -33v-132h-41z" />
    <glyph glyph-name="uni03C3" unicode="&#x3c3;" horiz-adv-x="366" 
d="M181 -8q-62 0 -105.5 72t-43.5 190v9q0 119 44 190.5t110 71.5h170v-39l-102 1q76 -72 76 -224v-9q0 -118 -43.5 -190t-105.5 -72zM181 31q45 0 76 61.5t31 161.5v9q0 100 -30.5 161.5t-76.5 61.5t-76.5 -61.5t-30.5 -161.5v-9q0 -100 31 -161.5t76 -61.5z" />
    <glyph glyph-name="uni03C4" unicode="&#x3c4;" horiz-adv-x="274" 
d="M262 486h-108v-392q0 -34 12.5 -46.5t40.5 -12.5q20 0 44 8v-37q-22 -10 -50 -10q-89 0 -89 98v392h-104v39h254v-39z" />
    <glyph glyph-name="uni03C5" unicode="&#x3c5;" horiz-adv-x="368" 
d="M184 -8q-66 0 -100.5 43.5t-34.5 124.5v365h42v-366q0 -128 93 -128t93 128v366h42v-365q0 -81 -34.5 -124.5t-100.5 -43.5z" />
    <glyph glyph-name="uni03C6" unicode="&#x3c6;" horiz-adv-x="502" 
d="M272 -130h-42v128q-88 6 -143 76.5t-55 185.5v5q0 114 55 185t143 77v180h42v-180q88 -6 143 -77t55 -185v-5q0 -115 -55.5 -185.5t-142.5 -76.5v-128zM428 260v5q0 96 -42 156.5t-114 66.5v-452q72 6 114 67t42 157zM74 265v-5q0 -96 42 -157t114 -67v452
q-72 -6 -114 -66.5t-42 -156.5z" />
    <glyph glyph-name="uni03C7" unicode="&#x3c7;" horiz-adv-x="335" 
d="M68 525l100 -271l99 271h42l-119 -309l133 -346h-42l-114 306l-113 -306h-42l133 344l-119 311h42z" />
    <glyph glyph-name="uni03C8" unicode="&#x3c8;" horiz-adv-x="526" 
d="M284 -130h-42v130q-84 3 -138.5 49.5t-54.5 151.5v324h42v-323q0 -158 151 -164v669h42v-669q151 6 151 162v325h42v-324q0 -105 -54.5 -151.5t-138.5 -49.5v-130z" />
    <glyph glyph-name="uni03C9" unicode="&#x3c9;" horiz-adv-x="568" 
d="M263 427h42v-159q0 -119 26 -178t73 -59q41 0 61.5 46t20.5 124v1q0 151 -75 323h42q75 -179 75 -325v-1q0 -93 -31.5 -149t-90.5 -56q-54 0 -82.5 40.5t-40.5 119.5q-18 -160 -122 -160q-59 0 -90 55.5t-31 150.5v1q0 156 75 324h41q-74 -174 -74 -324v-1
q0 -78 20.5 -123.5t60.5 -45.5q47 0 73.5 59t26.5 178v159z" />
    <glyph glyph-name="uni03CA" unicode="&#x3ca;" horiz-adv-x="169" 
d="M51 94v431h42v-424q0 -38 10 -52t33 -14q10 0 25 4v-37q-17 -6 -33 -6q-77 0 -77 98zM101 586v67h46v-67h-46zM1 586v67h46v-67h-46z" />
    <glyph glyph-name="uni03CB" unicode="&#x3cb;" horiz-adv-x="368" 
d="M184 -8q-66 0 -100.5 43.5t-34.5 124.5v365h42v-366q0 -128 93 -128t93 128v366h42v-365q0 -81 -34.5 -124.5t-100.5 -43.5zM212 582v67h46v-67h-46zM112 582v67h46v-67h-46z" />
    <glyph glyph-name="uni03CC" unicode="&#x3cc;" horiz-adv-x="362" 
d="M181 -8q-62 0 -105.5 73.5t-43.5 192.5v9q0 119 44 192.5t106 73.5q61 0 104.5 -73.5t43.5 -192.5v-9q0 -119 -43.5 -192.5t-105.5 -73.5zM181 31q45 0 76 62.5t31 164.5v9q0 102 -31 164.5t-76 62.5t-76 -62.5t-31 -164.5v-9q0 -102 31 -164.5t76 -62.5zM169 576l46 127
l46 -23l-64 -104h-28z" />
    <glyph glyph-name="uni03CD" unicode="&#x3cd;" horiz-adv-x="368" 
d="M184 -8q-66 0 -100.5 43.5t-34.5 124.5v365h42v-366q0 -128 93 -128t93 128v366h42v-365q0 -81 -34.5 -124.5t-100.5 -43.5zM172 572l46 127l46 -23l-64 -104h-28z" />
    <glyph glyph-name="uni03CE" unicode="&#x3ce;" horiz-adv-x="568" 
d="M263 427h42v-159q0 -119 26 -178t73 -59q41 0 61.5 46t20.5 124v1q0 151 -75 323h42q75 -179 75 -325v-1q0 -93 -31.5 -149t-90.5 -56q-54 0 -82.5 40.5t-40.5 119.5q-18 -160 -122 -160q-59 0 -90 55.5t-31 150.5v1q0 156 75 324h41q-74 -174 -74 -324v-1
q0 -78 20.5 -123.5t60.5 -45.5q47 0 73.5 59t26.5 178v159zM271 572l46 127l46 -23l-64 -104h-28z" />
    <glyph glyph-name="uni0400" unicode="&#x400;" horiz-adv-x="325" 
d="M56 0v700h238v-40h-194v-287h177v-40h-177v-293h197v-40h-241zM196 740h-32l-78 82l48 22z" />
    <glyph glyph-name="uni0401" unicode="&#x401;" horiz-adv-x="325" 
d="M56 0v700h238v-40h-194v-287h177v-40h-177v-293h197v-40h-241zM205 750v63h50v-63h-50zM101 750v63h50v-63h-50z" />
    <glyph glyph-name="uni0402" unicode="&#x402;" horiz-adv-x="435" 
d="M282 700v-40h-119v-246q44 11 81 11q83 0 124 -49.5t41 -160.5v-4q0 -117 -40 -165t-113 -48h-8v40h2q38 0 61 12t38.5 51.5t15.5 109.5v4q0 88 -28.5 129t-94.5 41q-38 0 -79 -12v-373h-44v660h-107v40h270z" />
    <glyph glyph-name="uni0403" unicode="&#x403;" horiz-adv-x="284" 
d="M56 0v700h220v-40h-176v-660h-44zM139 740l62 104l48 -22l-78 -82h-32z" />
    <glyph glyph-name="uni0404" unicode="&#x404;" horiz-adv-x="342" 
d="M227 -6q-87 0 -138.5 87t-51.5 260v18q0 171 52.5 259t139.5 88q44 0 76 -17v-47q-37 22 -76 22q-67 0 -106.5 -74t-41.5 -217h187v-40h-187q1 -146 40.5 -221.5t107.5 -75.5q42 0 79 23v-45q-33 -20 -81 -20z" />
    <glyph glyph-name="uni0405" unicode="&#x405;" horiz-adv-x="333" 
d="M155 -8q-55 0 -121 37v50q70 -45 122 -45q45 0 71 27t26 74v2q0 43 -19 81t-79 118q-73 97 -94.5 138.5t-21.5 88.5v2q0 62 39.5 102.5t97.5 40.5q52 0 106 -31v-50q-57 39 -107 39q-41 0 -66.5 -27t-25.5 -71v-2q0 -39 19.5 -75.5t79.5 -113.5q66 -83 90.5 -132.5
t24.5 -104.5v-2q0 -65 -40.5 -105.5t-101.5 -40.5z" />
    <glyph glyph-name="uni0406" unicode="&#x406;" horiz-adv-x="170" 
d="M63 0v700h44v-700h-44z" />
    <glyph glyph-name="uni0407" unicode="&#x407;" horiz-adv-x="170" 
d="M63 0v700h44v-700h-44zM113 750v63h50v-63h-50zM9 750v63h50v-63h-50z" />
    <glyph glyph-name="uni0408" unicode="&#x408;" horiz-adv-x="236" 
d="M70 -5q-24 0 -50 8v41q26 -8 48 -8q33 0 52.5 21t19.5 62v581h44v-582q0 -59 -34 -93q-30 -30 -80 -30z" />
    <glyph glyph-name="uni0409" unicode="&#x409;" horiz-adv-x="547" 
d="M245 0v660h-3l-191 -660h-43l204 700h77v-262h37q93 0 147 -58.5t54 -157.5v-2q0 -100 -54 -160t-151 -60h-77zM289 40h37q75 0 116 47t41 132v2q0 84 -43 130.5t-116 46.5h-35v-358z" />
    <glyph glyph-name="uni040A" unicode="&#x40a;" horiz-adv-x="612" 
d="M310 0v332h-210v-332h-44v700h44v-328h210v328h44v-262h37q93 0 147 -58.5t54 -157.5v-2q0 -100 -54 -160t-151 -60h-77zM354 40h37q75 0 116 47t41 132v2q0 84 -43 130.5t-116 46.5h-35v-358z" />
    <glyph glyph-name="uni040B" unicode="&#x40b;" horiz-adv-x="455" 
d="M282 700v-40h-119v-247q53 12 96 12q78 0 114 -37t36 -116v-272h-44v268q0 62 -24.5 89.5t-86.5 27.5q-41 0 -91 -13v-372h-44v660h-107v40h270z" />
    <glyph glyph-name="uni040C" unicode="&#x40c;" horiz-adv-x="370" 
d="M56 0v700h44v-326h53l143 326h48l-154 -345l174 -355h-49l-162 334h-53v-334h-44zM169 736l62 104l48 -22l-78 -82h-32z" />
    <glyph glyph-name="uni040D" unicode="&#x40d;" horiz-adv-x="420" 
d="M364 0h-43v616l-215 -616h-50v700h43v-602l210 602h55v-700zM229 736h-32l-78 82l48 22z" />
    <glyph glyph-name="uni040E" unicode="&#x40e;" horiz-adv-x="355" 
d="M148 0h-45l64 222l-152 478h45l129 -416l113 416h45zM185 739q-39 0 -64 20t-30 59h37q12 -39 57 -39t57 39h37q-5 -39 -30 -59t-64 -20z" />
    <glyph glyph-name="uni040F" unicode="&#x40f;" horiz-adv-x="416" 
d="M186 -112v112h-130v700h44v-660h216v660h44v-700h-131v-112h-43z" />
    <glyph glyph-name="uni0410" unicode="&#x410;" horiz-adv-x="410" 
d="M28 0l153 703h48l153 -703h-46l-41 196h-182l-41 -196h-44zM121 236h166l-83 398z" />
    <glyph glyph-name="uni0411" unicode="&#x411;" horiz-adv-x="372" 
d="M56 0v700h258v-40h-214v-252h45q92 0 145.5 -55t53.5 -146v-2q0 -92 -53 -148.5t-150 -56.5h-85zM100 40h45q74 0 114.5 43.5t40.5 120.5v2q0 75 -42 118.5t-115 43.5h-43v-328z" />
    <glyph glyph-name="uni0412" unicode="&#x412;" horiz-adv-x="373" 
d="M56 0v700h90q87 0 140 -53q47 -47 47 -122v-2q0 -135 -128 -169q65 -15 101 -58t36 -113v-2q0 -85 -58 -133t-157 -48h-71zM289 521v2q0 63 -39.5 100t-105.5 37h-44v-287h31q77 0 117.5 39t40.5 109zM298 182v2q0 72 -42.5 110.5t-120.5 38.5h-35v-293h28q80 0 125 36.5
t45 105.5z" />
    <glyph glyph-name="uni0413" unicode="&#x413;" horiz-adv-x="284" 
d="M56 0v700h220v-40h-176v-660h-44z" />
    <glyph glyph-name="uni0414" unicode="&#x414;" horiz-adv-x="434" 
d="M8 40h44l138 663h54l137 -663h45v-152h-42v112h-334v-112h-42v152zM216 642l-120 -602h240z" />
    <glyph glyph-name="uni0415" unicode="&#x415;" horiz-adv-x="325" 
d="M56 0v700h238v-40h-194v-287h177v-40h-177v-293h197v-40h-241z" />
    <glyph glyph-name="uni0416" unicode="&#x416;" horiz-adv-x="570" 
d="M24 700h49l136 -326h54v326h44v-326h54l137 326h48l-148 -346l166 -354h-49l-155 334h-53v-334h-44v334h-55l-154 -334h-48l165 355z" />
    <glyph glyph-name="uni0417" unicode="&#x417;" horiz-adv-x="335" 
d="M40 637v44q49 27 103 27q74 0 113.5 -46t39.5 -124v-3q0 -69 -32 -114.5t-82 -65.5q117 -35 117 -171v-2q0 -85 -46 -137.5t-128 -52.5q-56 0 -91 21v46q45 -25 92 -25q62 0 95.5 39t33.5 109v2q0 72 -37.5 110.5t-109.5 38.5h-27v40h27q62 0 103 42t41 119v3
q0 62 -28.5 95.5t-80.5 33.5q-50 0 -103 -29z" />
    <glyph glyph-name="uni0418" unicode="&#x418;" horiz-adv-x="420" 
d="M364 0h-43v616l-215 -616h-50v700h43v-602l210 602h55v-700z" />
    <glyph glyph-name="uni0419" unicode="&#x419;" horiz-adv-x="420" 
d="M364 0h-43v616l-215 -616h-50v700h43v-602l210 602h55v-700zM205 739q-39 0 -64 20t-30 59h37q12 -39 57 -39t57 39h37q-5 -39 -30 -59t-64 -20z" />
    <glyph glyph-name="uni041A" unicode="&#x41a;" horiz-adv-x="370" 
d="M56 0v700h44v-326h53l143 326h48l-154 -345l174 -355h-49l-162 334h-53v-334h-44z" />
    <glyph glyph-name="uni041B" unicode="&#x41b;" horiz-adv-x="400" 
d="M223 703l149 -703h-46l-127 624l-127 -624h-44l149 703h46z" />
    <glyph glyph-name="uni041C" unicode="&#x41c;" horiz-adv-x="478" 
d="M56 0v700h54l129 -391l130 391h53v-700h-42v603l-139 -407h-4l-139 407v-603h-42z" />
    <glyph glyph-name="uni041D" unicode="&#x41d;" horiz-adv-x="416" 
d="M56 0v700h44v-328h216v328h44v-700h-44v332h-216v-332h-44z" />
    <glyph glyph-name="uni041E" unicode="&#x41e;" horiz-adv-x="406" 
d="M203 -8q-74 0 -120 91t-46 259v16q0 168 46 259t120 91t120 -91t46 -259v-16q0 -168 -46 -259t-120 -91zM203 32q54 0 88 80.5t34 229.5v16q0 149 -34 229.5t-88 80.5t-88 -80.5t-34 -229.5v-16q0 -149 34 -229.5t88 -80.5z" />
    <glyph glyph-name="uni041F" unicode="&#x41f;" horiz-adv-x="416" 
d="M56 0v700h304v-700h-44v660h-216v-660h-44z" />
    <glyph glyph-name="uni0420" unicode="&#x420;" horiz-adv-x="364" 
d="M56 0v700h87q93 0 147 -59.5t54 -158.5v-2q0 -102 -54 -162t-151 -60h-39v-258h-44zM100 297h43q75 0 116 47.5t41 134.5v2q0 85 -42.5 132t-116.5 47h-41v-363z" />
    <glyph glyph-name="uni0421" unicode="&#x421;" horiz-adv-x="329" 
d="M222 -6q-81 0 -133 89.5t-52 257.5v18q0 167 53.5 257t133.5 90q36 0 68 -17v-47q-40 22 -68 22q-61 0 -102 -80.5t-41 -224.5v-18q0 -144 41 -224.5t102 -80.5q34 0 71 23v-45q-33 -20 -73 -20z" />
    <glyph glyph-name="uni0422" unicode="&#x422;" horiz-adv-x="296" 
d="M126 0v660h-114v40h272v-40h-114v-660h-44z" />
    <glyph glyph-name="uni0423" unicode="&#x423;" horiz-adv-x="355" 
d="M148 0h-45l64 222l-152 478h45l129 -416l113 416h45z" />
    <glyph glyph-name="uni0424" unicode="&#x424;" horiz-adv-x="552" 
d="M254 -8v83q-103 6 -164.5 79t-61.5 196v5q0 123 61.5 196t164.5 79v85h44v-85q103 -6 164.5 -79t61.5 -195v-4q0 -124 -61.5 -197.5t-164.5 -79.5v-83h-44zM72 355v-5q0 -106 49.5 -168t133.5 -67v475q-84 -5 -133.5 -67t-49.5 -168zM480 352v4q0 105 -50 167.5
t-133 66.5v-475q84 5 133.5 67.5t49.5 169.5z" />
    <glyph glyph-name="uni0425" unicode="&#x425;" horiz-adv-x="357" 
d="M277 700h44l-117 -327l133 -373h-45l-115 325l-113 -325h-44l132 369l-119 331h45l99 -283z" />
    <glyph glyph-name="uni0426" unicode="&#x426;" horiz-adv-x="424" 
d="M366 -112v112h-310v700h44v-660h216v660h44v-660h49v-152h-43z" />
    <glyph glyph-name="uni0427" unicode="&#x427;" horiz-adv-x="392" 
d="M292 0v287q-53 -12 -96 -12q-78 0 -114 37t-36 116v272h44v-268q0 -63 24 -90t87 -27q43 0 91 12v373h44v-700h-44z" />
    <glyph glyph-name="uni0428" unicode="&#x428;" horiz-adv-x="640" 
d="M56 0v700h44v-660h198v660h44v-660h198v660h44v-700h-528z" />
    <glyph glyph-name="uni0429" unicode="&#x429;" horiz-adv-x="648" 
d="M56 0v700h44v-660h198v660h44v-660h198v660h44v-660h49v-152h-43v112h-534z" />
    <glyph glyph-name="uni042A" unicode="&#x42a;" horiz-adv-x="432" 
d="M124 0v660h-112v40h156v-262h43q93 0 147 -58.5t54 -157.5v-2q0 -100 -54 -160t-151 -60h-83zM168 40h43q75 0 116 47t41 132v2q0 84 -43 130.5t-116 46.5h-41v-358z" />
    <glyph glyph-name="uni042B" unicode="&#x42b;" horiz-adv-x="517" 
d="M56 0v700h44v-262h43q93 0 147 -58.5t54 -157.5v-2q0 -100 -54 -160t-151 -60h-83zM100 40h43q75 0 116 47t41 132v2q0 84 -43 130.5t-116 46.5h-41v-358zM417 0v700h44v-700h-44z" />
    <glyph glyph-name="uni042C" unicode="&#x42c;" horiz-adv-x="364" 
d="M56 0v700h44v-262h43q93 0 147 -58.5t54 -157.5v-2q0 -100 -54 -160t-151 -60h-83zM100 40h43q75 0 116 47t41 132v2q0 84 -43 130.5t-116 46.5h-41v-358z" />
    <glyph glyph-name="uni042D" unicode="&#x42d;" horiz-adv-x="342" 
d="M74 333v39h187q-2 143 -42 217.5t-105 74.5q-39 0 -77 -23v45q38 20 78 20q87 0 138.5 -87t51.5 -260v-18q0 -171 -53 -259t-139 -88q-43 0 -79 17v47q37 -22 79 -22q67 0 106.5 75.5t41.5 221.5h-187z" />
    <glyph glyph-name="uni042E" unicode="&#x42e;" horiz-adv-x="554" 
d="M56 0v700h44v-328h95q2 163 46 249.5t115 86.5q72 0 116.5 -90.5t44.5 -259.5v-16q0 -169 -44.5 -259.5t-116.5 -90.5t-115.5 87.5t-45.5 252.5h-95v-332h-44zM356 32q53 0 85 80.5t32 229.5v16q0 149 -32 229.5t-85 80.5t-85 -80.5t-32 -229.5v-16q0 -149 32 -229.5
t85 -80.5z" />
    <glyph glyph-name="uni042F" unicode="&#x42f;" horiz-adv-x="383" 
d="M327 700v-700h-44v282h-41q-13 0 -37 2l-129 -284h-51l136 295q-58 22 -90.5 72.5t-31.5 119.5v2q0 99 55 155t153 56h80zM283 660h-38q-77 0 -119.5 -43t-42.5 -127v-2q0 -80 42.5 -123.5t115.5 -43.5h42v339z" />
    <glyph glyph-name="uni0430" unicode="&#x430;" horiz-adv-x="345" 
d="M148 -9q-53 0 -86.5 46t-33.5 116v8q0 75 36.5 121.5t101.5 46.5q44 0 88 -20v66q0 116 -100 116q-53 0 -97 -24v41q44 23 99 23q64 0 102 -38t38 -113v-380h-42v76q-34 -85 -106 -85zM154 28q44 0 72 41t28 95v105q-45 21 -86 21q-47 0 -72.5 -35t-25.5 -92v-8
q0 -56 22 -91.5t62 -35.5z" />
    <glyph glyph-name="uni0431" unicode="&#x431;" horiz-adv-x="364" 
d="M185 -8q-50 0 -83 33q-34 34 -49 93t-15 160v13q0 89 4 144.5t15 106t32.5 79t56 48t86.5 28.5l79 13v-40l-79 -13q-87 -15 -117.5 -68.5t-40.5 -196.5q40 102 123 102q62 0 98.5 -65.5t36.5 -171.5v-12q0 -116 -39.5 -184.5t-107.5 -68.5zM185 31q52 0 78.5 57.5
t26.5 156.5v12q0 88 -25 143t-73 55q-50 0 -81.5 -54.5t-31.5 -133.5v-24q0 -103 27.5 -157.5t78.5 -54.5z" />
    <glyph glyph-name="uni0432" unicode="&#x432;" horiz-adv-x="344" 
d="M53 0v525h80q80 0 125 -33.5t45 -97.5v-1q0 -99 -104 -128q113 -24 113 -122v-2q0 -141 -191 -141h-68zM95 283h34q63 0 97.5 28.5t34.5 79.5v2q0 93 -127 93h-39v-203zM95 245v-206h29q146 0 146 101v2q0 103 -141 103h-34z" />
    <glyph glyph-name="uni0433" unicode="&#x433;" horiz-adv-x="252" 
d="M53 0v525h193v-39h-151v-486h-42z" />
    <glyph glyph-name="uni0434" unicode="&#x434;" horiz-adv-x="390" 
d="M216 528l124 -489h44v-143h-39v104h-300v-104h-39v143h44l124 489h42zM195 462l-104 -423h205z" />
    <glyph glyph-name="uni0435" unicode="&#x435;" horiz-adv-x="348" 
d="M199 -7q-70 0 -118.5 68t-48.5 192v9q0 130 41.5 200.5t102.5 70.5t99 -68t38 -189v-31h-239q2 -103 38 -157.5t93 -54.5q44 0 91 31l5 -43q-49 -28 -102 -28zM74 282h198q0 91 -27 151.5t-69 60.5q-43 0 -71 -55t-31 -157z" />
    <glyph glyph-name="uni0436" unicode="&#x436;" horiz-adv-x="518" 
d="M280 525v-242h56l104 242h46l-116 -261l126 -264h-46l-114 244h-56v-244h-42v244h-56l-115 -244h-45l126 261l-116 264h47l103 -242h56v242h42z" />
    <glyph glyph-name="uni0437" unicode="&#x437;" horiz-adv-x="289" 
d="M23 9v44q43 -22 87 -22q48 0 75.5 27.5t27.5 77.5v3q0 51 -29.5 79t-83.5 28h-35v39h35q50 0 80 29.5t30 81.5v2q0 45 -23 70.5t-66 25.5q-45 0 -90 -25v43q43 21 90 21q62 0 96.5 -36t34.5 -97v-3q0 -52 -28.5 -85t-64.5 -45q96 -27 96 -127v-5q0 -62 -38.5 -102.5
t-106.5 -40.5q-45 0 -87 17z" />
    <glyph glyph-name="uni0438" unicode="&#x438;" horiz-adv-x="373" 
d="M53 0v525h41v-434l179 434h47v-525h-41v444l-183 -444h-43z" />
    <glyph glyph-name="uni0439" unicode="&#x439;" horiz-adv-x="373" 
d="M53 0v525h41v-434l179 434h47v-525h-41v444l-183 -444h-43zM185 575q-83 0 -93 94h36q10 -55 57 -55t57 55h36q-10 -94 -93 -94z" />
    <glyph glyph-name="uni043A" unicode="&#x43a;" horiz-adv-x="336" 
d="M95 525v-242h56l107 242h47l-119 -261l130 -264h-47l-118 244h-56v-244h-42v525h42z" />
    <glyph glyph-name="uni043B" unicode="&#x43b;" horiz-adv-x="356" 
d="M198 528l131 -528h-43l-108 459l-110 -459h-41l131 528h40z" />
    <glyph glyph-name="uni043C" unicode="&#x43c;" horiz-adv-x="415" 
d="M53 0v525h49l105 -301l107 301h48v-525h-41v436l-112 -305h-3l-112 305v-436h-41z" />
    <glyph glyph-name="uni043D" unicode="&#x43d;" horiz-adv-x="374" 
d="M53 0v525h42v-240h184v240h42v-525h-42v246h-184v-246h-42z" />
    <glyph glyph-name="uni043E" unicode="&#x43e;" horiz-adv-x="362" 
d="M181 -8q-62 0 -105.5 73.5t-43.5 192.5v9q0 119 44 192.5t106 73.5q61 0 104.5 -73.5t43.5 -192.5v-9q0 -119 -43.5 -192.5t-105.5 -73.5zM181 31q45 0 76 62.5t31 164.5v9q0 102 -31 164.5t-76 62.5t-76 -62.5t-31 -164.5v-9q0 -102 31 -164.5t76 -62.5z" />
    <glyph glyph-name="uni043F" unicode="&#x43f;" horiz-adv-x="374" 
d="M53 0v525h268v-525h-42v486h-184v-486h-42z" />
    <glyph glyph-name="uni0440" unicode="&#x440;" horiz-adv-x="376" 
d="M53 -130v655h42v-101q38 109 110 109q57 0 97 -70t40 -191v-19q0 -120 -40 -190.5t-97 -70.5q-72 0 -110 109v-231h-42zM200 29q43 0 71.5 60t28.5 165v17q0 105 -28.5 165t-71.5 60q-42 0 -74.5 -60.5t-32.5 -160.5v-25q0 -100 32.5 -160.5t74.5 -60.5z" />
    <glyph glyph-name="uni0441" unicode="&#x441;" horiz-adv-x="281" 
d="M192 -7q-67 0 -113.5 67t-46.5 196v10q0 128 47 197t113 69q38 0 63 -18v-46q-30 24 -64 24q-46 0 -81.5 -58t-35.5 -166v-14q0 -110 35.5 -165.5t85.5 -55.5q31 0 60 24v-44q-28 -20 -63 -20z" />
    <glyph glyph-name="uni0442" unicode="&#x442;" horiz-adv-x="266" 
d="M112 0v486h-102v39h246v-39h-102v-486h-42z" />
    <glyph glyph-name="uni0443" unicode="&#x443;" horiz-adv-x="346" 
d="M173 77l104 448h42l-159 -655h-40v1l33 134l-127 520h43z" />
    <glyph glyph-name="uni0444" unicode="&#x444;" horiz-adv-x="502" 
d="M272 -130h-42v128q-88 6 -143 76.5t-55 185.5v5q0 114 55 185t143 77v180h42v-180q88 -6 143 -77t55 -185v-5q0 -115 -55.5 -185.5t-142.5 -76.5v-128zM428 260v5q0 96 -42 156.5t-114 66.5v-452q72 6 114 67t42 157zM74 265v-5q0 -96 42 -157t114 -67v452
q-72 -6 -114 -66.5t-42 -156.5z" />
    <glyph glyph-name="uni0445" unicode="&#x445;" horiz-adv-x="332" 
d="M77 525l89 -216l89 216h44l-109 -252l118 -273h-45l-98 235l-97 -235h-44l117 271l-109 254h45z" />
    <glyph glyph-name="uni0446" unicode="&#x446;" horiz-adv-x="380" 
d="M329 -104v104h-276v525h42v-486h184v486h42v-486h47v-143h-39z" />
    <glyph glyph-name="uni0447" unicode="&#x447;" horiz-adv-x="352" 
d="M257 0v212q-49 -9 -82 -9q-70 0 -101 32t-31 100v190h42v-187q0 -51 20.5 -73t72.5 -22q37 0 79 9v273h42v-525h-42z" />
    <glyph glyph-name="uni0448" unicode="&#x448;" horiz-adv-x="570" 
d="M53 0v525h42v-486h169v486h42v-486h169v486h42v-525h-464z" />
    <glyph glyph-name="uni0449" unicode="&#x449;" horiz-adv-x="576" 
d="M53 0v525h42v-486h169v486h42v-486h169v486h42v-486h47v-143h-39v104h-472z" />
    <glyph glyph-name="uni044A" unicode="&#x44a;" horiz-adv-x="379" 
d="M108 0v486h-98v39h98h42v-177h18q90 0 140.5 -45.5t50.5 -125.5v-2q0 -81 -51 -128t-142 -47h-58zM150 309v-270h23q68 0 106.5 36t38.5 99v2q0 65 -39 99t-107 34h-22z" />
    <glyph glyph-name="uni044B" unicode="&#x44b;" horiz-adv-x="466" 
d="M95 525v-177h18q90 0 140.5 -45.5t50.5 -125.5v-2q0 -81 -51 -128t-142 -47h-58v525h42zM95 309v-270h23q68 0 106.5 36t38.5 99v2q0 65 -39 99t-107 34h-22zM371 0v525h42v-525h-42z" />
    <glyph glyph-name="uni044C" unicode="&#x44c;" horiz-adv-x="324" 
d="M53 0v525h42v-177h18q90 0 140.5 -45.5t50.5 -125.5v-2q0 -81 -51 -128t-142 -47h-58zM95 39h23q68 0 106.5 36t38.5 99v2q0 65 -39 99t-107 34h-22v-270z" />
    <glyph glyph-name="uni044D" unicode="&#x44d;" horiz-adv-x="298" 
d="M57 285h167q-4 106 -39.5 156.5t-89.5 50.5q-37 0 -69 -20v43q32 17 70 17q74 0 122 -64.5t48 -198.5v-10q0 -134 -48 -200t-123 -66q-40 0 -69 17v45q34 -22 70 -22q54 0 90 51.5t38 161.5h-167v39z" />
    <glyph glyph-name="uni044E" unicode="&#x44e;" horiz-adv-x="500" 
d="M95 246v-246h-42v525h42v-240h80q4 112 46.5 180t100.5 68q60 0 103 -73.5t43 -192.5v-9q0 -119 -43.5 -192.5t-103.5 -73.5q-58 0 -101 70t-45 184h-80zM321 31q45 0 75 62.5t30 164.5v9q0 102 -30 164.5t-75 62.5q-44 0 -74 -62.5t-30 -164.5v-9q0 -102 30 -164.5
t74 -62.5z" />
    <glyph glyph-name="uni044F" unicode="&#x44f;" horiz-adv-x="351" 
d="M74 0h-48l109 220q-48 17 -74 54.5t-25 88.5v1q0 80 50.5 120.5t130.5 40.5h81v-525h-42v208h-44q-13 0 -35 2zM256 486h-40q-138 0 -138 -121v-1q0 -57 36 -87.5t103 -30.5h39v240z" />
    <glyph glyph-name="uni0450" unicode="&#x450;" horiz-adv-x="348" 
d="M199 -7q-70 0 -118.5 68t-48.5 192v9q0 130 41.5 200.5t102.5 70.5t99 -68t38 -189v-31h-239q2 -103 38 -157.5t93 -54.5q44 0 91 31l5 -43q-49 -28 -102 -28zM74 282h198q0 91 -27 151.5t-69 60.5q-43 0 -71 -55t-31 -157zM166 576l-82 100l47 25l64 -125h-29z" />
    <glyph glyph-name="uni0451" unicode="&#x451;" horiz-adv-x="348" 
d="M199 -7q-70 0 -118.5 68t-48.5 192v9q0 130 41.5 200.5t102.5 70.5t99 -68t38 -189v-31h-239q2 -103 38 -157.5t93 -54.5q44 0 91 31l5 -43q-49 -28 -102 -28zM74 282h198q0 91 -27 151.5t-69 60.5q-43 0 -71 -55t-31 -157zM204 586v67h46v-67h-46zM104 586v67h46v-67
h-46z" />
    <glyph glyph-name="uni0452" unicode="&#x452;" horiz-adv-x="357" 
d="M227 570h-132v-144q49 9 83 9q71 0 102.5 -32t31.5 -100v-313q0 -122 -105 -122q-16 0 -38 5v39q20 -4 34 -4q39 0 53 22.5t14 68.5v301q0 51 -21 73t-74 22q-43 0 -80 -10v-385h-42v570h-82v39h82v98h42v-98h132v-39z" />
    <glyph glyph-name="uni0453" unicode="&#x453;" horiz-adv-x="252" 
d="M53 0v525h193v-39h-151v-486h-42zM122 576l64 125l47 -25l-82 -100h-29z" />
    <glyph glyph-name="uni0454" unicode="&#x454;" horiz-adv-x="298" 
d="M241 285v-39h-167q2 -111 38 -162t92 -51q40 0 68 22v-44q-31 -18 -69 -18q-75 0 -123 64.5t-48 198.5v10q0 131 50 198.5t123 67.5q41 0 67 -16v-46q-31 22 -68 22q-53 0 -90.5 -52.5t-39.5 -154.5h167z" />
    <glyph glyph-name="uni0455" unicode="&#x455;" horiz-adv-x="279" 
d="M130 -6q-50 0 -105 25v44q57 -30 107 -30q34 0 57 21t23 57v2q0 53 -83 133q-59 57 -81 92t-22 76v2q0 52 35.5 83.5t83.5 31.5q47 0 87 -17v-44q-43 22 -89 22q-33 0 -54 -20t-21 -54v-2q0 -28 18 -55.5t65 -73.5q57 -54 80 -92.5t23 -79.5v-2q0 -54 -36.5 -86.5
t-87.5 -32.5z" />
    <glyph glyph-name="uni0456" unicode="&#x456;" horiz-adv-x="160" 
d="M57 637v70h46v-70h-46zM59 0v525h42v-525h-42z" />
    <glyph glyph-name="uni0457" unicode="&#x457;" horiz-adv-x="160" 
d="M59 0v525h42v-525h-42zM108 586v67h46v-67h-46zM8 586v67h46v-67h-46z" />
    <glyph glyph-name="uni0458" unicode="&#x458;" horiz-adv-x="160" 
d="M57 637v70h46v-70h-46zM2 -132q-16 0 -29 5v39q12 -4 25 -4q36 0 48.5 23.5t12.5 69.5v524h42v-539q0 -50 -23 -84t-76 -34z" />
    <glyph glyph-name="uni0459" unicode="&#x459;" horiz-adv-x="500" 
d="M233 0v490h-3l-179 -490h-41l193 525h72v-177h14q90 0 140.5 -45.5t50.5 -125.5v-2q0 -81 -51 -128t-142 -47h-54zM275 39h19q68 0 106.5 36t38.5 99v2q0 65 -39 99t-107 34h-18v-270z" />
    <glyph glyph-name="uni045A" unicode="&#x45a;" horiz-adv-x="542" 
d="M317 525v-177h14q90 0 140.5 -45.5t50.5 -125.5v-2q0 -81 -51 -128t-142 -47h-54v246h-180v-246h-42v525h42v-240h180v240h42zM317 309v-270h19q68 0 106.5 36t38.5 99v2q0 65 -39 99t-107 34h-18z" />
    <glyph glyph-name="uni045B" unicode="&#x45b;" horiz-adv-x="357" 
d="M227 570h-132v-144q49 9 83 9q71 0 102.5 -32t31.5 -100v-303h-42v300q0 51 -21 73t-74 22q-43 0 -80 -10v-385h-42v570h-82v39h82v98h42v-98h132v-39z" />
    <glyph glyph-name="uni045C" unicode="&#x45c;" horiz-adv-x="336" 
d="M95 525v-242h56l107 242h47l-119 -261l130 -264h-47l-118 244h-56v-244h-42v525h42zM152 572l64 125l47 -25l-82 -100h-29z" />
    <glyph glyph-name="uni045D" unicode="&#x45d;" horiz-adv-x="373" 
d="M53 0v525h41v-434l179 434h47v-525h-41v444l-183 -444h-43zM175 572l-82 100l47 25l64 -125h-29z" />
    <glyph glyph-name="uni045E" unicode="&#x45e;" horiz-adv-x="346" 
d="M173 77l104 448h42l-159 -655h-40v1l33 134l-127 520h43zM173 575q-83 0 -93 94h36q10 -55 57 -55t57 55h36q-10 -94 -93 -94z" />
    <glyph glyph-name="uni045F" unicode="&#x45f;" horiz-adv-x="374" 
d="M168 -104v104h-115v525h42v-486h184v486h42v-525h-114v-104h-39z" />
    <glyph glyph-name="uni0462" unicode="&#x462;" horiz-adv-x="428" 
d="M168 715v-130h133v-40h-133v-143h43q91 0 144 -54.5t53 -143.5v-2q0 -90 -52.5 -146t-148.5 -56h-83v545h-112v40h112v130h44zM168 40h43q73 0 113 43t40 118v2q0 73 -41.5 116t-113.5 43h-41v-322z" />
    <glyph glyph-name="uni0463" unicode="&#x463;" horiz-adv-x="379" 
d="M282 486h-132v-138h18q90 0 140.5 -45.5t50.5 -125.5v-2q0 -81 -51 -128t-142 -47h-58v486h-98v39h98v182h42v-182h132v-39zM150 309v-270h23q68 0 106.5 36t38.5 99v2q0 65 -39 99t-107 34h-22z" />
    <glyph glyph-name="uni0472" unicode="&#x472;" horiz-adv-x="402" 
d="M201 -8q-73 0 -118.5 91t-45.5 259v16q0 168 45.5 259t118.5 91t118.5 -91t45.5 -259v-16q0 -168 -45.5 -259t-118.5 -91zM201 32q53 0 86 77.5t35 222.5h-242q1 -144 34.5 -222t86.5 -78zM201 668q-53 0 -86 -76.5t-35 -219.5h242q-2 141 -36 218.5t-85 77.5z" />
    <glyph glyph-name="uni0473" unicode="&#x473;" horiz-adv-x="358" 
d="M179 -8q-61 0 -104 73.5t-43 192.5v9q0 119 43.5 192.5t104.5 73.5q62 0 104 -73t42 -193v-9q0 -119 -43 -192.5t-104 -73.5zM179 31q43 0 74 59t33 156h-214q2 -98 32 -156.5t75 -58.5zM179 494q-43 0 -74 -57.5t-33 -151.5h213q-4 95 -33.5 152t-72.5 57z" />
    <glyph glyph-name="uni0474" unicode="&#x474;" horiz-adv-x="421" 
d="M174 -5l-146 705h46l123 -622l83 412q19 94 37 139t39 59t59 14h2v-40h-1q-24 0 -36.5 -10t-26.5 -48.5t-31 -121.5l-104 -487h-44z" />
    <glyph glyph-name="uni0475" unicode="&#x475;" horiz-adv-x="356" 
d="M154 -3l-127 528h43l102 -454l71 310q19 88 42.5 117t67.5 29h1v-39h-1q-26 0 -40.5 -21.5t-31.5 -94.5l-91 -375h-36z" />
    <glyph glyph-name="uni0490" unicode="&#x490;" horiz-adv-x="284" 
d="M56 0v700h181v102h39v-142h-176v-660h-44z" />
    <glyph glyph-name="uni0491" unicode="&#x491;" horiz-adv-x="252" 
d="M53 0v525h154v95h39v-134h-151v-486h-42z" />
    <glyph glyph-name="uni0492" unicode="&#x492;" horiz-adv-x="290" 
d="M62 0v325h-55v38h55v337h220v-40h-176v-297h86v-38h-86v-325h-44z" />
    <glyph glyph-name="uni0493" unicode="&#x493;" horiz-adv-x="260" 
d="M61 0v235h-48v39h48v251h193v-39h-151v-212h73v-39h-73v-235h-42z" />
    <glyph glyph-name="uni0496" unicode="&#x496;" horiz-adv-x="596" 
d="M24 700h49l136 -326h54v326h44v-326h54l137 326h48l-148 -346l147 -314h46v-152h-43v112h-33l-155 334h-53v-334h-44v334h-55l-154 -334h-48l165 355z" />
    <glyph glyph-name="uni0497" unicode="&#x497;" horiz-adv-x="528" 
d="M280 525v-242h56l104 242h46l-116 -261l107 -225h45v-143h-39v104h-33l-114 244h-56v-244h-42v244h-56l-115 -244h-45l126 261l-116 264h47l103 -242h56v242h42z" />
    <glyph glyph-name="uni0498" unicode="&#x498;" horiz-adv-x="335" 
d="M129 -112v104h-4q-56 0 -91 21v46q45 -25 92 -25q62 0 95.5 39t33.5 109v2q0 72 -37.5 110.5t-109.5 38.5h-27v40h27q62 0 103 42t41 119v3q0 62 -28.5 95.5t-80.5 33.5q-50 0 -103 -29v44q49 27 103 27q74 0 113.5 -46t39.5 -124v-3q0 -69 -32 -114.5t-82 -65.5
q117 -35 117 -171v-2q0 -72 -33.5 -121.5t-93.5 -63.5v-109h-43z" />
    <glyph glyph-name="uni0499" unicode="&#x499;" horiz-adv-x="289" 
d="M112 -104v96h-2q-45 0 -87 17v44q43 -22 87 -22q48 0 75.5 27.5t27.5 77.5v3q0 51 -29.5 79t-83.5 28h-35v39h35q50 0 80 29.5t30 81.5v2q0 45 -23 70.5t-66 25.5q-45 0 -90 -25v43q43 21 90 21q62 0 96.5 -36t34.5 -97v-3q0 -52 -28.5 -85t-64.5 -45q96 -27 96 -127v-5
q0 -52 -27 -89.5t-77 -48.5v-101h-39z" />
    <glyph glyph-name="uni049A" unicode="&#x49a;" horiz-adv-x="395" 
d="M56 0v700h44v-326h53l143 326h48l-154 -345l154 -315h46v-152h-43v112h-32l-162 334h-53v-334h-44z" />
    <glyph glyph-name="uni049B" unicode="&#x49b;" horiz-adv-x="347" 
d="M95 525v-242h56l107 242h47l-119 -261l111 -225h44v-143h-39v104h-33l-118 244h-56v-244h-42v525h42z" />
    <glyph glyph-name="uni049C" unicode="&#x49c;" horiz-adv-x="413" 
d="M211 584l-2 -209l131 325h47l-142 -345l162 -355h-48l-150 331l2 -204h-41v207h-70v-334h-44v700h44v-326h70v210h41z" />
    <glyph glyph-name="uni049D" unicode="&#x49d;" horiz-adv-x="375" 
d="M351 0h-46l-106 244h-3l2 -172h-37v172h-66v-244h-42v525h42v-242h66v181h37l-2 -181h4l94 242h46l-106 -261z" />
    <glyph glyph-name="uni04A0" unicode="&#x4a0;" horiz-adv-x="438" 
d="M124 0v660h-112v40h112h44v-326h53l143 326h48l-154 -345l174 -355h-49l-162 334h-53v-334h-44z" />
    <glyph glyph-name="uni04A1" unicode="&#x4a1;" horiz-adv-x="391" 
d="M371 0h-47l-118 244h-56v-244h-42v486h-98v39h98h42v-242h56l107 242h47l-119 -261z" />
    <glyph glyph-name="uni04A2" unicode="&#x4a2;" horiz-adv-x="424" 
d="M366 -112v112h-50v332h-216v-332h-44v700h44v-328h216v328h44v-660h49v-152h-43z" />
    <glyph glyph-name="uni04A3" unicode="&#x4a3;" horiz-adv-x="380" 
d="M329 -104v104h-50v246h-184v-246h-42v525h42v-240h184v240h42v-486h47v-143h-39z" />
    <glyph glyph-name="uni04A4" unicode="&#x4a4;" horiz-adv-x="521" 
d="M310 0v332h-210v-332h-44v700h44v-328h210v328h203v-40h-159v-660h-44z" />
    <glyph glyph-name="uni04A5" unicode="&#x4a5;" horiz-adv-x="467" 
d="M95 525v-240h180v240h186v-39h-144v-486h-42v246h-180v-246h-42v525h42z" />
    <glyph glyph-name="uni04AA" unicode="&#x4aa;" horiz-adv-x="329" 
d="M176 -112v114q-63 23 -101 109.5t-38 229.5v18q0 167 53.5 257t133.5 90q36 0 68 -17v-47q-40 22 -68 22q-61 0 -102 -80.5t-41 -224.5v-18q0 -144 41 -224.5t102 -80.5q34 0 71 23v-45q-33 -20 -73 -20h-3v-106h-43z" />
    <glyph glyph-name="uni04AB" unicode="&#x4ab;" horiz-adv-x="281" 
d="M152 -104v104q-53 17 -86.5 82t-33.5 174v10q0 128 47 197t113 69q38 0 63 -18v-46q-30 24 -64 24q-46 0 -81.5 -58t-35.5 -166v-14q0 -110 35.5 -165.5t85.5 -55.5q31 0 60 24v-44q-28 -20 -63 -20h-1v-97h-39z" />
    <glyph glyph-name="uni04AE" unicode="&#x4ae;" horiz-adv-x="352" 
d="M154 0v302l-146 398h48l121 -343l122 343h45l-146 -398v-302h-44z" />
    <glyph glyph-name="uni04AF" unicode="&#x4af;" horiz-adv-x="348" 
d="M195 -130h-42v147l-126 508h43l104 -447l106 447h41l-126 -508v-147z" />
    <glyph glyph-name="uni04B0" unicode="&#x4b0;" horiz-adv-x="352" 
d="M154 0v274h-94v38h90l-142 388h48l121 -343l122 343h45l-143 -388h91v-38h-94v-274h-44z" />
    <glyph glyph-name="uni04B1" unicode="&#x4b1;" horiz-adv-x="348" 
d="M174 78l106 447h41l-121 -486h77v-39h-82v-130h-42v130h-82v39h77l-121 486h43z" />
    <glyph glyph-name="uni04B2" unicode="&#x4b2;" horiz-adv-x="373" 
d="M292 0l-115 325l-113 -325h-44l132 369l-119 331h45l99 -283l100 283h44l-117 -327l119 -333h45v-152h-43v112h-33z" />
    <glyph glyph-name="uni04B3" unicode="&#x4b3;" horiz-adv-x="340" 
d="M77 525l89 -216l89 216h44l-109 -252l101 -234h43v-143h-39v104h-32l-98 235l-97 -235h-44l117 271l-109 254h45z" />
    <glyph glyph-name="uni04B6" unicode="&#x4b6;" horiz-adv-x="400" 
d="M342 -112v112h-50v287q-53 -12 -96 -12q-78 0 -114 37t-36 116v272h44v-268q0 -63 24 -90t87 -27q43 0 91 12v373h44v-660h49v-152h-43z" />
    <glyph glyph-name="uni04B7" unicode="&#x4b7;" horiz-adv-x="358" 
d="M307 -104v104h-50v212q-49 -9 -82 -9q-70 0 -101 32t-31 100v190h42v-187q0 -51 20.5 -73t72.5 -22q37 0 79 9v273h42v-486h47v-143h-39z" />
    <glyph glyph-name="uni04B8" unicode="&#x4b8;" horiz-adv-x="396" 
d="M296 0v286q-37 -10 -83 -11l1 -156h-41l1 157q-68 5 -98 40.5t-30 109.5v274h44v-270q0 -56 18.5 -82.5t65.5 -31.5l-1 209h41l-1 -210q40 2 83 12v373h44v-700h-44z" />
    <glyph glyph-name="uni04B9" unicode="&#x4b9;" horiz-adv-x="356" 
d="M192 73h-37l1 131q-67 4 -90 34.5t-23 93.5v193h42v-190q0 -47 14 -67t57 -24l-1 192h37l-1 -193q39 0 70 9v273h42v-525h-42v212q-41 -9 -70 -9z" />
    <glyph glyph-name="uni04BA" unicode="&#x4ba;" horiz-adv-x="392" 
d="M100 700v-287q53 12 96 12q78 0 114 -37t36 -116v-272h-44v268q0 62 -24.5 89.5t-86.5 27.5q-43 0 -91 -12v-373h-44v700h44z" />
    <glyph glyph-name="uni04BB" unicode="&#x4bb;" horiz-adv-x="372" 
d="M53 0v707h42v-259q37 85 108 85q55 0 87.5 -43.5t32.5 -122.5v-367h-42v363q0 134 -86 134q-43 0 -71.5 -39.5t-28.5 -102.5v-355h-42z" />
    <glyph glyph-name="uni04C0" unicode="&#x4c0;" horiz-adv-x="170" 
d="M63 0v700h44v-700h-44z" />
    <glyph glyph-name="uni04C1" unicode="&#x4c1;" horiz-adv-x="570" 
d="M24 700h49l136 -326h54v326h44v-326h54l137 326h48l-148 -346l166 -354h-49l-155 334h-53v-334h-44v334h-55l-154 -334h-48l165 355zM285 743q-39 0 -64 20t-30 59h37q12 -39 57 -39t57 39h37q-5 -39 -30 -59t-64 -20z" />
    <glyph glyph-name="uni04C2" unicode="&#x4c2;" horiz-adv-x="518" 
d="M280 525v-242h56l104 242h46l-116 -261l126 -264h-46l-114 244h-56v-244h-42v244h-56l-115 -244h-45l126 261l-116 264h47l103 -242h56v242h42zM259 579q-83 0 -93 94h36q10 -55 57 -55t57 55h36q-10 -94 -93 -94z" />
    <glyph glyph-name="uni04CF" unicode="&#x4cf;" horiz-adv-x="160" 
d="M59 0v707h42v-707h-42z" />
    <glyph glyph-name="uni04D0" unicode="&#x4d0;" horiz-adv-x="410" 
d="M28 0l153 703h48l153 -703h-46l-41 196h-182l-41 -196h-44zM121 236h166l-83 398zM206 748q-39 0 -64 20t-30 59h37q12 -39 57 -39t57 39h37q-5 -39 -30 -59t-64 -20z" />
    <glyph glyph-name="uni04D1" unicode="&#x4d1;" horiz-adv-x="345" 
d="M148 -9q-53 0 -86.5 46t-33.5 116v8q0 75 36.5 121.5t101.5 46.5q44 0 88 -20v66q0 116 -100 116q-53 0 -97 -24v41q44 23 99 23q64 0 102 -38t38 -113v-380h-42v76q-34 -85 -106 -85zM154 28q44 0 72 41t28 95v105q-45 21 -86 21q-47 0 -72.5 -35t-25.5 -92v-8
q0 -56 22 -91.5t62 -35.5zM172 579q-83 0 -93 94h36q10 -55 57 -55t57 55h36q-10 -94 -93 -94z" />
    <glyph glyph-name="uni04D2" unicode="&#x4d2;" horiz-adv-x="410" 
d="M28 0l153 703h48l153 -703h-46l-41 196h-182l-41 -196h-44zM121 236h166l-83 398zM233 755v63h50v-63h-50zM129 755v63h50v-63h-50z" />
    <glyph glyph-name="uni04D3" unicode="&#x4d3;" horiz-adv-x="345" 
d="M148 -9q-53 0 -86.5 46t-33.5 116v8q0 75 36.5 121.5t101.5 46.5q44 0 88 -20v66q0 116 -100 116q-53 0 -97 -24v41q44 23 99 23q64 0 102 -38t38 -113v-380h-42v76q-34 -85 -106 -85zM154 28q44 0 72 41t28 95v105q-45 21 -86 21q-47 0 -72.5 -35t-25.5 -92v-8
q0 -56 22 -91.5t62 -35.5zM199 586v67h46v-67h-46zM99 586v67h46v-67h-46z" />
    <glyph glyph-name="uni04D4" unicode="&#x4d4;" horiz-adv-x="514" 
d="M8 0l197 700h278v-40h-194v-287h177v-40h-177v-293h197v-40h-241v196h-139l-55 -196h-43zM117 236h128v424h-10z" />
    <glyph glyph-name="uni04D5" unicode="&#x4d5;" horiz-adv-x="564" 
d="M148 -9q-53 0 -86.5 46t-33.5 116v8q0 75 36.5 121.5t101.5 46.5q44 0 88 -20v66q0 116 -100 116q-53 0 -97 -24v41q44 23 99 23q101 0 127 -89q38 91 109 91q61 0 99 -68t38 -189v-31h-239q2 -103 38 -157.5t93 -54.5q44 0 91 31l5 -43q-49 -28 -102 -28q-46 0 -83.5 30
t-58.5 89q-16 -53 -47 -87t-78 -34zM290 282h198q0 91 -27 151.5t-69 60.5q-43 0 -71 -55t-31 -157zM154 28q40 0 67 38.5t39 93.5q-10 58 -8 111q-49 19 -84 19q-47 0 -72.5 -35t-25.5 -92v-8q0 -56 22 -91.5t62 -35.5z" />
    <glyph glyph-name="uni04D6" unicode="&#x4d6;" horiz-adv-x="325" 
d="M56 0v700h238v-40h-194v-287h177v-40h-177v-293h197v-40h-241zM178 743q-39 0 -64 20t-30 59h37q12 -39 57 -39t57 39h37q-5 -39 -30 -59t-64 -20z" />
    <glyph glyph-name="uni04D7" unicode="&#x4d7;" horiz-adv-x="348" 
d="M199 -7q-70 0 -118.5 68t-48.5 192v9q0 130 41.5 200.5t102.5 70.5t99 -68t38 -189v-31h-239q2 -103 38 -157.5t93 -54.5q44 0 91 31l5 -43q-49 -28 -102 -28zM74 282h198q0 91 -27 151.5t-69 60.5q-43 0 -71 -55t-31 -157zM177 579q-83 0 -93 94h36q10 -55 57 -55t57 55
h36q-10 -94 -93 -94z" />
    <glyph glyph-name="uni04D8" unicode="&#x4d8;" horiz-adv-x="388" 
d="M63 629l-5 44q47 35 106 35q87 0 137 -88t50 -256v-12q0 -178 -42 -269t-114 -91q-70 0 -111.5 88.5t-41.5 255.5v40h265q0 143 -39.5 216.5t-106.5 73.5q-49 0 -98 -37zM196 32q50 0 80.5 79t30.5 225h-221q0 -150 29 -227t81 -77z" />
    <glyph glyph-name="uni04D9" unicode="&#x4d9;" horiz-adv-x="348" 
d="M149 532q70 0 118.5 -68t48.5 -192v-9q0 -130 -41.5 -200.5t-102.5 -70.5t-99 68t-38 189v31h239q-2 103 -38 157.5t-93 54.5q-44 0 -91 -31l-5 43q49 28 102 28zM274 243h-198q0 -91 27 -151.5t69 -60.5q43 0 71 55t31 157z" />
    <glyph glyph-name="uni04DC" unicode="&#x4dc;" horiz-adv-x="570" 
d="M24 700h49l136 -326h54v326h44v-326h54l137 326h48l-148 -346l166 -354h-49l-155 334h-53v-334h-44v334h-55l-154 -334h-48l165 355zM312 750v63h50v-63h-50zM208 750v63h50v-63h-50z" />
    <glyph glyph-name="uni04DD" unicode="&#x4dd;" horiz-adv-x="518" 
d="M280 525v-242h56l104 242h46l-116 -261l126 -264h-46l-114 244h-56v-244h-42v244h-56l-115 -244h-45l126 261l-116 264h47l103 -242h56v242h42zM286 586v67h46v-67h-46zM186 586v67h46v-67h-46z" />
    <glyph glyph-name="uni04DE" unicode="&#x4de;" horiz-adv-x="335" 
d="M40 637v44q49 27 103 27q74 0 113.5 -46t39.5 -124v-3q0 -69 -32 -114.5t-82 -65.5q117 -35 117 -171v-2q0 -85 -46 -137.5t-128 -52.5q-56 0 -91 21v46q45 -25 92 -25q62 0 95.5 39t33.5 109v2q0 72 -37.5 110.5t-109.5 38.5h-27v40h27q62 0 103 42t41 119v3
q0 62 -28.5 95.5t-80.5 33.5q-50 0 -103 -29zM180 755v63h50v-63h-50zM76 755v63h50v-63h-50z" />
    <glyph glyph-name="uni04DF" unicode="&#x4df;" horiz-adv-x="289" 
d="M23 9v44q43 -22 87 -22q48 0 75.5 27.5t27.5 77.5v3q0 51 -29.5 79t-83.5 28h-35v39h35q50 0 80 29.5t30 81.5v2q0 45 -23 70.5t-66 25.5q-45 0 -90 -25v43q43 21 90 21q62 0 96.5 -36t34.5 -97v-3q0 -52 -28.5 -85t-64.5 -45q96 -27 96 -127v-5q0 -62 -38.5 -102.5
t-106.5 -40.5q-45 0 -87 17zM158 586v67h46v-67h-46zM58 586v67h46v-67h-46z" />
    <glyph glyph-name="uni04E2" unicode="&#x4e2;" horiz-adv-x="420" 
d="M364 0h-43v616l-215 -616h-50v700h43v-602l210 602h55v-700zM115 748v41h192v-41h-192z" />
    <glyph glyph-name="uni04E3" unicode="&#x4e3;" horiz-adv-x="373" 
d="M53 0v525h41v-434l179 434h47v-525h-41v444l-183 -444h-43zM96 584v39h180v-39h-180z" />
    <glyph glyph-name="uni04E4" unicode="&#x4e4;" horiz-adv-x="420" 
d="M364 0h-43v616l-215 -616h-50v700h43v-602l210 602h55v-700zM238 746v63h50v-63h-50zM134 746v63h50v-63h-50z" />
    <glyph glyph-name="uni04E5" unicode="&#x4e5;" horiz-adv-x="373" 
d="M53 0v525h41v-434l179 434h47v-525h-41v444l-183 -444h-43zM213 582v67h46v-67h-46zM113 582v67h46v-67h-46z" />
    <glyph glyph-name="uni04E6" unicode="&#x4e6;" horiz-adv-x="406" 
d="M203 -8q-74 0 -120 91t-46 259v16q0 168 46 259t120 91t120 -91t46 -259v-16q0 -168 -46 -259t-120 -91zM203 32q54 0 88 80.5t34 229.5v16q0 149 -34 229.5t-88 80.5t-88 -80.5t-34 -229.5v-16q0 -149 34 -229.5t88 -80.5zM231 755v63h50v-63h-50zM127 755v63h50v-63
h-50z" />
    <glyph glyph-name="uni04E7" unicode="&#x4e7;" horiz-adv-x="362" 
d="M181 -8q-62 0 -105.5 73.5t-43.5 192.5v9q0 119 44 192.5t106 73.5q61 0 104.5 -73.5t43.5 -192.5v-9q0 -119 -43.5 -192.5t-105.5 -73.5zM181 31q45 0 76 62.5t31 164.5v9q0 102 -31 164.5t-76 62.5t-76 -62.5t-31 -164.5v-9q0 -102 31 -164.5t76 -62.5zM209 586v67h46
v-67h-46zM109 586v67h46v-67h-46z" />
    <glyph glyph-name="uni04E8" unicode="&#x4e8;" horiz-adv-x="402" 
d="M201 -8q-73 0 -118.5 91t-45.5 259v16q0 168 45.5 259t118.5 91t118.5 -91t45.5 -259v-16q0 -168 -45.5 -259t-118.5 -91zM201 32q53 0 86 77.5t35 222.5h-242q1 -144 34.5 -222t86.5 -78zM201 668q-53 0 -86 -76.5t-35 -219.5h242q-2 141 -36 218.5t-85 77.5z" />
    <glyph glyph-name="uni04E9" unicode="&#x4e9;" horiz-adv-x="358" 
d="M179 -8q-61 0 -104 73.5t-43 192.5v9q0 119 43.5 192.5t104.5 73.5q62 0 104 -73t42 -193v-9q0 -119 -43 -192.5t-104 -73.5zM179 31q43 0 74 59t33 156h-214q2 -98 32 -156.5t75 -58.5zM179 494q-43 0 -74 -57.5t-33 -151.5h213q-4 95 -33.5 152t-72.5 57z" />
    <glyph glyph-name="uni04EE" unicode="&#x4ee;" horiz-adv-x="355" 
d="M148 0h-45l64 222l-152 478h45l129 -416l113 416h45zM89 748v41h192v-41h-192z" />
    <glyph glyph-name="uni04EF" unicode="&#x4ef;" horiz-adv-x="346" 
d="M173 77l104 448h42l-159 -655h-40v1l33 134l-127 520h43zM83 584v39h180v-39h-180z" />
    <glyph glyph-name="uni04F0" unicode="&#x4f0;" horiz-adv-x="355" 
d="M148 0h-45l64 222l-152 478h45l129 -416l113 416h45zM212 746v63h50v-63h-50zM108 746v63h50v-63h-50z" />
    <glyph glyph-name="uni04F1" unicode="&#x4f1;" horiz-adv-x="346" 
d="M173 77l104 448h42l-159 -655h-40v1l33 134l-127 520h43zM200 582v67h46v-67h-46zM100 582v67h46v-67h-46z" />
    <glyph glyph-name="uni04F2" unicode="&#x4f2;" horiz-adv-x="355" 
d="M148 0h-45l64 222l-152 478h45l129 -416l113 416h45zM118 736l62 104l45 -21l-76 -83h-31zM208 736l62 104l45 -21l-76 -83h-31z" />
    <glyph glyph-name="uni04F3" unicode="&#x4f3;" horiz-adv-x="346" 
d="M173 77l104 448h42l-159 -655h-40v1l33 134l-127 520h43zM198 572l64 125l43 -23l-78 -102h-29zM104 572l64 125l43 -23l-78 -102h-29z" />
    <glyph glyph-name="uni04F4" unicode="&#x4f4;" horiz-adv-x="392" 
d="M292 0v287q-53 -12 -96 -12q-78 0 -114 37t-36 116v272h44v-268q0 -63 24 -90t87 -27q43 0 91 12v373h44v-700h-44zM218 746v63h50v-63h-50zM114 746v63h50v-63h-50z" />
    <glyph glyph-name="uni04F5" unicode="&#x4f5;" horiz-adv-x="352" 
d="M257 0v212q-49 -9 -82 -9q-70 0 -101 32t-31 100v190h42v-187q0 -51 20.5 -73t72.5 -22q37 0 79 9v273h42v-525h-42zM199 582v67h46v-67h-46zM99 582v67h46v-67h-46z" />
    <glyph glyph-name="uni04F8" unicode="&#x4f8;" horiz-adv-x="517" 
d="M56 0v700h44v-262h43q93 0 147 -58.5t54 -157.5v-2q0 -100 -54 -160t-151 -60h-83zM100 40h43q75 0 116 47t41 132v2q0 84 -43 130.5t-116 46.5h-41v-358zM417 0v700h44v-700h-44zM285 746v63h50v-63h-50zM181 746v63h50v-63h-50z" />
    <glyph glyph-name="uni04F9" unicode="&#x4f9;" horiz-adv-x="466" 
d="M95 525v-177h18q90 0 140.5 -45.5t50.5 -125.5v-2q0 -81 -51 -128t-142 -47h-58v525h42zM95 309v-270h23q68 0 106.5 36t38.5 99v2q0 65 -39 99t-107 34h-22zM371 0v525h42v-525h-42zM261 582v67h46v-67h-46zM161 582v67h46v-67h-46z" />
    <glyph glyph-name="baht" unicode="&#xe3f;" horiz-adv-x="373" 
d="M159 -120h-37l12 120h-17h-61v700h84q32 0 56 -7l9 86h36l-10 -98q45 -21 70.5 -61.5t25.5 -94.5v-2q0 -133 -128 -168v-2q133 -33 133 -170v-2q0 -72 -42.5 -118t-117.5 -59zM100 373h21q32 0 49 4l24 275q-29 8 -56 8h-38v-287zM288 182v2q0 107 -91 138l-24 -277
q115 24 115 137zM100 40h18q16 0 23 1l25 289q-19 3 -41 3h-25v-293zM283 521v2q0 77 -59 114l-22 -250q81 35 81 134z" />
    <glyph glyph-name="Wgrave" unicode="&#x1e80;" horiz-adv-x="611" 
d="M151 -5l-121 705h47l95 -611l114 611h41l113 -611l96 611h45l-121 -705h-41l-113 611l-114 -611h-41zM323 740h-32l-78 82l48 22z" />
    <glyph glyph-name="wgrave" unicode="&#x1e81;" horiz-adv-x="533" 
d="M141 -3l-109 528h44l84 -455l89 455h38l87 -455l86 455h41l-109 -528h-38l-88 442l-87 -442h-38zM256 576l-82 100l47 25l64 -125h-29z" />
    <glyph glyph-name="Wacute" unicode="&#x1e82;" horiz-adv-x="611" 
d="M151 -5l-121 705h47l95 -611l114 611h41l113 -611l96 611h45l-121 -705h-41l-113 611l-114 -611h-41zM287 740l62 104l48 -22l-78 -82h-32z" />
    <glyph glyph-name="wacute" unicode="&#x1e83;" horiz-adv-x="533" 
d="M141 -3l-109 528h44l84 -455l89 455h38l87 -455l86 455h41l-109 -528h-38l-88 442l-87 -442h-38zM248 576l64 125l47 -25l-82 -100h-29z" />
    <glyph glyph-name="Wdieresis" unicode="&#x1e84;" horiz-adv-x="611" 
d="M151 -5l-121 705h47l95 -611l114 611h41l113 -611l96 611h45l-121 -705h-41l-113 611l-114 -611h-41zM332 750v63h50v-63h-50zM228 750v63h50v-63h-50z" />
    <glyph glyph-name="wdieresis" unicode="&#x1e85;" horiz-adv-x="533" 
d="M141 -3l-109 528h44l84 -455l89 455h38l87 -455l86 455h41l-109 -528h-38l-88 442l-87 -442h-38zM293 586v67h46v-67h-46zM193 586v67h46v-67h-46z" />
    <glyph glyph-name="Ygrave" unicode="&#x1ef2;" horiz-adv-x="352" 
d="M154 0v302l-146 398h48l121 -343l122 343h45l-146 -398v-302h-44zM195 736h-32l-78 82l48 22z" />
    <glyph glyph-name="ygrave" unicode="&#x1ef3;" horiz-adv-x="346" 
d="M173 77l104 448h42l-159 -655h-40v1l33 134l-127 520h43zM162 572l-82 100l47 25l64 -125h-29z" />
    <glyph glyph-name="enspace" unicode="&#x2002;" horiz-adv-x="500" 
 />
    <glyph glyph-name="emspace" unicode="&#x2003;" horiz-adv-x="1000" 
 />
    <glyph glyph-name="threeperemspace" unicode="&#x2004;" horiz-adv-x="333" 
 />
    <glyph glyph-name="fourperemspace" unicode="&#x2005;" horiz-adv-x="250" 
 />
    <glyph glyph-name="figurespace" unicode="&#x2007;" horiz-adv-x="360" 
 />
    <glyph glyph-name="thinspace" unicode="&#x2009;" horiz-adv-x="100" 
 />
    <glyph glyph-name="hairspace" unicode="&#x200a;" horiz-adv-x="50" 
 />
    <glyph glyph-name="endash" unicode="&#x2013;" horiz-adv-x="398" 
d="M40 276v40h318v-40h-318z" />
    <glyph glyph-name="emdash" unicode="&#x2014;" horiz-adv-x="578" 
d="M40 276v40h498v-40h-498z" />
    <glyph glyph-name="quoteleft" unicode="&#x2018;" horiz-adv-x="150" 
d="M42 513v74q0 46 16 70t58 44l12 -25q-29 -13 -41 -31t-10 -47h27v-85h-62z" />
    <glyph glyph-name="quoteright" unicode="&#x2019;" horiz-adv-x="150" 
d="M34 515l-12 25q29 13 41 31t10 47h-27v82h62v-71q0 -46 -16 -70t-58 -44z" />
    <glyph glyph-name="quotesinglbase" unicode="&#x201a;" horiz-adv-x="150" 
d="M32 -103l-12 25q29 13 41 31t10 47h-27v82h62v-71q0 -46 -16 -70t-58 -44z" />
    <glyph glyph-name="quotedblleft" unicode="&#x201c;" horiz-adv-x="280" 
d="M172 513v74q0 46 16 70t58 44l12 -25q-29 -13 -41 -31t-10 -47h27v-85h-62zM42 513v74q0 46 16 70t58 44l12 -25q-29 -13 -41 -31t-10 -47h27v-85h-62z" />
    <glyph glyph-name="quotedblright" unicode="&#x201d;" horiz-adv-x="280" 
d="M164 515l-12 25q29 13 41 31t10 47h-27v82h62v-71q0 -46 -16 -70t-58 -44zM34 515l-12 25q29 13 41 31t10 47h-27v82h62v-71q0 -46 -16 -70t-58 -44z" />
    <glyph glyph-name="quotedblbase" unicode="&#x201e;" horiz-adv-x="280" 
d="M162 -103l-12 25q29 13 41 31t10 47h-27v82h62v-71q0 -46 -16 -70t-58 -44zM32 -103l-12 25q29 13 41 31t10 47h-27v82h62v-71q0 -46 -16 -70t-58 -44z" />
    <glyph glyph-name="dagger" unicode="&#x2020;" horiz-adv-x="231" 
d="M95 238l8 290l-85 -10v43l85 -10l-11 149h48l-11 -149l84 10v-43l-84 10l8 -290h-42z" />
    <glyph glyph-name="daggerdbl" unicode="&#x2021;" horiz-adv-x="241" 
d="M96 0l12 149l-85 -10v43l85 -10l-10 178l10 178l-85 -10v43l85 -10l-11 149h48l-11 -149l84 10v-43l-84 10l10 -178l-10 -178l84 10v-43l-84 10l10 -149h-48z" />
    <glyph glyph-name="bullet" unicode="&#x2022;" horiz-adv-x="311" 
d="M156 244q-37 0 -59 26.5t-22 77.5v12q0 51 22 77.5t59 26.5t59 -26.5t22 -77.5v-12q0 -51 -22 -77.5t-59 -26.5z" />
    <glyph glyph-name="ellipsis" unicode="&#x2026;" horiz-adv-x="472" 
d="M364 0v85h64v-85h-64zM204 0v85h64v-85h-64zM44 0v85h64v-85h-64z" />
    <glyph glyph-name="perthousand" unicode="&#x2030;" horiz-adv-x="753" 
d="M130 411q30 0 48 33.5t18 90.5v8q0 57 -18 90.5t-48 33.5t-48 -33.5t-18 -90.5v-8q0 -57 18 -90.5t48 -33.5zM130 373q-43 0 -73 43.5t-30 118.5v8q0 75 30 118.5t73 43.5t73 -43.5t30 -118.5v-8q0 -75 -30 -118.5t-73 -43.5zM425 700l-160 -357l-153 -343h-37l160 357
l153 343h37zM370 33q30 0 48 33.5t18 90.5v8q0 57 -18 90.5t-48 33.5t-48 -33.5t-18 -90.5v-8q0 -57 18 -90.5t48 -33.5zM370 -5q-43 0 -73 43.5t-30 118.5v8q0 75 30 118.5t73 43.5t73 -43.5t30 -118.5v-8q0 -75 -30 -118.5t-73 -43.5zM623 33q30 0 48 33.5t18 90.5v8
q0 57 -18 90.5t-48 33.5t-48 -33.5t-18 -90.5v-8q0 -57 18 -90.5t48 -33.5zM623 -5q-43 0 -73 43.5t-30 118.5v8q0 75 30 118.5t73 43.5t73 -43.5t30 -118.5v-8q0 -75 -30 -118.5t-73 -43.5z" />
    <glyph glyph-name="guilsinglleft" unicode="&#x2039;" horiz-adv-x="217" 
d="M153 43l-121 208v8l121 208l30 -16l-106 -195l106 -197z" />
    <glyph glyph-name="guilsinglright" unicode="&#x203a;" horiz-adv-x="217" 
d="M64 43l-30 16l106 195l-106 197l30 16l121 -208v-8z" />
    <glyph glyph-name="fraction" unicode="&#x2044;" horiz-adv-x="60" 
d="M-129 0l145 358l138 343h35l-145 -358l-139 -343h-34z" />
    <glyph glyph-name="zero.sup" unicode="&#x2070;" 
d="M120 462q-94 0 -94 173v7q0 174 94 174t94 -173v-7q0 -174 -94 -174zM120 783q-58 0 -58 -140v-7q0 -141 58 -141t58 140v7q0 141 -58 141z" />
    <glyph glyph-name="four.sup" unicode="&#x2074;" 
d="M187 538v-72h-32v72h-135v25l127 251h40v-246h35v-30h-35zM155 568v190h-4l-94 -190h98z" />
    <glyph glyph-name="five.sup" unicode="&#x2075;" 
d="M105 462q-42 0 -70 21v39q31 -27 70 -27q66 0 66 78q0 37 -17.5 55t-46.5 18q-27 0 -47 -12l-24 11l11 167h145v-34h-114l-9 -106q18 7 41 7q44 0 71 -27t27 -78t-28 -81.5t-75 -30.5z" />
    <glyph glyph-name="six.sup" unicode="&#x2076;" 
d="M121 462q-35 0 -57 22q-35 38 -35 128v14q0 190 113 190q27 0 48 -12v-37q-22 15 -48 15q-69 0 -77 -121q29 25 63 25q38 0 62 -27.5t24 -81.5q0 -52 -26 -83.5t-67 -31.5zM122 495q27 0 42 22t15 61q0 37 -15.5 56t-40.5 19q-34 0 -58 -27v-20q0 -111 57 -111z" />
    <glyph glyph-name="seven.sup" unicode="&#x2077;" 
d="M89 466h-36l120 312h-143v34h179v-29z" />
    <glyph glyph-name="eight.sup" unicode="&#x2078;" 
d="M120 462q-42 0 -67.5 25.5t-25.5 70.5q0 63 53 87q-45 25 -45 80q0 43 24 67t61 24t61 -24t24 -67q0 -55 -45 -80q53 -24 53 -86q0 -45 -25.5 -71t-67.5 -26zM120 784q-23 0 -37 -16.5t-14 -42.5q0 -28 14 -46.5t37 -18.5t37 18.5t14 46.5q0 26 -14 42.5t-37 16.5z
M120 628q-26 0 -42.5 -19.5t-16.5 -49.5q0 -28 16 -46.5t43 -18.5t43 18.5t16 46.5q0 30 -16.5 49.5t-42.5 19.5z" />
    <glyph glyph-name="nine.sup" unicode="&#x2079;" 
d="M122 816q35 0 57 -22q35 -38 35 -128v-14q0 -98 -30.5 -144t-82.5 -46q-29 0 -55 14v36q27 -16 55 -16q69 0 77 116q-29 -25 -63 -25q-38 0 -62 28t-24 83q0 54 25.5 86t67.5 32zM120 620q34 0 58 27v25q0 111 -57 111q-27 0 -42 -23t-15 -63q0 -77 56 -77z" />
    <glyph glyph-name="zero.inf" unicode="&#x2080;" 
d="M120 -135q-94 0 -94 173v7q0 174 94 174t94 -173v-7q0 -174 -94 -174zM120 186q-58 0 -58 -140v-7q0 -141 58 -141t58 140v7q0 141 -58 141z" />
    <glyph glyph-name="one.inf" unicode="&#x2081;" horiz-adv-x="195" 
d="M124 -131h-35v304l-67 -37v36l70 43h32v-346z" />
    <glyph glyph-name="two.inf" unicode="&#x2082;" 
d="M24 -131v22l114 161q33 49 33 81q0 25 -16 38.5t-39 13.5q-41 0 -80 -43v41q36 36 83 36q38 0 63 -23t25 -62q0 -43 -40 -99l-92 -132h136v-34h-187z" />
    <glyph glyph-name="three.inf" unicode="&#x2083;" 
d="M101 -135q-40 0 -70 24v39q30 -30 72 -30q29 0 49 16.5t20 50.5q0 66 -102 70h-1v24l91 122h-129v34h175v-25l-95 -126q97 -14 97 -98q0 -47 -30.5 -74t-76.5 -27z" />
    <glyph glyph-name="four.inf" unicode="&#x2084;" 
d="M187 -59v-72h-32v72h-135v25l127 251h40v-246h35v-30h-35zM155 -29v190h-4l-94 -190h98z" />
    <glyph glyph-name="five.inf" unicode="&#x2085;" 
d="M105 -135q-42 0 -70 21v39q31 -27 70 -27q66 0 66 78q0 38 -17.5 55.5t-46.5 17.5q-27 0 -47 -12l-24 11l11 167h145v-34h-114l-9 -106q18 7 41 7q44 0 71 -27t27 -78t-28 -81.5t-75 -30.5z" />
    <glyph glyph-name="six.inf" unicode="&#x2086;" 
d="M121 -135q-35 0 -57 22q-35 38 -35 128v14q0 190 113 190q27 0 48 -12v-37q-22 15 -48 15q-69 0 -77 -121q29 25 63 25q38 0 62 -27.5t24 -81.5q0 -52 -26 -83.5t-67 -31.5zM122 -102q27 0 42 22t15 61q0 37 -15.5 56t-40.5 19q-34 0 -58 -27v-20q0 -111 57 -111z" />
    <glyph glyph-name="seven.inf" unicode="&#x2087;" 
d="M89 -131h-36l120 312h-143v34h179v-29z" />
    <glyph glyph-name="eight.inf" unicode="&#x2088;" 
d="M120 -135q-42 0 -67.5 25.5t-25.5 70.5q0 63 53 87q-45 25 -45 80q0 43 24 67t61 24t61 -24t24 -67q0 -55 -45 -80q53 -24 53 -86q0 -45 -25.5 -71t-67.5 -26zM120 187q-23 0 -37 -16.5t-14 -42.5q0 -28 14 -46.5t37 -18.5t37 18.5t14 46.5q0 26 -14 42.5t-37 16.5z
M120 31q-26 0 -42.5 -19.5t-16.5 -49.5q0 -28 16 -46.5t43 -18.5t43 18.5t16 46.5q0 30 -16.5 49.5t-42.5 19.5z" />
    <glyph glyph-name="nine.inf" unicode="&#x2089;" 
d="M122 219q35 0 57 -22q35 -38 35 -128v-14q0 -98 -30.5 -144t-82.5 -46q-29 0 -55 14v36q27 -16 55 -16q69 0 77 116q-29 -25 -63 -25q-38 0 -62 28t-24 83q0 54 25.5 86t67.5 32zM120 23q34 0 58 27v25q0 111 -57 111q-27 0 -42 -23t-15 -63q0 -77 56 -77z" />
    <glyph glyph-name="colonmonetary" unicode="&#x20a1;" horiz-adv-x="359" 
d="M283 779h36l-9 -87q15 -7 28 -17v-48q-24 16 -36 23l-64 -612q3 -1 14 -1q43 0 89 38v-47q-46 -32 -94 -32q-2 0 -5.5 0.5t-4.5 0.5l-13 -115h-36l13 121q-24 9 -51 29l-16 -150h-36l20 185q-67 93 -67 274v18q0 131 35.5 214.5t97.5 113.5l9 92h36l-8 -79q15 4 33 4
q7 0 21 -2zM213 656l-59 -565q25 -34 56 -46l64 615q-11 3 -22 3q-18 0 -39 -7zM93 359v-18q0 -129 36 -209l53 506q-89 -70 -89 -279z" />
    <glyph glyph-name="naira" unicode="&#x20a6;" horiz-adv-x="480" 
d="M464 242h-70v-242h-65l-72 242h-129v-242h-42v242h-70v35h70v150h-70v35h70v238h69l71 -238h126v238h42v-238h70v-35h-70v-150h70v-35zM128 427v-150h115l-46 150h-69zM239 427l46 -150h67v150h-113zM128 650v-190h59zM352 60v184h-57z" />
    <glyph glyph-name="rupee" unicode="&#x20a8;" horiz-adv-x="586" 
d="M46 0v700h69q85 0 136 -55.5t51 -153.5v-2q0 -151 -108 -200l119 -289h-49l-113 278q-14 -2 -30 -2h-33v-276h-42zM88 313h37q63 0 99 46t36 129v2q0 85 -39.5 128.5t-107.5 43.5h-25v-349zM443 -6q-49 0 -101 25v42q55 -30 103 -30q33 0 55 22t22 58v2q0 54 -80 134
q-57 57 -78 92.5t-21 74.5v2q0 53 34 84t81 31q46 0 84 -17v-42q-43 22 -86 22q-33 0 -52.5 -20.5t-19.5 -55.5v-2q0 -28 17.5 -56.5t62.5 -73.5q54 -54 76.5 -92t22.5 -79v-2q0 -54 -35.5 -86.5t-84.5 -32.5z" />
    <glyph glyph-name="won" unicode="&#x20a9;" horiz-adv-x="619" 
d="M561 700l-30 -237h82v-35h-87l-19 -152h106v-35h-110l-31 -244h-53l-41 244h-138l-40 -244h-53l-31 244h-110v35h105l-19 152h-86v35h82l-30 237h45l25 -237h116l38 237h57l38 -237h114l27 237h43zM272 428l-25 -152h124l-24 152h-75zM131 428l17 -152h64l25 152h-106z
M383 428l25 -152h64l16 152h-105zM309 651l-31 -188h64l-30 188h-3zM173 49h3l31 192h-55zM444 49h3l21 192h-55z" />
    <glyph glyph-name="sheqel" unicode="&#x20aa;" horiz-adv-x="397" 
d="M146 139l-19 210h39l19 -199q6 -61 21 -87t55 -26h53v473h40v-510h-100q-53 0 -77.5 32t-30.5 107zM222 171v187q0 63 -16 89t-54 26h-69v-473h-40v510h116q52 0 77 -35.5t25 -114.5v-189h-39z" />
    <glyph glyph-name="Euro" unicode="&#x20ac;" horiz-adv-x="359" 
d="M322 687v-48q-41 23 -68 23q-51 0 -88.5 -55t-49.5 -155h159v-35h-162q-2 -13 -2 -58v-18q0 -36 1 -53h163v-35h-159q12 -103 50 -159.5t88 -55.5q36 0 71 25v-47q-35 -20 -78 -20q-65 0 -113.5 66.5t-62.5 190.5h-60v35h57q-1 16 -1 53v18q0 45 2 58h-58v35h61
q14 120 64.5 186t117.5 66q36 0 68 -17z" />
    <glyph glyph-name="peso" unicode="&#x20b1;" horiz-adv-x="431" 
d="M73 0v461h-70v35h70v204h77q90 0 143.5 -55t57.5 -149h70v-35h-71q-4 -94 -58 -152t-146 -58h-29v-251h-44zM117 290h33q71 0 111.5 46t44.5 126h-189v-172zM117 660v-165h189q-4 78 -46 121.5t-112 43.5h-31z" />
    <glyph glyph-name="hryvnia" unicode="&#x20b4;" horiz-adv-x="332" 
d="M32 425l4 35l158 -26q56 83 56 139v2q0 42 -23 66.5t-64 24.5q-50 0 -105 -38v49q54 31 108 31q59 0 93.5 -36t34.5 -96v-2q0 -63 -54 -148l80 -13l-4 -34l-97 15l-4 -5v-1l-49 -69v-1q-2 -2 -2 -3l141 -23l-4 -34l-159 25q-57 -84 -57 -147v-1q0 -48 24.5 -74.5
t70.5 -26.5q51 0 118 44v-49q-61 -37 -121 -37q-63 0 -99.5 37.5t-36.5 104.5v2q0 67 55 155l-79 13l4 35l96 -16l9 12v1l47 66z" />
    <glyph glyph-name="numero" unicode="&#x2116;" horiz-adv-x="617" 
d="M56 0v700h53l171 -591v591h41v-700h-49l-175 605v-605h-41zM484 284q-46 0 -73.5 53.5t-27.5 153.5v7q0 100 27.5 153.5t73.5 53.5t73.5 -53.5t27.5 -153.5v-7q0 -100 -27.5 -153.5t-73.5 -53.5zM484 322q29 0 45 45t16 124v7q0 79 -16 124t-45 45t-45 -45t-16 -124v-7
q0 -79 16 -124t45 -45zM385 177v39h198v-39h-198z" />
    <glyph glyph-name="published" unicode="&#x2117;" horiz-adv-x="523" 
d="M261 -10q-106 0 -171.5 99t-65.5 244v35q0 146 65.5 244.5t171.5 98.5t172 -99t66 -244v-35q0 -145 -66 -244t-172 -99zM261 15q97 0 154.5 92t57.5 226v35q0 134 -57.5 226t-154.5 92q-96 0 -153.5 -92t-57.5 -226v-35q0 -134 57.5 -226t153.5 -92zM194 164v385h55
q49 0 80 -32t31 -90v-2q0 -58 -30.5 -91t-80.5 -34h-21v-136h-34zM228 334h23q74 2 74 90v1q0 44 -20 67t-55 23h-22v-181z" />
    <glyph glyph-name="servicemark" unicode="&#x2120;" horiz-adv-x="415" 
d="M203 385v315h40l48 -154l48 154h39v-315h-30v257l-55 -174h-4l-56 174v-257h-30zM92 382q-32 0 -59 15v35q31 -21 58 -21q39 0 39 41q0 29 -41 77q-33 40 -44.5 59.5t-11.5 42.5q0 32 20 52t50 20q27 0 49 -13v-35q-29 19 -49 19q-17 0 -27.5 -11.5t-10.5 -29.5
q0 -15 8.5 -29.5t33.5 -43.5q31 -37 43 -59.5t12 -47.5q0 -32 -20 -51.5t-50 -19.5z" />
    <glyph glyph-name="trademark" unicode="&#x2122;" horiz-adv-x="389" 
d="M177 385v315h40l48 -154l48 154h39v-315h-30v257l-55 -174h-4l-56 174v-257h-30zM54 385v286h-50v29h132v-29h-51v-286h-31z" />
    <glyph glyph-name="Omega" unicode="&#x2126;" horiz-adv-x="420" 
d="M210 708q78 0 123 -70.5t45 -208.5v-4q0 -194 -103 -385l108 1v-41h-148v37q99 190 99 388v4q0 239 -124 239t-124 -239v-4q0 -198 99 -388v-37h-148v41l107 -1q-102 189 -102 385v4q0 138 45 208.5t123 70.5z" />
    <glyph glyph-name="onethird" unicode="&#x2153;" horiz-adv-x="495" 
d="M365 -4q-40 0 -70 24v39q30 -30 72 -30q29 0 49 16.5t20 50.5q0 66 -102 70h-1v24l91 122h-129v34h175v-25l-95 -126q97 -14 97 -98q0 -47 -30.5 -74t-76.5 -27zM126 354h-35v304l-67 -37v36l70 43h32v-346zM52 0l145 358l138 343h35l-145 -358l-139 -343h-34z" />
    <glyph glyph-name="twothirds" unicode="&#x2154;" horiz-adv-x="540" 
d="M415 -4q-40 0 -70 24v39q30 -30 72 -30q29 0 49 16.5t20 50.5q0 66 -102 70h-1v24l91 122h-129v34h175v-25l-95 -126q97 -14 97 -98q0 -47 -30.5 -74t-76.5 -27zM21 354v22l114 161q33 49 33 81q0 25 -16 38.5t-39 13.5q-41 0 -80 -43v41q36 36 83 36q38 0 63 -23t25 -62
q0 -43 -40 -99l-92 -132h136v-34h-187zM113 0l145 358l138 343h35l-145 -358l-139 -343h-34z" />
    <glyph glyph-name="onefifth" unicode="&#x2155;" horiz-adv-x="495" 
d="M359 -4q-42 0 -70 21v39q31 -27 70 -27q66 0 66 78q0 37 -17.5 55t-46.5 18q-27 0 -47 -12l-24 11l11 167h145v-34h-114l-9 -106q18 7 41 7q44 0 71 -27t27 -78t-28 -81.5t-75 -30.5zM127 354h-35v304l-67 -37v36l70 43h32v-346zM53 0l145 358l138 343h35l-145 -358
l-139 -343h-34z" />
    <glyph glyph-name="twofifths" unicode="&#x2156;" horiz-adv-x="540" 
d="M424 -4q-42 0 -70 21v39q31 -27 70 -27q66 0 66 78q0 37 -18 55t-46 18t-47 -12l-24 11l11 167h145v-34h-114l-9 -106q18 7 41 7q44 0 71 -27t27 -78t-28 -81.5t-75 -30.5zM118 0l145 358l138 343h35l-145 -358l-139 -343h-34zM21 354v22l114 161q33 49 33 81
q0 25 -16 38.5t-39 13.5q-41 0 -80 -43v41q36 36 83 36q38 0 63 -23t25 -62q0 -43 -40 -99l-92 -132h136v-34h-187z" />
    <glyph glyph-name="threefifths" unicode="&#x2157;" horiz-adv-x="540" 
d="M424 -4q-42 0 -70 21v39q31 -27 70 -27q66 0 66 78q0 37 -18 55t-46 18t-47 -12l-24 11l11 167h145v-34h-114l-9 -106q18 7 41 7q44 0 71 -27t27 -78t-28 -81.5t-75 -30.5zM110 0l145 358l138 343h35l-145 -358l-139 -343h-34zM92 350q-40 0 -70 24v39q30 -30 72 -30
q29 0 49 16.5t20 50.5q0 66 -102 70h-1v24l91 122h-129v34h175v-25l-95 -126q97 -14 97 -98q0 -47 -30.5 -74t-76.5 -27z" />
    <glyph glyph-name="fourfifths" unicode="&#x2158;" horiz-adv-x="540" 
d="M179 426v-72h-32v72h-135v25l127 251h40v-246h35v-30h-35zM147 456v190h-4l-94 -190h98zM424 -4q-42 0 -70 21v39q31 -27 70 -27q66 0 66 78q0 37 -18 55t-46 18t-47 -12l-24 11l11 167h145v-34h-114l-9 -106q18 7 41 7q44 0 71 -27t27 -78t-28 -81.5t-75 -30.5zM112 0
l145 358l138 343h35l-145 -358l-139 -343h-34z" />
    <glyph glyph-name="onesixth" unicode="&#x2159;" horiz-adv-x="495" 
d="M366 -4q-35 0 -57 22q-35 38 -35 128v14q0 190 113 190q27 0 48 -12v-37q-22 15 -48 15q-69 0 -77 -121q29 25 63 25q38 0 62 -27.5t24 -81.5q0 -52 -26 -83.5t-67 -31.5zM367 29q27 0 42 22t15 61q0 37 -15.5 56t-40.5 19q-34 0 -58 -27v-20q0 -111 57 -111zM127 354
h-35v304l-67 -37v36l70 43h32v-346zM58 0l145 358l138 343h35l-145 -358l-139 -343h-34z" />
    <glyph glyph-name="fivesixths" unicode="&#x215a;" horiz-adv-x="540" 
d="M430 -4q-35 0 -57 22q-35 38 -35 128v14q0 190 113 190q27 0 48 -12v-37q-22 15 -48 15q-69 0 -77 -121q29 25 63 25q38 0 62 -27.5t24 -81.5q0 -52 -26 -83.5t-67 -31.5zM431 29q27 0 42 22t15 61q0 37 -15.5 56t-40.5 19q-34 0 -58 -27v-20q0 -111 57 -111zM110 0
l145 358l138 343h35l-145 -358l-139 -343h-34zM101 350q-42 0 -70 21v39q31 -27 70 -27q66 0 66 78q0 37 -17.5 55t-46.5 18q-27 0 -47 -12l-24 11l11 167h145v-34h-114l-9 -106q18 7 41 7q44 0 71 -27t27 -78t-28 -81.5t-75 -30.5z" />
    <glyph glyph-name="oneeighth" unicode="&#x215b;" horiz-adv-x="495" 
d="M365 -4q-42 0 -67.5 25.5t-25.5 70.5q0 63 53 87q-45 25 -45 80q0 43 24 67t61 24t61 -24t24 -67q0 -55 -45 -80q53 -24 53 -86q0 -45 -25.5 -71t-67.5 -26zM365 318q-23 0 -37 -16.5t-14 -42.5q0 -28 14 -46.5t37 -18.5t37 18.5t14 46.5q0 26 -14 42.5t-37 16.5z
M365 162q-26 0 -42.5 -19.5t-16.5 -49.5q0 -28 16 -46.5t43 -18.5t43 18.5t16 46.5q0 30 -16.5 49.5t-42.5 19.5zM127 354h-35v304l-67 -37v36l70 43h32v-346zM58 0l145 358l138 343h35l-145 -358l-139 -343h-34z" />
    <glyph glyph-name="threeeighths" unicode="&#x215c;" horiz-adv-x="540" 
d="M429 -4q-42 0 -67.5 25.5t-25.5 70.5q0 63 53 87q-45 25 -45 80q0 43 24 67t61 24t61 -24t24 -67q0 -55 -45 -80q53 -24 53 -86q0 -45 -25.5 -71t-67.5 -26zM429 318q-23 0 -37 -16.5t-14 -42.5q0 -28 14 -46.5t37 -18.5t37 18.5t14 46.5q0 26 -14 42.5t-37 16.5z
M429 162q-26 0 -42.5 -19.5t-16.5 -49.5q0 -28 16 -46.5t43 -18.5t43 18.5t16 46.5q0 30 -16.5 49.5t-42.5 19.5zM110 0l145 358l138 343h35l-145 -358l-139 -343h-34zM98 350q-40 0 -70 24v39q30 -30 72 -30q29 0 49 16.5t20 50.5q0 66 -102 70h-1v24l91 122h-129v34h175
v-25l-95 -126q97 -14 97 -98q0 -47 -30.5 -74t-76.5 -27z" />
    <glyph glyph-name="fiveeighths" unicode="&#x215d;" horiz-adv-x="540" 
d="M429 -4q-42 0 -67.5 25.5t-25.5 70.5q0 63 53 87q-45 25 -45 80q0 43 24 67t61 24t61 -24t24 -67q0 -55 -45 -80q53 -24 53 -86q0 -45 -25.5 -71t-67.5 -26zM429 318q-23 0 -37 -16.5t-14 -42.5q0 -28 14 -46.5t37 -18.5t37 18.5t14 46.5q0 26 -14 42.5t-37 16.5z
M429 162q-26 0 -42.5 -19.5t-16.5 -49.5q0 -28 16 -46.5t43 -18.5t43 18.5t16 46.5q0 30 -16.5 49.5t-42.5 19.5zM110 0l145 358l138 343h35l-145 -358l-139 -343h-34zM101 350q-42 0 -70 21v39q31 -27 70 -27q66 0 66 78q0 37 -17.5 55t-46.5 18q-27 0 -47 -12l-24 11
l11 167h145v-34h-114l-9 -106q18 7 41 7q44 0 71 -27t27 -78t-28 -81.5t-75 -30.5z" />
    <glyph glyph-name="seveneighths" unicode="&#x215e;" horiz-adv-x="540" 
d="M410 -4q-42 0 -67.5 25.5t-25.5 70.5q0 63 53 87q-45 25 -45 80q0 43 24 67t61 24t61 -24t24 -67q0 -55 -45 -80q53 -24 53 -86q0 -45 -25.5 -71t-67.5 -26zM410 318q-23 0 -37 -16.5t-14 -42.5q0 -28 14 -46.5t37 -18.5t37 18.5t14 46.5q0 26 -14 42.5t-37 16.5z
M410 162q-26 0 -42.5 -19.5t-16.5 -49.5q0 -28 16 -46.5t43 -18.5t43 18.5t16 46.5q0 30 -16.5 49.5t-42.5 19.5zM89 354h-36l120 312h-143v34h179v-29zM75 0l145 358l138 343h35l-145 -358l-139 -343h-34z" />
    <glyph glyph-name="Delta" unicode="&#x2206;" horiz-adv-x="408" 
d="M33 0l-5 29l151 674h50l151 -674l-5 -29h-342zM74 41h258l-129 599z" />
    <glyph glyph-name="minus" unicode="&#x2212;" horiz-adv-x="340" 
d="M311 330h-282v44h282v-44z" />
    <glyph glyph-name="NUL" horiz-adv-x="0" 
 />
    <glyph glyph-name="CR" horiz-adv-x="165" 
 />
    <glyph glyph-name="Q.alt" horiz-adv-x="406" 
d="M330 -97l-74 103q-26 -14 -53 -14q-74 0 -120 91t-46 259v16q0 168 46 259t120 91t120 -91t46 -259v-16q0 -223 -81 -311l92 -128h-50zM203 32q54 0 88 80.5t34 229.5v16q0 149 -34 229.5t-88 80.5t-88 -80.5t-34 -229.5v-16q0 -149 34 -229.5t88 -80.5z" />
    <glyph glyph-name="a.alt" horiz-adv-x="376" 
d="M171 -8q-57 0 -97 70t-40 191v19q0 120 40 190.5t97 70.5q72 0 110 -109v101h42v-525h-42v101q-38 -109 -110 -109zM176 29q42 0 74.5 60.5t32.5 160.5v25q0 100 -32.5 160.5t-74.5 60.5q-43 0 -71.5 -60t-28.5 -165v-17q0 -105 28.5 -165t71.5 -60z" />
    <glyph glyph-name="uni039E.alt" horiz-adv-x="369" 
d="M341 40v-40h-313v40h135v293h-119v40h119v287h-133v40h309v-40h-133v-287h119v-40h-119v-293h135z" />
    <glyph glyph-name="uni0424.bgr" horiz-adv-x="562" 
d="M259 -92v85q-105 8 -164.5 101.5t-59.5 251.5v7q0 159 59 252t165 102v84h44v-84q105 -10 164.5 -103t59.5 -250v-7q0 -158 -59.5 -252t-164.5 -102v-85h-44zM483 347v7q0 140 -47.5 222t-132.5 91v-634q85 8 132.5 91t47.5 223zM79 353v-7q0 -140 47 -222.5t133 -90.5
v634q-86 -9 -133 -91t-47 -223z" />
    <glyph glyph-name="uni0432.bgr" horiz-adv-x="368" 
d="M188 -7q-140 0 -140 192v355q0 78 38 123.5t104 45.5q62 0 101 -46t39 -120v-5q0 -71 -33.5 -118.5t-80.5 -65.5q122 -38 122 -176v-3q0 -82 -40 -132t-110 -50zM188 31q53 0 80.5 38.5t27.5 105.5v2q0 71 -39 114t-110 43h-59v-147q0 -156 100 -156zM88 540v-173h56
q69 0 106.5 48.5t37.5 121.5v3q0 60 -27 95t-72 35q-48 0 -74.5 -35t-26.5 -95z" />
    <glyph glyph-name="uni0433.bgr" horiz-adv-x="288" 
d="M147 -6q-55 0 -88.5 29.5t-33.5 84.5v2q0 42 24 80t83 93q53 52 71 78.5t18 57.5v2q0 34 -21.5 52.5t-57.5 18.5q-46 0 -89 -22v43q43 18 90 18q55 0 87.5 -28.5t32.5 -81.5v-2q0 -41 -22.5 -74t-82.5 -92q-54 -52 -72.5 -80.5t-18.5 -60.5v-2q0 -37 22 -57t60 -20
q52 0 107 30v-43q-57 -26 -109 -26z" />
    <glyph glyph-name="uni0434.bgr" horiz-adv-x="376" 
d="M171 -132q-57 0 -115 21v43q65 -25 117 -25q108 0 108 106v124q-38 -109 -110 -109q-56 0 -96.5 66.5t-40.5 181.5v9q0 114 40.5 181t96.5 67q72 0 110 -109v101h42v-510q0 -71 -37 -108q-39 -39 -115 -39zM176 65q41 0 74 58t33 153v9q0 95 -33 153t-74 58t-70.5 -57
t-29.5 -155v-7q0 -98 29.5 -155t70.5 -57z" />
    <glyph glyph-name="uni0436.bgr" horiz-adv-x="518" 
d="M280 707v-424h56l104 242h46l-116 -261l126 -264h-46l-114 244h-56v-244h-42v244h-56l-115 -244h-45l126 261l-116 264h47l103 -242h56v424h42z" />
    <glyph glyph-name="uni0438.bgr" horiz-adv-x="372" 
d="M169 -8q-55 0 -87.5 43t-32.5 123v367h42v-363q0 -134 86 -134q43 0 71.5 39.5t28.5 102.5v355h42v-525h-42v77q-37 -85 -108 -85z" />
    <glyph glyph-name="uni0439.bgr" horiz-adv-x="372" 
d="M169 -8q-55 0 -87.5 43t-32.5 123v367h42v-363q0 -134 86 -134q43 0 71.5 39.5t28.5 102.5v355h42v-525h-42v77q-37 -85 -108 -85zM185 575q-83 0 -93 94h36q10 -55 57 -55t57 55h36q-10 -94 -93 -94z" />
    <glyph glyph-name="uni043A.bgr" horiz-adv-x="336" 
d="M316 0h-47l-118 244h-56v-244h-42v707h42v-424h56l107 242h47l-119 -261z" />
    <glyph glyph-name="uni043F.bgr" horiz-adv-x="372" 
d="M53 0v525h42v-77q37 85 108 85q55 0 87.5 -43.5t32.5 -122.5v-367h-42v363q0 134 -86 134q-43 0 -71.5 -39.5t-28.5 -102.5v-355h-42z" />
    <glyph glyph-name="uni0442.bgr" horiz-adv-x="588" 
d="M53 0v525h42v-77q37 85 105 85q74 0 103 -89q39 89 116 89q55 0 87.5 -42.5t32.5 -121.5v-369h-42v365q0 132 -83 132q-42 0 -69.5 -38.5t-27.5 -101.5v-357h-42v365q0 132 -83 132q-42 0 -69.5 -38.5t-27.5 -101.5v-357h-42z" />
    <glyph glyph-name="uni0446.bgr" horiz-adv-x="378" 
d="M327 -104v104h-50v77q-37 -85 -108 -85q-55 0 -87.5 43t-32.5 123v367h42v-363q0 -134 86 -134q43 0 71.5 39.5t28.5 102.5v355h42v-486h47v-143h-39z" />
    <glyph glyph-name="uni0448.bgr" horiz-adv-x="588" 
d="M535 525v-525h-42v77q-37 -85 -105 -85q-74 0 -103 89q-39 -89 -116 -89q-55 0 -87.5 42.5t-32.5 121.5v369h42v-365q0 -132 83 -132q42 0 69.5 38.5t27.5 101.5v357h42v-365q0 -132 83 -132q42 0 69.5 38.5t27.5 101.5v357h42z" />
    <glyph glyph-name="uni0449.bgr" horiz-adv-x="594" 
d="M535 525v-486h47v-143h-39v104h-50v77q-37 -85 -105 -85q-74 0 -103 89q-39 -89 -116 -89q-55 0 -87.5 42.5t-32.5 121.5v369h42v-365q0 -132 83 -132q42 0 69.5 38.5t27.5 101.5v357h42v-365q0 -132 83 -132q42 0 69.5 38.5t27.5 101.5v357h42z" />
    <glyph glyph-name="uni044E.bgr" horiz-adv-x="500" 
d="M95 246v-246h-42v707h42v-422h80q4 112 46.5 180t100.5 68q60 0 103 -73.5t43 -192.5v-9q0 -119 -43.5 -192.5t-103.5 -73.5q-58 0 -101 70t-45 184h-80zM321 31q45 0 75 62.5t30 164.5v9q0 102 -30 164.5t-75 62.5q-44 0 -74 -62.5t-30 -164.5v-9q0 -102 30 -164.5
t74 -62.5z" />
    <glyph glyph-name="aacute.alt" horiz-adv-x="376" 
d="M171 -8q-57 0 -97 70t-40 191v19q0 120 40 190.5t97 70.5q72 0 110 -109v101h42v-525h-42v101q-38 -109 -110 -109zM176 29q42 0 74.5 60.5t32.5 160.5v25q0 100 -32.5 160.5t-74.5 60.5q-43 0 -71.5 -60t-28.5 -165v-17q0 -105 28.5 -165t71.5 -60zM176 576l64 125
l47 -25l-82 -100h-29z" />
    <glyph glyph-name="abreve.alt" horiz-adv-x="376" 
d="M171 -8q-57 0 -97 70t-40 191v19q0 120 40 190.5t97 70.5q72 0 110 -109v101h42v-525h-42v101q-38 -109 -110 -109zM176 29q42 0 74.5 60.5t32.5 160.5v25q0 100 -32.5 160.5t-74.5 60.5q-43 0 -71.5 -60t-28.5 -165v-17q0 -105 28.5 -165t71.5 -60zM194 579
q-83 0 -93 94h36q10 -55 57 -55t57 55h36q-10 -94 -93 -94z" />
    <glyph glyph-name="acircumflex.alt" horiz-adv-x="376" 
d="M171 -8q-57 0 -97 70t-40 191v19q0 120 40 190.5t97 70.5q72 0 110 -109v101h42v-525h-42v101q-38 -109 -110 -109zM176 29q42 0 74.5 60.5t32.5 160.5v25q0 100 -32.5 160.5t-74.5 60.5q-43 0 -71.5 -60t-28.5 -165v-17q0 -105 28.5 -165t71.5 -60zM110 581l67 122h34
l67 -122h-37l-48 75l-48 -75h-35z" />
    <glyph glyph-name="adieresis.alt" horiz-adv-x="376" 
d="M171 -8q-57 0 -97 70t-40 191v19q0 120 40 190.5t97 70.5q72 0 110 -109v101h42v-525h-42v101q-38 -109 -110 -109zM176 29q42 0 74.5 60.5t32.5 160.5v25q0 100 -32.5 160.5t-74.5 60.5q-43 0 -71.5 -60t-28.5 -165v-17q0 -105 28.5 -165t71.5 -60zM221 586v67h46v-67
h-46zM121 586v67h46v-67h-46z" />
    <glyph glyph-name="agrave.alt" horiz-adv-x="376" 
d="M171 -8q-57 0 -97 70t-40 191v19q0 120 40 190.5t97 70.5q72 0 110 -109v101h42v-525h-42v101q-38 -109 -110 -109zM176 29q42 0 74.5 60.5t32.5 160.5v25q0 100 -32.5 160.5t-74.5 60.5q-43 0 -71.5 -60t-28.5 -165v-17q0 -105 28.5 -165t71.5 -60zM183 576l-82 100
l47 25l64 -125h-29z" />
    <glyph glyph-name="amacron.alt" horiz-adv-x="376" 
d="M171 -8q-57 0 -97 70t-40 191v19q0 120 40 190.5t97 70.5q72 0 110 -109v101h42v-525h-42v101q-38 -109 -110 -109zM176 29q42 0 74.5 60.5t32.5 160.5v25q0 100 -32.5 160.5t-74.5 60.5q-43 0 -71.5 -60t-28.5 -165v-17q0 -105 28.5 -165t71.5 -60zM104 588v39h180v-39
h-180z" />
    <glyph glyph-name="aogonek.alt" horiz-adv-x="376" 
d="M331 -87v-32q-11 -1 -20 -1q-62 0 -62 47q0 31 39 73h-7v101q-38 -109 -110 -109q-57 0 -97 70t-40 191v19q0 120 40 190.5t97 70.5q72 0 110 -109v101h42v-525h-6q-28 -39 -28 -61q0 -26 42 -26zM176 29q42 0 74.5 60.5t32.5 160.5v25q0 100 -32.5 160.5t-74.5 60.5
q-43 0 -71.5 -60t-28.5 -165v-17q0 -105 28.5 -165t71.5 -60z" />
    <glyph glyph-name="aring.alt" horiz-adv-x="376" 
d="M171 -8q-57 0 -97 70t-40 191v19q0 120 40 190.5t97 70.5q72 0 110 -109v101h42v-525h-42v101q-38 -109 -110 -109zM176 29q42 0 74.5 60.5t32.5 160.5v25q0 100 -32.5 160.5t-74.5 60.5q-43 0 -71.5 -60t-28.5 -165v-17q0 -105 28.5 -165t71.5 -60zM193 577
q-33 0 -55.5 23t-22.5 56t23 56t57 23q33 0 55.5 -23t22.5 -56t-23 -56t-57 -23zM194 603q22 0 36 15t14 38t-14 38t-36 15t-36 -15t-14 -38t14 -38t36 -15z" />
    <glyph glyph-name="aring.alt2" horiz-adv-x="345" 
d="M148 -9q-53 0 -86.5 46t-33.5 116v8q0 75 36.5 121.5t101.5 46.5q44 0 88 -20v66q0 116 -100 116q-53 0 -97 -24v41q34 15 58 19q-23 21 -23 57q0 33 23 56t57 23q33 0 55.5 -23t22.5 -56q0 -40 -34 -64q24 -9 42 -27q38 -38 38 -113v-380h-42v76q-34 -85 -106 -85z
M154 28q44 0 72 41t28 95v105q-45 21 -86 21q-47 0 -72.5 -35t-25.5 -92v-8q0 -56 22 -91.5t62 -35.5zM121 584q0 -23 14 -38t36 -15t36 15t14 38t-14 38t-36 15t-36 -15t-14 -38z" />
    <glyph glyph-name="aringacute.alt" horiz-adv-x="376" 
d="M174 766l67 100l43 -23l-79 -77h-31zM171 -8q-57 0 -97 70t-40 191v19q0 120 40 190.5t97 70.5q72 0 110 -109v101h42v-525h-42v101q-38 -109 -110 -109zM176 29q42 0 74.5 60.5t32.5 160.5v25q0 100 -32.5 160.5t-74.5 60.5q-43 0 -71.5 -60t-28.5 -165v-17
q0 -105 28.5 -165t71.5 -60zM192 577q-33 0 -55.5 23t-22.5 56t23 56t57 23q33 0 55.5 -23t22.5 -56t-23 -56t-57 -23zM193 603q22 0 36 15t14 38t-14 38t-36 15t-36 -15t-14 -38t14 -38t36 -15z" />
    <glyph glyph-name="aringacute.alt2" horiz-adv-x="345" 
d="M152 680l67 100l43 -23l-79 -77h-31zM148 -9q-53 0 -86.5 46t-33.5 116v8q0 75 36.5 121.5t101.5 46.5q44 0 88 -20v66q0 116 -100 116q-53 0 -97 -24v41q34 15 58 19q-23 21 -23 57q0 33 23 56t57 23q33 0 55.5 -23t22.5 -56q0 -40 -34 -64q24 -9 42 -27q38 -38 38 -113
v-380h-42v76q-34 -85 -106 -85zM154 28q44 0 72 41t28 95v105q-45 21 -86 21q-47 0 -72.5 -35t-25.5 -92v-8q0 -56 22 -91.5t62 -35.5zM121 584q0 -23 14 -38t36 -15t36 15t14 38t-14 38t-36 15t-36 -15t-14 -38z" />
    <glyph glyph-name="atilde.alt" horiz-adv-x="376" 
d="M171 -8q-57 0 -97 70t-40 191v19q0 120 40 190.5t97 70.5q72 0 110 -109v101h42v-525h-42v101q-38 -109 -110 -109zM176 29q42 0 74.5 60.5t32.5 160.5v25q0 100 -32.5 160.5t-74.5 60.5q-43 0 -71.5 -60t-28.5 -165v-17q0 -105 28.5 -165t71.5 -60zM238 578
q-21 0 -50 26q-23 23 -34 23q-16 0 -28 -45l-30 8q18 75 54 75q21 0 50 -26q23 -23 34 -23q16 0 28 45l30 -8q-18 -75 -54 -75z" />
    <glyph glyph-name="i.dot" horiz-adv-x="160" 
d="M57 637v70h46v-70h-46zM59 0v525h42v-525h-42z" />
    <glyph glyph-name="uni0386.calt" horiz-adv-x="410" 
d="M28 0l153 703h48l153 -703h-46l-41 196h-182l-41 -196h-44zM121 236h166l-83 398z" />
    <glyph glyph-name="uni0388.calt" horiz-adv-x="325" 
d="M56 0v700h238v-40h-194v-287h177v-40h-177v-293h197v-40h-241z" />
    <glyph glyph-name="uni0389.calt" horiz-adv-x="416" 
d="M56 0v700h44v-328h216v328h44v-700h-44v332h-216v-332h-44z" />
    <glyph glyph-name="uni038A.calt" horiz-adv-x="170" 
d="M63 0v700h44v-700h-44z" />
    <glyph glyph-name="uni038C.calt" horiz-adv-x="406" 
d="M203 -8q-74 0 -120 91t-46 259v16q0 168 46 259t120 91t120 -91t46 -259v-16q0 -168 -46 -259t-120 -91zM203 32q54 0 88 80.5t34 229.5v16q0 149 -34 229.5t-88 80.5t-88 -80.5t-34 -229.5v-16q0 -149 34 -229.5t88 -80.5z" />
    <glyph glyph-name="uni038E.calt" horiz-adv-x="352" 
d="M154 0v302l-146 398h48l121 -343l122 343h45l-146 -398v-302h-44z" />
    <glyph glyph-name="uni038F.calt" horiz-adv-x="420" 
d="M210 708q78 0 123 -70.5t45 -208.5v-4q0 -194 -103 -385l108 1v-41h-148v37q99 190 99 388v4q0 239 -124 239t-124 -239v-4q0 -198 99 -388v-37h-148v41l107 -1q-102 189 -102 385v4q0 138 45 208.5t123 70.5z" />
    <glyph glyph-name="uni0399.calt" horiz-adv-x="170" 
d="M63 0v700h44v-700h-44zM113 750v63h50v-63h-50zM9 750v63h50v-63h-50z" />
    <glyph glyph-name="uni03A5.calt" horiz-adv-x="352" 
d="M154 0v302l-146 398h48l121 -343l122 343h45l-146 -398v-302h-44zM204 746v63h50v-63h-50zM100 746v63h50v-63h-50z" />
    <glyph glyph-name="uni0431.srb" horiz-adv-x="361" 
d="M178 -8q-64 0 -104.5 69.5t-40.5 183.5v6q0 111 39.5 177t103.5 66q2 0 16 -2l-78 83q-42 44 -42 76q0 56 71 56h156v-39h-154q-31 0 -31 -23q0 -14 28 -46l100 -112q86 -96 86 -233v-6q0 -117 -40.5 -186.5t-109.5 -69.5zM179 31q51 0 79 58.5t28 158.5v6
q0 87 -29 146.5t-78 59.5q-50 0 -77 -56.5t-27 -152.5v-6q0 -97 28 -155.5t76 -58.5z" />
    <glyph glyph-name="three.alt" horiz-adv-x="310" 
d="M105 -8q-41 0 -84 18v41q45 -19 85 -19q60 0 95 41.5t35 115.5v2q0 146 -154 154v38h1q65 6 107.5 49.5t42.5 110.5v2q0 57 -29.5 90t-83.5 33q-48 0 -88 -25v41q46 24 94 24q72 0 111.5 -45.5t39.5 -114.5v-4q0 -127 -124 -177q59 -16 93 -62t34 -115v-2
q0 -88 -47.5 -142t-127.5 -54z" />
    <glyph glyph-name="registered.alt" horiz-adv-x="523" 
d="M261 -10q-106 0 -171.5 99t-65.5 244v35q0 146 65.5 244.5t171.5 98.5t172 -99t66 -244v-35q0 -145 -66 -244t-172 -99zM261 15q97 0 154.5 92t57.5 226v35q0 134 -57.5 226t-154.5 92q-96 0 -153.5 -92t-57.5 -226v-35q0 -134 57.5 -226t153.5 -92zM187 164v385h59
q51 0 81 -30q31 -31 31 -85v-3q0 -78 -60 -106l69 -161h-38l-63 150q-9 -1 -18 -1h-27v-149h-34zM221 346h27q35 0 55 21t20 63v2q0 41 -21 62t-56 21h-25v-169z" />
    <glyph glyph-name="one.sup_alt" 
d="M217 466h-182v32h78v275l-78 -40v38l81 44h32v-317h69v-32z" />
    <glyph glyph-name="one.inf_alt" 
d="M217 -131h-182v32h78v275l-78 -40v38l81 44h32v-317h69v-32z" />
    <glyph glyph-name="zero.num" 
d="M120 350q-94 0 -94 173v7q0 174 94 174t94 -173v-7q0 -174 -94 -174zM120 671q-58 0 -58 -140v-7q0 -141 58 -141t58 140v7q0 141 -58 141z" />
    <glyph glyph-name="one.num" horiz-adv-x="195" 
d="M124 354h-35v304l-67 -37v36l70 43h32v-346z" />
    <glyph glyph-name="one.num_alt" 
d="M217 354h-182v32h78v275l-78 -40v38l81 44h32v-317h69v-32z" />
    <glyph glyph-name="two.num" 
d="M24 354v22l114 161q33 49 33 81q0 25 -16 38.5t-39 13.5q-41 0 -80 -43v41q36 36 83 36q38 0 63 -23t25 -62q0 -43 -40 -99l-92 -132h136v-34h-187z" />
    <glyph glyph-name="three.num" 
d="M101 350q-40 0 -70 24v39q30 -30 72 -30q29 0 49 16.5t20 50.5q0 66 -102 70h-1v24l91 122h-129v34h175v-25l-95 -126q97 -14 97 -98q0 -47 -30.5 -74t-76.5 -27z" />
    <glyph glyph-name="four.num" 
d="M187 426v-72h-32v72h-135v25l127 251h40v-246h35v-30h-35zM155 456v190h-4l-94 -190h98z" />
    <glyph glyph-name="five.num" 
d="M105 350q-42 0 -70 21v39q31 -27 70 -27q66 0 66 78q0 37 -17.5 55t-46.5 18q-27 0 -47 -12l-24 11l11 167h145v-34h-114l-9 -106q18 7 41 7q44 0 71 -27t27 -78t-28 -81.5t-75 -30.5z" />
    <glyph glyph-name="six.num" 
d="M121 350q-35 0 -57 22q-35 38 -35 128v14q0 190 113 190q27 0 48 -12v-37q-22 15 -48 15q-69 0 -77 -121q29 25 63 25q38 0 62 -27.5t24 -81.5q0 -52 -26 -83.5t-67 -31.5zM122 383q27 0 42 22t15 61q0 37 -15.5 56t-40.5 19q-34 0 -58 -27v-20q0 -111 57 -111z" />
    <glyph glyph-name="seven.num" 
d="M89 354h-36l120 312h-143v34h179v-29z" />
    <glyph glyph-name="eight.num" 
d="M120 350q-42 0 -67.5 25.5t-25.5 70.5q0 63 53 87q-45 25 -45 80q0 43 24 67t61 24t61 -24t24 -67q0 -55 -45 -80q53 -24 53 -86q0 -45 -25.5 -71t-67.5 -26zM120 672q-23 0 -37 -16.5t-14 -42.5q0 -28 14 -46.5t37 -18.5t37 18.5t14 46.5q0 26 -14 42.5t-37 16.5z
M120 516q-26 0 -42.5 -19.5t-16.5 -49.5q0 -28 16 -46.5t43 -18.5t43 18.5t16 46.5q0 30 -16.5 49.5t-42.5 19.5z" />
    <glyph glyph-name="nine.num" 
d="M122 704q35 0 57 -22q35 -38 35 -128v-14q0 -98 -30.5 -144t-82.5 -46q-29 0 -55 14v36q27 -16 55 -16q69 0 77 116q-29 -25 -63 -25q-38 0 -62 28t-24 83q0 54 25.5 86t67.5 32zM120 508q34 0 58 27v25q0 111 -57 111q-27 0 -42 -23t-15 -63q0 -77 56 -77z" />
    <glyph glyph-name="zero.den" 
d="M120 -4q-94 0 -94 173v7q0 174 94 174t94 -173v-7q0 -174 -94 -174zM120 317q-58 0 -58 -140v-7q0 -141 58 -141t58 140v7q0 141 -58 141z" />
    <glyph glyph-name="one.den" horiz-adv-x="195" 
d="M124 0h-35v304l-67 -37v36l70 43h32v-346z" />
    <glyph glyph-name="one.den_alt" 
d="M217 0h-182v32h78v275l-78 -40v38l81 44h32v-317h69v-32z" />
    <glyph glyph-name="two.den" 
d="M24 0v22l114 161q33 49 33 81q0 25 -16 38.5t-39 13.5q-41 0 -80 -43v41q36 36 83 36q38 0 63 -23t25 -62q0 -43 -40 -99l-92 -132h136v-34h-187z" />
    <glyph glyph-name="three.den" 
d="M101 -4q-40 0 -70 24v39q30 -30 72 -30q29 0 49 16.5t20 50.5q0 66 -102 70h-1v24l91 122h-129v34h175v-25l-95 -126q97 -14 97 -98q0 -47 -30.5 -74t-76.5 -27z" />
    <glyph glyph-name="four.den" 
d="M187 72v-72h-32v72h-135v25l127 251h40v-246h35v-30h-35zM155 102v190h-4l-94 -190h98z" />
    <glyph glyph-name="five.den" 
d="M105 -4q-42 0 -70 21v39q31 -27 70 -27q66 0 66 78q0 37 -17.5 55t-46.5 18q-27 0 -47 -12l-24 11l11 167h145v-34h-114l-9 -106q18 7 41 7q44 0 71 -27t27 -78t-28 -81.5t-75 -30.5z" />
    <glyph glyph-name="six.den" 
d="M121 -4q-35 0 -57 22q-35 38 -35 128v14q0 190 113 190q27 0 48 -12v-37q-22 15 -48 15q-69 0 -77 -121q29 25 63 25q38 0 62 -27.5t24 -81.5q0 -52 -26 -83.5t-67 -31.5zM122 29q27 0 42 22t15 61q0 37 -15.5 56t-40.5 19q-34 0 -58 -27v-20q0 -111 57 -111z" />
    <glyph glyph-name="seven.den" 
d="M89 0h-36l120 312h-143v34h179v-29z" />
    <glyph glyph-name="eight.den" 
d="M120 -4q-42 0 -67.5 25.5t-25.5 70.5q0 63 53 87q-45 25 -45 80q0 43 24 67t61 24t61 -24t24 -67q0 -55 -45 -80q53 -24 53 -86q0 -45 -25.5 -71t-67.5 -26zM120 318q-23 0 -37 -16.5t-14 -42.5q0 -28 14 -46.5t37 -18.5t37 18.5t14 46.5q0 26 -14 42.5t-37 16.5z
M120 162q-26 0 -42.5 -19.5t-16.5 -49.5q0 -28 16 -46.5t43 -18.5t43 18.5t16 46.5q0 30 -16.5 49.5t-42.5 19.5z" />
    <glyph glyph-name="nine.den" 
d="M122 350q35 0 57 -22q35 -38 35 -128v-14q0 -98 -30.5 -144t-82.5 -46q-29 0 -55 14v36q27 -16 55 -16q69 0 77 116q-29 -25 -63 -25q-38 0 -62 28t-24 83q0 54 25.5 86t67.5 32zM120 154q34 0 58 27v25q0 111 -57 111q-27 0 -42 -23t-15 -63q0 -77 56 -77z" />
    <glyph glyph-name="onehalf.alt" horiz-adv-x="540" 
d="M202 354h-182v32h78v275l-78 -40v38l81 44h32v-317h69v-32zM336 0v22l114 161q33 49 33 81q0 25 -16 38.5t-39 13.5q-41 0 -80 -43v41q36 36 83 36q38 0 63 -23t25 -62q0 -43 -40 -99l-92 -132h136v-34h-187zM120 0l145 358l138 343h35l-145 -358l-139 -343h-34z" />
    <glyph glyph-name="onethird.alt" horiz-adv-x="540" 
d="M202 354h-182v32h78v275l-78 -40v38l81 44h32v-317h69v-32zM415 -4q-40 0 -70 24v39q30 -30 72 -30q29 0 49 16.5t20 50.5q0 66 -102 70h-1v24l91 122h-129v34h175v-25l-95 -126q97 -14 97 -98q0 -47 -30.5 -74t-76.5 -27zM115 0l145 358l138 343h35l-145 -358l-139 -343
h-34z" />
    <glyph glyph-name="onequarter.alt" horiz-adv-x="540" 
d="M207 354h-182v32h78v275l-78 -40v38l81 44h32v-317h69v-32zM130 0l145 358l138 343h35l-145 -358l-139 -343h-34zM487 72v-72h-32v72h-135v25l127 251h40v-246h35v-30h-35zM455 102v190h-4l-94 -190h98z" />
    <glyph glyph-name="onefifth.alt" horiz-adv-x="540" 
d="M202 354h-182v32h78v275l-78 -40v38l81 44h32v-317h69v-32zM419 -4q-42 0 -70 21v39q31 -27 70 -27q66 0 66 78q0 37 -17.5 55t-46.5 18q-27 0 -47 -12l-24 11l11 167h145v-34h-114l-9 -106q18 7 41 7q44 0 71 -27t27 -78t-28 -81.5t-75 -30.5zM120 0l145 358l138 343h35
l-145 -358l-139 -343h-34z" />
    <glyph glyph-name="onesixth.alt" horiz-adv-x="540" 
d="M202 354h-182v32h78v275l-78 -40v38l81 44h32v-317h69v-32zM435 -4q-35 0 -57 22q-35 38 -35 128v14q0 190 113 190q27 0 48 -12v-37q-22 15 -48 15q-69 0 -77 -121q29 25 63 25q38 0 62 -27.5t24 -81.5q0 -52 -26 -83.5t-67 -31.5zM436 29q27 0 42 22t15 61
q0 37 -15.5 56t-40.5 19q-34 0 -58 -27v-20q0 -111 57 -111zM125 0l145 358l138 343h35l-145 -358l-139 -343h-34z" />
    <glyph glyph-name="oneeighth.alt" horiz-adv-x="540" 
d="M202 354h-182v32h78v275l-78 -40v38l81 44h32v-317h69v-32zM434 -4q-42 0 -67.5 25.5t-25.5 70.5q0 63 53 87q-45 25 -45 80q0 43 24 67t61 24t61 -24t24 -67q0 -55 -45 -80q53 -24 53 -86q0 -45 -25.5 -71t-67.5 -26zM434 318q-23 0 -37 -16.5t-14 -42.5q0 -28 14 -46.5
t37 -18.5t37 18.5t14 46.5q0 26 -14 42.5t-37 16.5zM434 162q-26 0 -42.5 -19.5t-16.5 -49.5q0 -28 16 -46.5t43 -18.5t43 18.5t16 46.5q0 30 -16.5 49.5t-42.5 19.5zM125 0l145 358l138 343h35l-145 -358l-139 -343h-34z" />
    <glyph glyph-name="zero.tab" horiz-adv-x="360" 
d="M180 -8q-73 0 -108.5 83t-35.5 266v16q0 183 35 267t109 84q73 0 108.5 -83t35.5 -266v-16q0 -182 -36 -266.5t-108 -84.5zM180 668q-100 0 -100 -309v-16q0 -311 100 -311t100 309v16q0 311 -100 311z" />
    <glyph glyph-name="one.tab" horiz-adv-x="360" 
d="M331 0h-284v40h128v606l-125 -83v50l129 87h39v-660h113v-40z" />
    <glyph glyph-name="two.tab" horiz-adv-x="360" 
d="M319 0h-287v29l175 332q60 116 60 188q0 54 -26 84.5t-70 30.5q-61 0 -120 -69v53q53 60 124 60q61 0 99.5 -43t38.5 -111v-4q0 -48 -15.5 -93t-51.5 -112l-159 -302h232v-43z" />
    <glyph glyph-name="three.tab" horiz-adv-x="360" 
d="M149 -8q-67 0 -112 43v48q50 -50 112 -50q59 0 92 41.5t33 118.5v6q0 75 -42.5 111.5t-123.5 41.5h-3l-1 31l157 272h-224v45h278v-30l-164 -283q168 -26 168 -187v-6q0 -94 -47 -148t-123 -54z" />
    <glyph glyph-name="three.tab_alt" horiz-adv-x="360" 
d="M150 -8q-74 0 -114 40v48q50 -48 115 -48q57 0 89 41.5t32 116.5q0 148 -168 154h-4v39h4q72 4 118 49t46 116q0 56 -28.5 88t-75.5 32q-63 0 -117 -54v48q44 46 119 46q69 0 108 -44.5t39 -113.5q0 -131 -131 -184q62 -18 98 -63t36 -114q0 -88 -45 -142.5t-121 -54.5z
" />
    <glyph glyph-name="four.tab" horiz-adv-x="360" 
d="M241 0v161h-215v35l209 509h47v-505h56v-39h-56v-161h-41zM241 200v416h-4l-169 -416h173z" />
    <glyph glyph-name="five.tab" horiz-adv-x="360" 
d="M150 -8q-62 0 -103 37v47q49 -43 103 -43q59 0 90.5 49.5t31.5 134.5v3q0 81 -32 117.5t-83 36.5q-40 0 -77 -25l-31 20l15 331h226v-43h-188l-11 -259q27 18 72 18q66 0 109.5 -49.5t43.5 -146.5v-3q0 -100 -45.5 -162.5t-120.5 -62.5z" />
    <glyph glyph-name="six.tab" horiz-adv-x="360" 
d="M194 435q59 0 98 -52.5t39 -157.5v-4q0 -103 -39.5 -166t-102.5 -63q-46 0 -77 31q-67 64 -67 272v28q0 199 46.5 292t127.5 93q39 0 72 -20v-46q-41 23 -72 23q-34 0 -60 -24.5t-40 -66.5t-21.5 -89t-8.5 -100q50 50 105 50zM190 31q45 0 71.5 54t26.5 135v4
q0 84 -28 127.5t-70 43.5q-50 0 -101 -58v-55q0 -251 101 -251z" />
    <glyph glyph-name="seven.tab" horiz-adv-x="360" 
d="M274 657h-234v43h278v-38l-196 -662h-44z" />
    <glyph glyph-name="eight.tab" horiz-adv-x="360" 
d="M180 -8q-65 0 -102.5 51t-37.5 135v7q0 62 23.5 109t67.5 67q-80 44 -80 166v6q0 82 36 128.5t93 46.5t93 -46.5t36 -128.5v-6q0 -122 -80 -166q44 -20 67.5 -67t23.5 -109v-7q0 -84 -37.5 -135t-102.5 -51zM180 380q40 0 62.5 43.5t22.5 104.5v4q0 64 -22 100.5
t-63 36.5t-63 -36.5t-22 -100.5v-4q0 -61 23 -104.5t62 -43.5zM180 31q46 0 72 42t26 107v3q0 69 -27 113.5t-71 44.5t-71 -44.5t-27 -113.5v-3q0 -65 26 -107t72 -42z" />
    <glyph glyph-name="nine.tab" horiz-adv-x="360" 
d="M171 259q-59 0 -98 53t-39 160v4q0 105 39.5 168.5t102.5 63.5q46 0 77 -31q67 -67 67 -272v-28q0 -199 -46.5 -292t-127.5 -93q-40 0 -82 23v46q47 -26 82 -26q34 0 59.5 24.5t40 66t21.5 86.5t8 96q-48 -49 -104 -49zM175 669q-45 0 -71.5 -54.5t-26.5 -137.5v-4
q0 -86 27.5 -130t70.5 -44q50 0 101 58v61q0 136 -28.5 193.5t-72.5 57.5z" />
    <glyph glyph-name="dollar.tab" horiz-adv-x="360" 
d="M220 782l-5 -80q52 -8 92 -36v-46q-56 37 -94 43l-16 -285q71 -46 101.5 -93t30.5 -112v-2q0 -73 -43 -123t-112 -54l-6 -107h-34l6 108q-60 6 -115 44v46q60 -44 117 -50l18 313q-66 40 -98 83t-32 111v2q0 67 43 112t108 49l5 77h34zM286 171v2q0 51 -21.5 87.5
t-70.5 69.5l-17 -296q53 4 81 42t28 95zM72 544v-2q0 -51 23 -84t68 -62l15 270q-47 -4 -76.5 -37.5t-29.5 -84.5z" />
    <glyph glyph-name="sterling.tab" horiz-adv-x="360" 
d="M91 364v169q0 88 47 135q39 39 100 39q47 0 77 -24l-2 -42q-30 26 -76 26q-42 0 -70 -28q-33 -33 -33 -107v-168h149v-38h-149v-287h206v-39h-301v21l52 18v287h-56v38h56z" />
    <glyph glyph-name="Euro.tab" horiz-adv-x="360" 
d="M12 417v35h61q14 121 63.5 186.5t118.5 65.5q41 0 69 -18v-46q-35 22 -69 22q-52 0 -88.5 -55t-48.5 -155h155v-35h-158q-2 -13 -2 -58v-18q0 -36 1 -53h159v-35h-155q12 -104 48.5 -159.5t90.5 -55.5q38 0 70 25v-46q-32 -21 -75 -21q-70 0 -117.5 65.5t-62.5 191.5h-60
v35h57q-1 16 -1 53v18q0 39 1 58h-57z" />
    <glyph glyph-name="yen.tab" horiz-adv-x="360" 
d="M57 176h102v99h-102v35h95l-138 390h48l119 -355l119 355h46l-139 -390h96v-35h-102v-99h102v-35h-102v-141h-42v141h-102v35z" />
    <glyph glyph-name="cent.tab" horiz-adv-x="360" 
d="M219 703v-83q56 -4 95 -43v-44q-44 42 -95 46v-458q52 4 95 47v-43q-36 -38 -95 -44v-86h-34v87q-136 21 -136 262v10q0 239 136 263v86h34zM91 356v-14q0 -194 94 -218v451q-94 -24 -94 -219z" />
    <glyph glyph-name="numbersign.tab" horiz-adv-x="360" 
d="M16 228h66l18 248h-65v40h68l13 184h35l-13 -184h109l13 184h35l-13 -184h63v-40h-66l-18 -248h65v-40h-68l-13 -188h-35l13 188h-109l-13 -188h-35l13 188h-63v40zM244 476h-109l-18 -248h109z" />
    <glyph glyph-name="paragraph.tab" horiz-adv-x="360" 
d="M256 0v259h-4q-110 0 -168.5 59.5t-58.5 161.5v2q0 101 59 159.5t164 58.5h52v-700h-44z" />
    <glyph glyph-name="section.tab" horiz-adv-x="360" 
d="M160 -7q-44 0 -86 20l1 44q48 -25 87 -25q40 0 60.5 19.5t20.5 50.5v1q0 33 -21.5 56.5t-77.5 56.5q-69 40 -95 70.5t-26 70.5v2q0 81 112 130q-61 45 -61 103v2q0 48 35 80.5t91 32.5q44 0 86 -20l-1 -44q-48 25 -87 25q-40 0 -60.5 -19.5t-20.5 -50.5v-1
q0 -33 21.5 -56.5t77.5 -56.5q69 -40 95 -70.5t26 -70.5v-2q0 -81 -112 -130q61 -45 61 -103v-2q0 -48 -35 -80.5t-91 -32.5zM166 467q-101 -40 -101 -106v-2q0 -29 20.5 -52t74.5 -54q1 0 17 -10t17 -10q101 40 101 106v2q0 29 -20.5 50.5t-74.5 55.5q-1 0 -17 10t-17 10z
" />
    <glyph glyph-name="degree.tab" horiz-adv-x="360" 
d="M180 325q-54 0 -90.5 51t-36.5 136v9q0 85 36.5 136t90.5 51t90.5 -51t36.5 -136v-9q0 -85 -36.5 -136t-90.5 -51zM180 361q42 0 66 41t24 110v9q0 69 -24 110.5t-66 41.5t-66 -41.5t-24 -110.5v-9q0 -69 24 -110t66 -41z" />
    <glyph glyph-name="percent.tab" horiz-adv-x="360" 
d="M306 700h34l-146 -357v-1l-140 -342h-34l146 355v1zM101 671q-53 0 -53 -119v-5q0 -119 53 -119t53 119v5q0 119 -53 119zM101 705q42 0 65.5 -41.5t23.5 -111.5v-4q0 -70 -23.5 -112t-65.5 -42t-66 41.5t-24 111.5v4q0 70 24 112t66 42zM259 306q42 0 66 -41.5
t24 -111.5v-4q0 -70 -24 -112t-66 -42t-65.5 41.5t-23.5 111.5v4q0 70 23.5 112t65.5 42zM259 272q-53 0 -53 -119v-5q0 -119 53 -119t53 119v5q0 119 -53 119z" />
    <glyph glyph-name="quotedbl.tab" horiz-adv-x="360" 
d="M216 457l19 243h51l-1 -9l-50 -234h-19zM85 457l19 243h51l-1 -9l-50 -234h-19z" />
    <glyph glyph-name="quotesingle.tab" horiz-adv-x="180" 
d="M65 457l20 243h50l-1 -9l-49 -234h-20z" />
    <glyph glyph-name="period.tab" horiz-adv-x="180" 
d="M53 0v90h74v-90h-74z" />
    <glyph glyph-name="comma.tab" horiz-adv-x="180" 
d="M47 -103l-12 25q29 13 41 31t10 47h-33v90h74v-79q0 -45 -18.5 -69t-61.5 -45z" />
    <glyph glyph-name="colon.tab" horiz-adv-x="180" 
d="M53 434v90h74v-90h-74zM53 0v90h74v-90h-74z" />
    <glyph glyph-name="semicolon.tab" horiz-adv-x="180" 
d="M53 434v90h74v-90h-74zM47 -103l-12 25q29 13 41 31t10 47h-33v90h74v-79q0 -45 -18.5 -69t-61.5 -45z" />
    <glyph glyph-name="twodotleader.tab" horiz-adv-x="360" 
d="M235 0v86h70v-86h-70zM55 0v86h70v-86h-70z" />
    <glyph glyph-name="periodcentered.tab" horiz-adv-x="180" 
d="M53 253v90h74v-90h-74z" />
    <glyph glyph-name="slash.tab" horiz-adv-x="360" 
d="M323 769l-262 -868h-38l261 868h39z" />
    <glyph glyph-name="bar.tab" horiz-adv-x="180" 
d="M72 -99v868h36v-868h-36z" />
    <glyph glyph-name="underscore.tab" horiz-adv-x="360" 
d="M-2 -158v35h364v-35h-364z" />
    <glyph glyph-name="plus.tab" horiz-adv-x="360" 
d="M325 332h-125v-129h-40v129h-125v40h125v129h40v-129h125v-40z" />
    <glyph glyph-name="minus.tab" horiz-adv-x="360" 
d="M325 330h-290v44h290v-44z" />
    <glyph glyph-name="divide.tab" horiz-adv-x="360" 
d="M152 447v72h56v-72h-56zM325 330h-290v44h290v-44zM152 185v72h56v-72h-56z" />
    <glyph glyph-name="equal.tab" horiz-adv-x="360" 
d="M320 403h-280v41h280v-41zM320 260h-280v41h280v-41z" />
    <glyph glyph-name="multiply.tab" horiz-adv-x="360" 
d="M275 217l-95 106l-95 -106l-30 26l99 109l-99 109l30 26l95 -106l95 106l30 -26l-99 -109l99 -109z" />
    <glyph glyph-name="less.tab" horiz-adv-x="360" 
d="M302 177l-257 155v40l257 155v-50l-212 -125l212 -125v-50z" />
    <glyph glyph-name="greater.tab" horiz-adv-x="360" 
d="M315 332l-257 -155v50l212 125l-212 125v50l257 -155v-40z" />
    <glyph glyph-name="plusminus.tab" horiz-adv-x="360" 
d="M325 333h-125v-128h-40v128h-125v41h125v128h40v-128h125v-41zM325 92h-290v42h290v-42z" />
    <glyph glyph-name="R_p" horiz-adv-x="656" 
d="M46 0v700h69q85 0 136 -55.5t51 -153.5v-2q0 -151 -108 -200l119 -289h-49l-113 278q-14 -2 -30 -2h-33v-276h-42zM88 313h37q63 0 99 46t36 129v2q0 85 -39.5 128.5t-107.5 43.5h-25v-349zM366 -130v659h41v-94q37 101 99 101q51 0 87 -71t36 -193v-19
q0 -121 -36 -190.5t-87 -69.5q-64 0 -99 97v-220h-41zM502 28q38 0 62.5 60t24.5 166v17q0 106 -24.5 168t-62.5 62t-67.5 -62.5t-29.5 -163.5v-25q0 -100 29.5 -161t67.5 -61z" />
    <glyph glyph-name="hcoslug" horiz-adv-x="694" 
d="M247 18h26q1 22 -19 22t-20 -21q2 -20 21 -20q15 0 18 14h-7q-1 -7 -9 -7q-10 0 -10 12zM254 35q7 0 7 -12h-14q0 12 7 12zM195 78q-8 0 -8 16q0 15 8 15t8 -15q0 -16 -8 -16zM210 4q-8 0 -8 16q0 15 8 15t8 -15q0 -16 -8 -16zM210 -1q9 0 15 6t6 15q0 20 -21 20t-21 -20
q0 -21 21 -21zM546 4q-8 0 -8 16q0 15 8 15t8 -15q0 -16 -8 -16zM546 -1q9 0 15 6t6 15q0 20 -21 20t-21 -20q0 -21 21 -21zM125 81v-7h30v7h-10v16h4q4 0 6 -8h7v23h-7q-2 -8 -6 -8h-4v18h12q5 0 7 -2t4 -11h8v20h-51v-7h7v-41h-7zM195 73q9 0 15 6t6 15q0 20 -21 20
t-21 -20q0 -21 21 -21zM644 700v-800h-594v800h594zM498 -1q22 0 24 23h-8q-1 -16 -14 -16q-16 0 -16 22t14 22q11 0 15 -16h8v22h-8l-1 -6q-7 7 -16 7q-12 0 -19.5 -8t-7.5 -22q0 -28 29 -28zM372 80q-8 0 -8 13t8 13q7 0 7 -13t-7 -13zM276 7v-7h23v7h-5v25h14v-25h-5v-7
h23v7h-6v52l-10 -2q-6 2 -9 2q-19 0 -19 -19v-1h-7v-7h7v-25h-6zM368 7v-7h26v7h-8v16q4 9 7 9v-1q0 -6 6 -6q7 0 7 7q0 8 -8 8q-7 0 -12 -11v10h-18v-7h6v-25h-6zM352 125v-52h6l4 8q5 -8 14 -8q16 0 16 21q0 20 -15 20q-10 0 -13 -9v27h-18v-7h6zM400 75q-7 0 -7 -7
q0 -9 11 -9q12 0 18 16l13 31h5v7h-17v-7h5l-8 -20l-9 20h6v7h-25v-7h5q2 -7 6 -13l10 -20q-2 -8 -8 -8q3 2 1.5 6t-6.5 4zM247 428q0 13 7.5 21t19.5 8q13 0 21 -10.5t8 -27.5q0 -22 -18 -50l-5 5q-13 13 -18.5 19t-10 15.5t-4.5 19.5zM302 88v-14h7l1 4q5 -5 13 -5
q14 0 14 13q0 9 -12 12t-12 6q0 4 5 4q6 0 10 -7h7v13h-6l-2 -5q-3 5 -11 5q-14 0 -14 -12q0 -9 12 -12.5t12 -6.5q0 -4 -5 -4q-6 0 -12 9h-7zM261 219q-23 0 -37.5 15.5t-14.5 38.5q0 24 16 40q30 -26 74 -82q-15 -12 -38 -12zM286 124l-12 -2v-9h-7v-7h7v-20q0 -13 12 -13
q11 0 14 13l-5 2q-1 -7 -5 -7t-4 5v20h13v7h-13v11zM428 306q15 -25 43 -25q21 0 35.5 15.5t14.5 38.5t-14.5 37.5t-35.5 14.5q-34 0 -60 -38q-4 39 -49 37q9 15 9 34q0 29 -25.5 51.5t-69.5 22.5q-48 0 -78.5 -25.5t-30.5 -59.5q0 -35 31 -69q-82 -28 -82 -91q0 -39 32 -66
t77 -27q63 0 104 45q42 -45 85 -45q33 0 55.5 25.5t24.5 68.5l-7 2q-19 -29 -43 -29q-27 0 -62 41q20 26 46 42zM219 81v-7h22v7h-4v15q0 10 7 10q6 0 6 -7v-18h-4v-7h22v7h-6v19q0 14 -12 14q-9 0 -14 -11v10h-17v-7h6v-25h-6zM464 33h-18v-7h6q-2 -4 -6 -9l-12 13
q11 5 11 12q0 12 -14 12q-17 0 -17 -14q0 -6 6 -12q-13 -4 -13 -15q0 -14 18 -14q9 0 15 6q4 -6 12 -6q10 0 13 12l-5 1q-2 -5 -4 -5q-3 0 -6 5q5 5 9 14h5v7zM429 6q-10 0 -10 10q0 5 4 9q9 -9 14 -16q-5 -3 -8 -3zM294 39v3q0 12 6 12q2 0 3 -1q-1 -1 -1 -4q0 -5 6 -5v-5
h-14zM425 43q0 5 5 5q6 0 6 -6t-5 -9q-6 6 -6 10zM312 342q28 18 42 34q29 -29 -1 -80q-33 38 -41 46zM340 18h26q1 22 -19 22q-8 0 -14 -6t-6 -15q0 -20 21 -20q13 0 18 14h-7q-1 -7 -9 -7q-10 0 -10 12zM347 35q7 0 7 -12h-14q0 12 7 12zM124 7v-7h29v7h-8v18h22v-18h-8
v-7h29v7h-8v41h8v7h-29v-7h8v-16h-22v16h8v7h-29v-7h8v-41h-8zM576 13q-7 0 -7 -7t7 -7t7 7t-7 7z" />
    <glyph glyph-name="space.tab" horiz-adv-x="180" 
 />
    <glyph glyph-name="caron.alt" horiz-adv-x="500" 
d="M198 559l7 148h38v-2l-25 -146h-20z" />
    <glyph glyph-name="descendercyrillic" horiz-adv-x="500" 
d="M230 -104v125h39v-125h-39z" />
    <glyph glyph-name="descendercyrillic.cap" horiz-adv-x="500" 
d="M228 -112v133h43v-133h-43z" />
    <glyph glyph-name="straightdescendercyrillic" horiz-adv-x="500" 
d="M230 -104v104h-29v39h68v-143h-39z" />
    <glyph glyph-name="straightdescendercyrillic.cap" horiz-adv-x="500" 
d="M228 -112v112h-24v40h67v-152h-43z" />
    <glyph glyph-name="acute.cap" horiz-adv-x="500" 
d="M189 740l62 104l48 -22l-78 -82h-32z" />
    <glyph glyph-name="hungarumlaut.cap" horiz-adv-x="500" 
d="M144 740l62 104l45 -21l-76 -83h-31zM234 740l62 104l45 -21l-76 -83h-31z" />
    <glyph glyph-name="grave.cap" horiz-adv-x="500" 
d="M311 740h-32l-78 82l48 22z" />
    <glyph glyph-name="circumflex.cap" horiz-adv-x="500" 
d="M158 745l72 97h40l72 -97h-42l-51 58l-51 -58h-40z" />
    <glyph glyph-name="caron.cap" horiz-adv-x="500" 
d="M342 842l-72 -97h-40l-72 97h42l51 -58l51 58h40z" />
    <glyph glyph-name="breve.cap" horiz-adv-x="500" 
d="M250 743q-39 0 -64 20t-30 59h37q12 -39 57 -39t57 39h37q-5 -39 -30 -59t-64 -20z" />
    <glyph glyph-name="tilde.cap" horiz-adv-x="500" 
d="M296 742q-21 0 -52 21q-28 18 -36 18q-17 0 -29 -35l-32 8q22 65 57 65q21 0 52 -21q28 -18 36 -18q17 0 29 35l32 -8q-22 -65 -57 -65z" />
    <glyph glyph-name="macron.cap" horiz-adv-x="500" 
d="M154 752v41h192v-41h-192z" />
    <glyph glyph-name="dieresis.cap" horiz-adv-x="500" 
d="M277 750v63h50v-63h-50zM173 750v63h50v-63h-50z" />
    <glyph glyph-name="dotaccent.cap" horiz-adv-x="500" 
d="M224 750v63h52v-63h-52z" />
    <glyph glyph-name="ring.cap" horiz-adv-x="500" 
d="M249 741q-33 0 -55.5 21t-22.5 53t23.5 53t56.5 21t55.5 -21t22.5 -53t-23.5 -53t-56.5 -21zM250 768q21 0 34.5 13.5t13.5 33.5t-13.5 33.5t-34.5 13.5t-34.5 -13.5t-13.5 -33.5t13.5 -33.5t34.5 -13.5z" />
    <glyph glyph-name="uni0384.cap" horiz-adv-x="500" 
d="M198 549l7 151h44l-24 -151h-27z" />
    <glyph glyph-name="commaaccent.rot" horiz-adv-x="500" 
d="M271 714l11 -18q-32 -17 -28 -52h21v-58h-50v54q0 29 10.5 45t35.5 29z" />
    </font>
</defs>
</svg>
