<svg xmlns="http://www.w3.org/2000/svg" viewBox="0 0 218.76 145.28"><defs><style>.cls-1{fill:#18191a;}</style></defs><title>AAC darkgrey</title><g id="Layer_2" data-name="Layer 2"><g id="Layer_1-2" data-name="Layer 1"><path class="cls-1" d="M125.53,73.08A36.59,36.59,0,0,0,102.3,59.71l-.06,21.4a15,15,0,0,1,4.69,2.69Z"/><path class="cls-1" d="M8.65,75.42h4.48c1.12,9.27,11.54,10,11.54,10,5.08,0,12.34-.19,21.76-.52A51.41,51.41,0,0,1,67.36,54.24H24.67c-5.3,0-9.78,4.19-11.54,10H8.65c-1.16,0-2.82,1.42-2.82,5.6s1.66,5.57,2.82,5.57"/><path class="cls-1" d="M46,105.88c-1.48,1.85-3.08,3.7-4.78,5.51a73.69,73.69,0,0,1-9.68,8.69A129.18,129.18,0,0,1,14.41,131l-4,2c-1,.47-2,.92-3,1.34h0A75.3,75.3,0,0,1,0,137.05c1.49,2.52,3,5,4.58,7.37,3.48-.6,7.06-1.38,10.68-2.36l4.2-1.18c1.56-.47,3.13-1,4.71-1.52l0,0q3-1,6-2.16h.06A182.55,182.55,0,0,0,54.3,125.72a50.47,50.47,0,0,1-7-14.27A49.22,49.22,0,0,1,46,105.88"/><path class="cls-1" d="M90.69,59.65A36.86,36.86,0,0,0,67.45,73.08L86,83.8a14.12,14.12,0,0,1,4.72-2.72Z"/><path class="cls-1" d="M80.18,93.8,61.63,83.16a36.94,36.94,0,0,0,0,26.84L80.18,99.24a17.72,17.72,0,0,1,0-5.44"/><path class="cls-1" d="M203.12,54.24H125.58A51.4,51.4,0,0,1,147.3,89.51l17.89-4.23a7.44,7.44,0,0,0,6.05-6.06l24-1.63,5.23-.36,15.4-1q1-5.49,1.77-10.88c.5-3.66.87-7.36,1.15-11.07Z"/><path class="cls-1" d="M96.46,92A4.52,4.52,0,0,0,91.9,96.5a4.55,4.55,0,1,0,9.1,0A4.5,4.5,0,0,0,96.46,92"/><path class="cls-1" d="M96.46,47.73a48.78,48.78,0,1,0,46.17,64.63,48.2,48.2,0,0,0,2.66-15.83,48.85,48.85,0,0,0-48.83-48.8m3.27,9a40,40,0,0,1,29.61,17.08L106.61,87a13.9,13.9,0,0,0-6.88-4Zm-6.5,0V83a13.94,13.94,0,0,0-6.88,4L63.63,73.83a39.88,39.88,0,0,1,29.6-17.08M60.48,113.69c-.34-.7-.65-1.41-.94-2.13a39.89,39.89,0,0,1,.82-32.09L83.08,92.55a13.88,13.88,0,0,0,0,8L64.05,111.61ZM93.23,136.3A39.68,39.68,0,0,1,65.3,121.41c-.55-.73-1.1-1.45-1.67-2.16l13-7.52,9.77-5.66c.4.36.7.72,1.09,1a14.27,14.27,0,0,0,5.76,2.9ZM89.37,96.5a7.08,7.08,0,1,1,7.09,7.13,7.06,7.06,0,0,1-7.09-7.13m10.36,39.78V110a14,14,0,0,0,6.83-3.93L117,112.12l12.29,7.13a39.81,39.81,0,0,1-29.53,17m33.42-24c-.19.44-.4.9-.61,1.32l-2.35-1.35L109.82,100.5a14,14,0,0,0,0-8l22.72-13.12a39.93,39.93,0,0,1,.61,32.84"/><path class="cls-1" d="M112.94,97.57c5.21-1.43,10.77-2.82,16.4-4,1.31-.26,2.78-.59,4.33-.92a37.41,37.41,0,0,0-2.32-9.53L112.7,93.8a11,11,0,0,1,.26,2.68c0,.37,0,.74,0,1.09"/><path class="cls-1" d="M143.3,33.58a18.44,18.44,0,0,1-5.8-14v-.11a18.6,18.6,0,0,1,5.75-13.91A19.42,19.42,0,0,1,157.32,0q11.52,0,16.9,9.7l-10.29,6c-1.53-3-3.78-4.53-6.77-4.53a6.36,6.36,0,0,0-5.06,2.4,8.67,8.67,0,0,0-1.92,5.76v.1a8.82,8.82,0,0,0,2,6,6.22,6.22,0,0,0,5,2.29q4.43,0,7-4.69l10.28,5.81q-5.64,10.08-17.64,10.08a18.71,18.71,0,0,1-13.54-5.33"/><polygon class="cls-1" points="109.41 0.53 121.77 0.53 137.5 38.11 123.96 38.11 121.98 33.1 115.48 15.19 108.93 33.1 107.01 38.11 93.69 38.11 109.41 0.53"/><polygon class="cls-1" points="118.89 38.11 115.48 28.11 112.07 38.11 118.89 38.11"/><polygon class="cls-1" points="60 0.53 72.36 0.53 88.08 38.11 74.55 38.11 72.57 33.1 66.07 15.19 59.52 33.1 57.6 38.11 44.27 38.11 60 0.53"/><polygon class="cls-1" points="69.48 38.11 66.07 28.11 62.66 38.11 69.48 38.11"/></g></g></svg>